{
.appVersion = "3243";
.formatVersion = 3;
DisplayStrings = (
"LC
a+ 
aah naan ab/_part.o ott abduct action
nadmit tað aeon after again a/_part.h.cv01.alt hoy adjust faker alike logjam an ape aorta aqua arc apple jack ba/_part.s ketball haß expatriot autumn gavel awe axe says bedazzle anlaß
+a 
aardvark bad calf daffy afboða easy fall gaia hao miao jab kap plan mail nabbed oars pangolin qarats save tablet ua vats wa xa yay zara großartig

b+
bad dribble ribcage cabdriver bed obfuscate hobgoblins bhindi bicycle bjorn liebknecht bliss crabmill snubnose boss subpoena subquality brick absolute debt butter obvious bwana subxhosa by  jekabzeel  

+b
abaca ebb cbs dbx ðb ebony afbakenen bangbroek hb ibis jb kb lb ambacht nb observe pb qb absorb sbaen tbilisi uber vb cowbell xbox cybernetic uzbek ßb
kisses kn

c+
 cab ecbolic lucca anecdote cedar flicflac marcgravia cheese oscillate acjo chicken cliff acme picnic cobbler pincpinc lacquer crime ne tropics object cute mechanicville arcticward cx cypriot czech cß

+c
ac bc accede headcount ðc ecru defcon dogcatcher ashcan ice aramejczyk crankcase lc mc nc occular pc qc rc sc tc uc vc wc xc yc zc spießchen

d++
darling db adcraft nodded deep boldface porridge dharma dime django maidkin coddle adman wednesday done dpt. pdq drink kids burkhardt dunes medvedev dwiggins dx dynamoe adzuki dß

+d
ad bd cd dd ðd ed fd gd fahd acid ejder kd old md and anode pd qd rd misdeed td ud vd wd xd boyd zd ßd

 e+
easy treble mechanic educate effort ego meh ein applejack lekker eleven empathy end georges pepe eq inquieries estimate adieu ever ewer expert eye bezier grieß

+e
aerie ben cello de
mon blóðeitruneek female gehena helios ie jelly kewpie lei men new noel pen qe rescue semiotics teller ue venus welcome xerox yen zebra außen

f+

glyphs = (
{
glyphname = A;
kernLeft = A;
kernRight = A;
layers = (
{
anchors = (
{
name = bottom;
pos = (590,0);
},
{
name = ogonek;
pos = (1094,9);
},
{
name = top;
pos = (918,1855);
}
);
layerId = m01;
shapes = (
{
closed = 1;
nodes = (
(99,-5,o),
(108,8,o),
(135,61,cs),
(588,947,l),
(1007,947,l),
(1078,54,ls),
(1080,25,o),
(1088,-5,o),
(1140,-5,cs),
(1184,-5,o),
(1196,17,o),
(1192,56,cs),
(1043,1818,ls),
(1041,1844,o),
(1027,1860,o),
(985,1860,cs),
(933,1860,o),
(932,1840,o),
(910,1796,cs),
(10,68,ls),
(-16,18,o),
(10,-5,o),
(49,-5,cs)
);
},
{
closed = 1;
nodes = (
(848,1456,l),
(968,1724,l),
(968,1438,l),
(999,1053,l),
(642,1053,l)
);
}
);
vertWidth = 0;
width = 1378;
},
{
anchors = (
{
name = bottom;
pos = (680,0);
},
{
name = ogonek;
pos = (1234,9);
},
{
name = top;
pos = (1007,1855);
}
);
guides = (
{
angle = 180;
pos = (934,1213);
},
{
pos = (904,950);
}
);
layerId = "140DECC1-64C4-40C0-9C07-503DBC3F4160";
shapes = (
{
closed = 1;
nodes = (
(238,0,o),
(279,24,o),
(318,93,c),
(647,742,l),
(1039,742,l),
(1091,116,ls),
(1097,45,o),
(1142,0,o),
(1231,0,cs),
(1310,0,o),
(1368,43,o),
(1360,132,cs),
(1223,1720,ls),
(1216,1810,o),
(1151,1855,o),
(1063,1855,cs),
(968,1855,o),
(910,1813,o),
(882,1759,cs),
(55,171,ls),
(2,68,o),
(75,0,o),
(162,0,cs)
);
},
{
closed = 1;
nodes = (
(920,1281,l),
(1003,1492,l),
(992,1279,l),
(1016,1000,l),
(778,1000,l)
);
}
);
vertWidth = 0;
width = 1514;
}
);
unicode = 65;
},
{
glyphname = AE;
kernLeft = A;
kernRight = E;
layers = (
{
anchors = (
{
name = bottom;
pos = (975,0);
},
{
name = top;
pos = (1237,1855);
}
);
layerId = m01;
shapes = (
{
closed = 1;
nodes = (
(100,-8,o),
(103,7,o),
(138,61,cs),
(505,631,l),
(952,631,l),
(851,62,ls),
(844,22,o),
(858,0,o),
(904,0,cs),
(1878,0,ls),
(1927,0,o),
(1941,30,o),
(1941,63,cs),
(1941,91,o),
(1930,106,o),
(1878,106,cs),
(980,106,l),
(1128,947,l),
(1909,947,ls),
(1960,947,o),
(1971,968,o),
(1971,999,cs),
(1971,1032,o),
(1960,1053,o),
(1909,1053,cs),
(1147,1053,l),
(1271,1752,l),
(2164,1752,ls),
(2216,1752,o),
(2226,1767,o),
(2226,1799,cs),
(2226,1830,o),
(2214,1855,o),
(2164,1855,c),
(1193,1855,ls),
(1141,1855,o),
(1125,1833,o),
(1100,1792,cs),
(13,68,ls),
(-18,19,o),
(11,-8,o),
(50,-8,cs)
);
},
{
closed = 1;
nodes = (
(984,1409,l),
(1137,1683,l),
(970,737,l),
(559,737,l)
);
}
);
width = 2207;
},
{
anchors = (
{
name = bottom;
pos = (1089,0);
},
{
name = top;
pos = (1423,1855);
}
);
layerId = "140DECC1-64C4-40C0-9C07-503DBC3F4160";
shapes = (
{
closed = 1;
nodes = (
(240,-7,o),
(283,24,o),
(322,93,c),
(605,501,l),
(1015,501,l),
(951,141,ls),
(937,63,o),
(973,0,o),
(1057,0,cs),
(2049,0,ls),
(2134,0,o),
(2191,45,o),
(2191,120,cs),
(2191,188,o),
(2146,255,o),
(2054,255,cs),
(1266,255,l),
(1376,878,l),
(2112,878,ls),
(2203,878,o),
(2266,933,o),
(2266,1001,cs),
(2266,1075,o),
(2210,1121,o),
(2126,1121,cs),
(1418,1121,l),
(1503,1600,l),
(2329,1600,ls),
(2416,1600,o),
(2476,1656,o),
(2476,1731,cs),
(2476,1803,o),
(2424,1855,o),
(2337,1855,cs),
(1306,1855,ls),
(1147,1855,o),
(1089,1809,o),
(1058,1759,cs),
(59,171,ls),
(-3,73,o),
(77,-7,o),
(164,-7,cs)
);
},
{
closed = 1;
nodes = (
(1072,1302,l),
(1200,1556,l),
(1060,759,l),
(747,759,l)
);
}
);
width = 2402;
}
);
metricLeft = A;
metricRight = E;
unicode = 198;
},
{
glyphname = B;
kernLeft = H;
kernRight = B;
layers = (
{
anchors = (
{
name = bottom;
pos = (676,0);
},
{
name = center;
pos = (840,928);
},
{
name = top;
pos = (1003,1855);
}
);
layerId = m01;
shapes = (
{
closed = 1;
nodes = (
(1043,0,o),
(1272,144,o),
(1319,459,cs),
(1360,733,o),
(1203,915,o),
(859,998,c),
(1304,1045,o),
(1400,1171,o),
(1427,1374,cs),
(1470,1707,o),
(1182,1855,o),
(561,1855,cs),
(517,1855,o),
(498,1842,o),
(489,1789,cs),
(187,74,ls),
(179,34,o),
(195,0,o),
(226,0,cs)
);
},
{
closed = 1;
nodes = (
(463,959,l),
(1022,943,o),
(1240,736,o),
(1203,472,cs),
(1161,178,o),
(838,108,o),
(312,106,c)
);
},
{
closed = 1;
nodes = (
(602,1752,l),
(1061,1747,o),
(1339,1649,o),
(1307,1375,cs),
(1288,1201,o),
(1143,1084,o),
(478,1045,c)
);
}
);
vertWidth = 0;
width = 1459;
},
{
anchors = (
{
name = bottom;
pos = (741,0);
},
{
name = center;
pos = (905,928);
},
{
name = top;
pos = (1068,1855);
}
);
layerId = "140DECC1-64C4-40C0-9C07-503DBC3F4160";
shapes = (
{
closed = 1;
nodes = (
(1135,0,o),
(1425,75,o),
(1481,466,cs),
(1521,746,o),
(1401,903,o),
(1182,999,c),
(1464,1071,o),
(1600,1204,o),
(1617,1366,cs),
(1652,1703,o),
(1329,1855,o),
(595,1855,cs),
(530,1855,o),
(473,1834,o),
(456,1738,cs),
(177,152,ls),
(162,65,o),
(224,0,o),
(297,0,cs)
);
},
{
closed = 1;
nodes = (
(597,879,l),
(1076,862,o),
(1233,760,o),
(1197,516,cs),
(1170,329,o),
(995,269,o),
(488,257,c)
);
},
{
closed = 1;
nodes = (
(723,1596,l),
(1234,1581,o),
(1335,1492,o),
(1330,1381,cs),
(1324,1280,o),
(1295,1131,o),
(638,1113,c)
);
}
);
vertWidth = 0;
width = 1589;
}
);
metricLeft = H;
unicode = 66;
},
{
glyphname = C;
kernLeft = C;
kernRight = C;
layers = (
{
anchors = (
{
name = bottom;
pos = (755,0);
},
{
name = top;
pos = (1074,1855);
}
);
layerId = m01;
shapes = (
{
closed = 1;
nodes = (
(957,-5,o),
(1148,122,o),
(1314,305,cs),
(1381,380,o),
(1388,410,o),
(1385,428,cs),
(1380,456,o),
(1364,468,o),
(1331,468,cs),
(1293,468,o),
(1281,426,o),
(1219,371,cs),
(1059,218,o),
(910,102,o),
(713,102,cs),
(496,102,o),
(274,371,o),
(359,869,cs),
(418,1206,o),
(559,1757,o),
(1081,1757,cs),
(1220,1757,o),
(1366,1692,o),
(1498,1553,cs),
(1532,1519,o),
(1562,1526,o),
(1580,1550,c),
(1600,1569,o),
(1596,1605,o),
(1571,1628,c),
(1430,1777,o),
(1261,1860,o),
(1084,1860,cs),
(476,1860,o),
(315,1280,o),
(242,867,cs),
(140,300,o),
(437,-5,o),
(711,-5,cs)
);
}
);
vertWidth = 0;
width = 1538;
},
{
anchors = (
{
name = bottom;
pos = (857,0);
},
{
name = top;
pos = (1111,1855);
}
);
layerId = "140DECC1-64C4-40C0-9C07-503DBC3F4160";
shapes = (
{
closed = 1;
nodes = (
(1005,0,o),
(1250,111,o),
(1416,293,cs),
(1489,371,o),
(1514,408,o),
(1514,461,cs),
(1514,515,o),
(1474,560,o),
(1399,560,cs),
(1354,560,o),
(1296,543,o),
(1229,468,cs),
(1111,336,o),
(941,257,o),
(777,257,cs),
(565,257,o),
(455,517,o),
(515,868,cs),
(597,1353,o),
(806,1599,o),
(1137,1599,cs),
(1267,1599,o),
(1358,1569,o),
(1450,1485,cs),
(1519,1423,o),
(1606,1396,o),
(1669,1459,cs),
(1733,1524,o),
(1697,1608,o),
(1625,1672,cs),
(1474,1810,o),
(1318,1855,o),
(1140,1855,cs),
(650,1855,o),
(345,1524,o),
(229,870,cs),
(142,371,o),
(375,0,o),
(774,0,cs)
);
}
);
vertWidth = 0;
width = 1625;
}
);
unicode = 67;
},
{
glyphname = D;
kernLeft = H;
kernRight = D;
layers = (
{
anchors = (
{
name = bottom;
pos = (724,0);
},
{
name = center;
pos = (888,928);
},
{
name = top;
pos = (1052,1855);
}
);
layerId = m01;
shapes = (
{
closed = 1;
nodes = (
(426,0,ls),
(980,0,o),
(1447,345,o),
(1532,986,cs),
(1608,1557,o),
(1201,1855,o),
(669,1855,cs),
(564,1855,ls),
(511,1855,o),
(500,1833,o),
(492,1788,cs),
(187,62,ls),
(180,23,o),
(195,0,o),
(239,0,cs)
);
},
{
closed = 1;
nodes = (
(605,1752,l),
(679,1752,ls),
(1132,1752,o),
(1468,1479,o),
(1414,1003,cs),
(1341,405,o),
(903,106,o),
(426,106,cs),
(315,106,l)
);
}
);
vertWidth = 0;
width = 1560;
},
{
anchors = (
{
name = bottom;
pos = (791,0);
},
{
name = center;
pos = (954,928);
},
{
name = top;
pos = (1118,1855);
}
);
layerId = "140DECC1-64C4-40C0-9C07-503DBC3F4160";
shapes = (
{
closed = 1;
nodes = (
(529,0,ls),
(1103,0,o),
(1586,428,o),
(1663,1003,cs),
(1735,1531,o),
(1387,1855,o),
(749,1855,cs),
(608,1855,ls),
(519,1855,o),
(476,1817,o),
(461,1738,cs),
(177,140,ls),
(164,63,o),
(219,0,o),
(308,0,cs)
);
},
{
closed = 1;
nodes = (
(725,1600,l),
(764,1600,ls),
(1197,1600,o),
(1435,1370,o),
(1387,1000,cs),
(1331,575,o),
(964,255,o),
(529,255,cs),
(490,255,l)
);
}
);
vertWidth = 0;
width = 1686;
}
);
metricLeft = H;
unicode = 68;
},
{
glyphname = E;
kernLeft = H;
kernRight = E;
layers = (
{
anchors = (
{
name = bottom;
pos = (772,0);
},
{
name = ogonek;
pos = (1192,9);
},
{
name = top;
pos = (1053,1855);
},
{
name = topleft;
pos = (351,1855);
}
);
layerId = m01;
shapes = (
{
closed = 1;
nodes = (
(1214,0,ls),
(1263,0,o),
(1277,30,o),
(1277,63,cs),
(1277,91,o),
(1266,106,o),
(1214,106,cs),
(316,106,l),
(464,947,l),
(1245,947,ls),
(1295,947,o),
(1307,968,o),
(1307,999,cs),
(1307,1032,o),
(1295,1053,o),
(1245,1053,cs),
(482,1053,l),
(606,1752,l),
(1500,1752,ls),
(1551,1752,o),
(1562,1767,o),
(1562,1799,cs),
(1562,1830,o),
(1550,1855,o),
(1500,1855,cs),
(565,1855,ls),
(511,1855,o),
(499,1833,o),
(492,1789,cs),
(187,62,ls),
(179,22,o),
(194,0,o),
(239,0,cs)
);
}
);
vertWidth = 0;
width = 1543;
},
{
anchors = (
{
name = bottom;
pos = (809,0);
},
{
name = ogonek;
pos = (1269,9);
},
{
name = top;
pos = (1109,1855);
},
{
name = topleft;
pos = (328,1855);
}
);
layerId = "140DECC1-64C4-40C0-9C07-503DBC3F4160";
shapes = (
{
closed = 1;
nodes = (
(1277,0,ls),
(1361,0,o),
(1418,45,o),
(1418,120,cs),
(1418,188,o),
(1373,255,o),
(1282,255,cs),
(493,255,l),
(603,878,l),
(1340,878,ls),
(1430,878,o),
(1493,933,o),
(1493,1001,cs),
(1493,1075,o),
(1438,1121,o),
(1354,1121,cs),
(646,1121,l),
(731,1600,l),
(1557,1600,ls),
(1644,1600,o),
(1704,1656,o),
(1704,1731,cs),
(1704,1803,o),
(1651,1855,o),
(1564,1855,cs),
(613,1855,ls),
(524,1855,o),
(475,1824,o),
(461,1745,cs),
(178,141,ls),
(164,63,o),
(201,0,o),
(285,0,cs)
);
}
);
vertWidth = 0;
width = 1630;
}
);
metricLeft = H;
unicode = 69;
},
{
glyphname = Schwa;
kernLeft = O;
kernRight = O;
layers = (
{
anchors = (
{
name = bottom;
pos = (677,0);
},
{
name = top;
pos = (1004,1855);
}
);
layerId = m01;
shapes = (
{
closed = 1;
nodes = (
(1121,0,o),
(1400,326,o),
(1520,989,cs),
(1607,1494,o),
(1416,1874,o),
(1022,1874,cs),
(639,1874,o),
(320,1532,o),
(283,1161,cs),
(275,1088,o),
(296,1064,o),
(359,1064,cs),
(1411,1064,l),
(1400,987,ls),
(1299,400,o),
(1059,103,o),
(635,103,cs),
(496,103,o),
(359,165,o),
(225,305,cs),
(193,337,o),
(166,329,o),
(145,308,cs),
(125,287,o),
(128,253,o),
(152,229,cs),
(293,80,o),
(455,0,o),
(632,0,cs)
);
},
{
closed = 1;
nodes = (
(488,1540,o),
(756,1768,o),
(1019,1768,cs),
(1294,1768,o),
(1432,1515,o),
(1419,1168,c),
(427,1168,l)
);
}
);
width = 1533;
},
{
anchors = (
{
name = bottom;
pos = (754,0);
},
{
name = top;
pos = (1081,1855);
}
);
layerId = "140DECC1-64C4-40C0-9C07-503DBC3F4160";
shapes = (
{
closed = 1;
nodes = (
(1186,0,o),
(1491,332,o),
(1607,985,cs),
(1701,1524,o),
(1491,1874,o),
(1076,1874,cs),
(507,1874,o),
(286,1425,o),
(286,1093,cs),
(286,944,o),
(394,942,o),
(441,942,cs),
(1307,942,l),
(1291,863,l),
(1196,460,o),
(1001,257,o),
(699,257,cs),
(569,257,o),
(478,286,o),
(386,371,cs),
(317,432,o),
(230,459,o),
(167,396,cs),
(103,332,o),
(139,248,o),
(211,183,cs),
(362,45,o),
(518,0,o),
(696,0,cs)
);
},
{
closed = 1;
nodes = (
(659,1574,o),
(825,1617,o),
(1040,1617,cs),
(1237,1617,o),
(1337,1456,o),
(1336,1199,c),
(582,1199,l)
);
}
);
width = 1685;
}
);
unicode = 399;
},
{
glyphname = F;
kernLeft = H;
kernRight = F;
layers = (
{
anchors = (
{
name = bottom;
pos = (589,0);
},
{
name = top;
pos = (916,1855);
}
);
layerId = m01;
shapes = (
{
closed = 1;
nodes = (
(293,0,o),
(301,33,o),
(307,62,cs),
(464,947,l),
(1213,947,ls),
(1264,947,o),
(1276,968,o),
(1276,999,cs),
(1276,1032,o),
(1264,1053,o),
(1213,1053,cs),
(482,1053,l),
(605,1752,l),
(1470,1752,ls),
(1522,1752,o),
(1532,1767,o),
(1532,1799,cs),
(1532,1830,o),
(1520,1855,o),
(1470,1855,cs),
(566,1855,ls),
(511,1855,o),
(499,1833,o),
(492,1789,cs),
(187,62,ls),
(180,23,o),
(196,0,o),
(240,0,cs)
);
}
);
vertWidth = 0;
width = 1514;
},
{
anchors = (
{
name = bottom;
pos = (648,0);
},
{
name = top;
pos = (975,1855);
}
);
layerId = "140DECC1-64C4-40C0-9C07-503DBC3F4160";
shapes = (
{
closed = 1;
nodes = (
(393,0,o),
(454,60,o),
(469,147,cs),
(599,878,l),
(1324,878,ls),
(1415,878,o),
(1463,933,o),
(1463,1003,cs),
(1463,1075,o),
(1413,1121,o),
(1326,1121,cs),
(641,1121,l),
(727,1600,l),
(1523,1600,ls),
(1617,1600,o),
(1671,1665,o),
(1671,1726,cs),
(1671,1805,o),
(1619,1855,o),
(1532,1855,cs),
(605,1855,ls),
(516,1855,o),
(472,1822,o),
(458,1743,cs),
(178,153,ls),
(164,77,o),
(190,0,o),
(303,0,cs)
);
}
);
vertWidth = 0;
width = 1561;
}
);
metricLeft = H;
unicode = 70;
},
{
glyphname = G;
kernLeft = O;
kernRight = G;
layers = (
{
anchors = (
{
name = bottom;
pos = (711,0);
},
{
name = top;
pos = (1039,1855);
}
);
layerId = m01;
shapes = (
{
closed = 1;
nodes = (
(876,-18,o),
(1049,100,o),
(1259,416,c),
(1198,62,ls),
(1193,30,o),
(1198,3,o),
(1244,0,cs),
(1301,-2,o),
(1312,35,o),
(1318,67,cs),
(1433,722,ls),
(1441,767,o),
(1435,784,o),
(1391,784,cs),
(1339,784,o),
(1315,749,o),
(1283,675,cs),
(1128,318,o),
(912,88,o),
(697,88,cs),
(423,88,o),
(287,431,o),
(362,869,cs),
(463,1455,o),
(703,1752,o),
(1081,1752,cs),
(1220,1752,o),
(1356,1690,o),
(1490,1550,cs),
(1523,1518,o),
(1549,1526,o),
(1571,1548,cs),
(1591,1568,o),
(1587,1602,o),
(1563,1626,cs),
(1423,1775,o),
(1261,1855,o),
(1084,1855,cs),
(641,1855,o),
(362,1529,o),
(242,867,cs),
(155,361,o),
(346,-18,o),
(694,-18,cs)
);
}
);
vertWidth = 0;
width = 1621;
},
{
anchors = (
{
name = bottom;
pos = (759,0);
},
{
name = top;
pos = (1086,1855);
}
);
layerId = "140DECC1-64C4-40C0-9C07-503DBC3F4160";
shapes = (
{
closed = 1;
nodes = (
(920,-18,o),
(1059,104,o),
(1190,291,c),
(1162,140,ls),
(1146,51,o),
(1206,0,o),
(1305,0,cs),
(1403,0,o),
(1429,51,o),
(1441,120,cs),
(1554,762,ls),
(1570,851,o),
(1523,906,o),
(1434,906,cs),
(1377,906,o),
(1317,892,o),
(1245,760,cs),
(1100,507,o),
(915,238,o),
(721,238,cs),
(553,238,o),
(459,491,o),
(524,868,cs),
(606,1353,o),
(809,1599,o),
(1141,1599,cs),
(1271,1599,o),
(1362,1569,o),
(1453,1485,cs),
(1523,1423,o),
(1610,1396,o),
(1672,1459,cs),
(1737,1524,o),
(1701,1608,o),
(1629,1672,cs),
(1477,1810,o),
(1321,1855,o),
(1144,1855,cs),
(653,1855,o),
(348,1524,o),
(233,870,cs),
(139,332,o),
(348,-18,o),
(718,-18,cs)
);
}
);
vertWidth = 0;
width = 1733;
}
);
metricLeft = C;
unicode = 71;
},
{
glyphname = H;
kernLeft = H;
kernRight = H;
layers = (
{
anchors = (
{
name = bottom;
pos = (725,0);
},
{
name = center;
pos = (889,928);
},
{
name = top;
pos = (1052,1855);
},
{
name = topleft;
pos = (350,1855);
}
);
layerId = m01;
shapes = (
{
closed = 1;
nodes = (
(292,0,o),
(301,33,o),
(306,62,cs),
(462,947,l),
(1321,947,l),
(1166,62,ls),
(1161,30,o),
(1166,0,o),
(1220,0,cs),
(1267,0,o),
(1280,27,o),
(1284,53,cs),
(1590,1789,ls),
(1598,1833,o),
(1587,1855,o),
(1538,1855,cs),
(1493,1855,o),
(1477,1831,o),
(1473,1803,cs),
(1341,1053,l),
(480,1053,l),
(609,1781,ls),
(617,1830,o),
(605,1855,o),
(565,1855,cs),
(517,1855,o),
(498,1832,o),
(491,1788,cs),
(187,62,ls),
(179,22,o),
(194,0,o),
(238,0,cs)
);
}
);
vertWidth = 0;
width = 1629;
},
{
anchors = (
{
name = bottom;
pos = (773,0);
},
{
name = center;
pos = (937,928);
},
{
name = top;
pos = (1100,1855);
},
{
name = topleft;
pos = (328,1855);
}
);
layerId = "140DECC1-64C4-40C0-9C07-503DBC3F4160";
shapes = (
{
closed = 1;
nodes = (
(409,0,o),
(454,57,o),
(464,116,cs),
(598,878,l),
(1264,878,l),
(1134,140,ls),
(1119,57,o),
(1171,0,o),
(1264,0,cs),
(1346,0,o),
(1408,48,o),
(1418,105,cs),
(1701,1711,ls),
(1717,1803,o),
(1660,1855,o),
(1571,1855,cs),
(1489,1855,o),
(1429,1812,o),
(1417,1750,cs),
(1307,1121,l),
(641,1121,l),
(744,1704,ls),
(761,1805,o),
(707,1855,o),
(625,1855,cs),
(548,1855,o),
(474,1819,o),
(459,1738,cs),
(177,140,ls),
(164,60,o),
(222,0,o),
(312,0,cs)
);
}
);
vertWidth = 0;
width = 1750;
}
);
unicode = 72;
},
{
glyphname = Hbar;
kernLeft = H;
kernRight = H;
layers = (
{
anchors = (
{
name = bottom;
pos = (633,0);
},
{
name = center;
pos = (796,928);
},
{
name = top;
pos = (960,1855);
},
{
name = topleft;
pos = (258,1855);
}
);
layerId = m01;
shapes = (
{
closed = 1;
nodes = (
(200,0,o),
(208,33,o),
(213,62,cs),
(326,685,l),
(1185,685,l),
(1074,62,ls),
(1068,30,o),
(1074,0,o),
(1127,0,cs),
(1174,0,o),
(1187,27,o),
(1192,53,cs),
(1498,1789,ls),
(1505,1833,o),
(1494,1855,o),
(1446,1855,cs),
(1401,1855,o),
(1385,1831,o),
(1380,1803,cs),
(1205,791,l),
(345,791,l),
(517,1781,ls),
(525,1830,o),
(513,1855,o),
(473,1855,cs),
(424,1855,o),
(406,1832,o),
(398,1788,cs),
(94,62,ls),
(87,22,o),
(102,0,o),
(146,0,cs)
);
},
{
closed = 1;
nodes = (
(1531,1345,ls),
(1580,1345,o),
(1604,1363,o),
(1604,1399,cs),
(1604,1433,o),
(1582,1450,o),
(1537,1450,cs),
(210,1450,ls),
(162,1450,o),
(135,1432,o),
(135,1399,cs),
(135,1362,o),
(156,1345,o),
(205,1345,cs)
);
}
);
width = 1586;
},
{
anchors = (
{
name = bottom;
pos = (703,0);
},
{
name = center;
pos = (867,928);
},
{
name = top;
pos = (1030,1855);
},
{
name = topleft;
pos = (258,1855);
}
);
layerId = "140DECC1-64C4-40C0-9C07-503DBC3F4160";
shapes = (
{
closed = 1;
nodes = (
(339,0,o),
(383,57,o),
(394,116,cs),
(481,618,l),
(1148,618,l),
(1064,140,ls),
(1049,57,o),
(1100,0,o),
(1194,0,cs),
(1276,0,o),
(1338,48,o),
(1348,105,cs),
(1631,1711,ls),
(1647,1803,o),
(1589,1855,o),
(1501,1855,cs),
(1419,1855,o),
(1358,1812,o),
(1347,1750,cs),
(1190,861,l),
(525,861,l),
(674,1704,ls),
(691,1805,o),
(637,1855,o),
(554,1855,cs),
(478,1855,o),
(404,1819,o),
(389,1738,cs),
(107,140,ls),
(93,60,o),
(152,0,o),
(242,0,cs)
);
},
{
closed = 1;
nodes = (
(1620,1256,ls),
(1723,1256,o),
(1785,1307,o),
(1785,1388,cs),
(1785,1465,o),
(1731,1513,o),
(1646,1513,cs),
(288,1513,ls),
(185,1513,o),
(122,1460,o),
(122,1380,cs),
(122,1304,o),
(177,1256,o),
(264,1256,cs)
);
}
);
width = 1581;
}
);
unicode = 294;
},
{
glyphname = I;
kernLeft = H;
kernRight = H;
layers = (
{
anchors = (
{
name = bottom;
pos = (362,0);
},
{
name = ogonek;
pos = (533,9);
},
{
name = top;
pos = (681,1855);
},
{
name = topleft;
pos = (338,1855);
}
);
layerId = m01;
shapes = (
{
closed = 1;
nodes = (
(497,0,ls),
(548,0,o),
(559,21,o),
(559,52,cs),
(559,85,o),
(548,106,o),
(497,106,cs),
(430,106,l),
(720,1752,l),
(799,1752,ls),
(847,1752,o),
(858,1775,o),
(858,1805,cs),
(858,1836,o),
(848,1855,o),
(799,1855,cs),
(540,1855,ls),
(489,1855,o),
(478,1836,o),
(478,1805,cs),
(478,1775,o),
(490,1752,o),
(540,1752,cs),
(600,1752,l),
(310,106,l),
(225,106,ls),
(177,106,o),
(166,85,o),
(166,52,cs),
(166,21,o),
(177,0,o),
(225,0,cs)
);
}
);
vertWidth = 0;
width = 858;
},
{
anchors = (
{
name = bottom;
pos = (492,0);
},
{
name = ogonek;
pos = (767,9);
},
{
name = top;
pos = (761,1855);
},
{
name = topleft;
pos = (400,1855);
}
);
layerId = "140DECC1-64C4-40C0-9C07-503DBC3F4160";
shapes = (
{
closed = 1;
nodes = (
(735,0,ls),
(831,0,o),
(862,57,o),
(871,125,cs),
(883,195,o),
(847,257,o),
(775,257,cs),
(666,257,l),
(899,1599,l),
(1021,1599,ls),
(1112,1599,o),
(1153,1665,o),
(1165,1733,cs),
(1174,1803,o),
(1126,1855,o),
(1062,1855,cs),
(552,1855,ls),
(466,1855,o),
(425,1803,o),
(413,1733,cs),
(401,1665,o),
(446,1599,o),
(514,1599,cs),
(610,1599,l),
(378,257,l),
(268,257,ls),
(177,257,o),
(134,195,o),
(122,125,cs),
(110,57,o),
(155,0,o),
(227,0,cs)
);
}
);
vertWidth = 0;
width = 1120;
}
);
unicode = 73;
},
{
glyphname = IJ;
kernLeft = H;
kernRight = J;
layers = (
{
layerId = m01;
shapes = (
{
closed = 1;
nodes = (
(497,0,ls),
(548,0,o),
(559,21,o),
(559,52,cs),
(559,85,o),
(548,106,o),
(497,106,cs),
(430,106,l),
(720,1752,l),
(799,1752,ls),
(847,1752,o),
(858,1775,o),
(858,1805,cs),
(858,1836,o),
(848,1855,o),
(799,1855,cs),
(540,1855,ls),
(489,1855,o),
(478,1836,o),
(478,1805,cs),
(478,1775,o),
(490,1752,o),
(540,1752,cs),
(600,1752,l),
(310,106,l),
(225,106,ls),
(177,106,o),
(166,85,o),
(166,52,cs),
(166,21,o),
(177,0,o),
(225,0,cs)
);
},
{
closed = 1;
nodes = (
(565,-401,o),
(826,-389,o),
(882,-382,cs),
(1266,-324,o),
(1341,19,o),
(1418,451,c),
(1657,1789,l),
(1665,1833,o),
(1653,1855,o),
(1605,1855,cs),
(1560,1855,o),
(1545,1831,o),
(1539,1803,cs),
(1301,457,ls),
(1234,77,o),
(1193,-222,o),
(899,-273,cs),
(819,-286,o),
(546,-295,o),
(477,-295,cs),
(444,-295,o),
(418,-312,o),
(418,-345,cs),
(418,-381,o),
(444,-401,o),
(477,-401,cs)
);
}
);
width = 1659;
},
{
layerId = "140DECC1-64C4-40C0-9C07-503DBC3F4160";
shapes = (
{
closed = 1;
nodes = (
(735,0,ls),
(831,0,o),
(862,57,o),
(871,125,cs),
(883,195,o),
(847,257,o),
(775,257,cs),
(666,257,l),
(899,1599,l),
(1021,1599,ls),
(1112,1599,o),
(1153,1665,o),
(1165,1733,cs),
(1174,1803,o),
(1126,1855,o),
(1062,1855,cs),
(552,1855,ls),
(466,1855,o),
(425,1803,o),
(413,1733,cs),
(401,1665,o),
(446,1599,o),
(514,1599,cs),
(610,1599,l),
(378,257,l),
(268,257,ls),
(177,257,o),
(134,195,o),
(122,125,cs),
(110,57,o),
(155,0,o),
(227,0,cs)
);
},
{
closed = 1;
nodes = (
(927,-475,o),
(1174,-470,o),
(1225,-463,cs),
(1744,-400,o),
(1740,-28,o),
(1811,364,cs),
(2055,1711,ls),
(2072,1803,o),
(2013,1855,o),
(1925,1855,cs),
(1843,1855,o),
(1782,1812,o),
(1771,1750,cs),
(1527,400,ls),
(1472,93,o),
(1449,-175,o),
(1220,-203,cs),
(1150,-213,o),
(903,-218,o),
(843,-218,cs),
(773,-218,o),
(703,-274,o),
(703,-347,cs),
(703,-424,o),
(773,-475,o),
(843,-475,cs)
);
}
);
width = 2095;
}
);
metricLeft = I;
metricRight = J;
unicode = 306;
},
{
glyphname = J;
kernLeft = J;
kernRight = J;
layers = (
{
anchors = (
{
name = bottom;
pos = (484,0);
},
{
name = top;
pos = (1096,1855);
}
);
layerId = m01;
shapes = (
{
closed = 1;
nodes = (
(127,-5,o),
(387,7,o),
(444,15,cs),
(827,72,o),
(902,416,o),
(979,847,c),
(1148,1789,l),
(1156,1833,o),
(1144,1855,o),
(1096,1855,cs),
(1051,1855,o),
(1035,1831,o),
(1030,1803,cs),
(862,854,ls),
(794,473,o),
(754,175,o),
(460,124,cs),
(380,110,o),
(107,102,o),
(38,102,cs),
(6,102,o),
(-21,84,o),
(-21,52,cs),
(-21,16,o),
(6,-5,o),
(38,-5,cs)
);
}
);
vertWidth = 0;
width = 1150;
},
{
anchors = (
{
name = bottom;
pos = (611,0);
},
{
name = top;
pos = (1069,1855);
}
);
background = {
shapes = (
{
closed = 1;
nodes = (
(160,0,o),
(407,5,o),
(458,12,cs),
(977,75,o),
(972,452,o),
(1044,839,cs),
(1179,1599,l),
(889,1599,l),
(760,875,ls),
(711,572,o),
(682,300,o),
(453,272,cs),
(383,262,o),
(136,257,o),
(76,257,cs),
(6,257,o),
(-64,201,o),
(-64,128,cs),
(-64,51,o),
(6,0,o),
(76,0,cs)
);
}
);
};
layerId = "140DECC1-64C4-40C0-9C07-503DBC3F4160";
shapes = (
{
closed = 1;
nodes = (
(160,0,o),
(407,5,o),
(458,12,cs),
(977,75,o),
(975,450,o),
(1044,839,cs),
(1199,1711,ls),
(1216,1803,o),
(1158,1855,o),
(1069,1855,cs),
(988,1855,o),
(927,1812,o),
(916,1750,cs),
(760,875,ls),
(707,573,o),
(682,300,o),
(453,272,cs),
(383,262,o),
(136,257,o),
(76,257,cs),
(6,257,o),
(-64,201,o),
(-64,128,cs),
(-64,51,o),
(6,0,o),
(76,0,cs)
);
}
);
vertWidth = 0;
width = 1239;
}
);
unicode = 74;
},
{
glyphname = K;
kernLeft = H;
kernRight = K;
layers = (
{
anchors = (
{
name = bottom;
pos = (660,0);
},
{
name = top;
pos = (987,1855);
}
);
layerId = m01;
shapes = (
{
closed = 1;
nodes = (
(1252,0,o),
(1279,22,o),
(1279,52,cs),
(1279,71,o),
(1271,86,o),
(1248,117,cs),
(581,1000,l),
(1536,1743,ls),
(1572,1770,o),
(1585,1785,o),
(1585,1816,cs),
(1585,1836,o),
(1571,1855,o),
(1541,1855,cs),
(1520,1855,o),
(1495,1848,o),
(1461,1821,cs),
(479,1049,l),
(607,1781,ls),
(615,1831,o),
(609,1855,o),
(564,1855,cs),
(513,1855,o),
(496,1832,o),
(489,1789,cs),
(187,77,ls),
(179,37,o),
(196,0,o),
(238,0,cs),
(289,0,o),
(300,41,o),
(307,79,cs),
(465,970,l),
(1149,51,ls),
(1170,22,o),
(1189,0,o),
(1222,0,cs)
);
}
);
vertWidth = 0;
width = 1404;
},
{
anchors = (
{
name = bottom;
pos = (692,0);
},
{
name = top;
pos = (1019,1855);
}
);
layerId = "140DECC1-64C4-40C0-9C07-503DBC3F4160";
shapes = (
{
closed = 1;
nodes = (
(1343,0,o),
(1401,63,o),
(1401,135,cs),
(1401,173,o),
(1388,214,o),
(1368,243,cs),
(850,979,l),
(1627,1615,ls),
(1670,1649,o),
(1699,1692,o),
(1699,1745,cs),
(1699,1803,o),
(1656,1855,o),
(1572,1855,cs),
(1526,1855,o),
(1470,1840,o),
(1425,1803,cs),
(649,1169,l),
(742,1704,ls),
(761,1817,o),
(685,1855,o),
(615,1855,cs),
(542,1855,o),
(470,1819,o),
(456,1738,cs),
(177,153,ls),
(163,69,o),
(224,0,o),
(314,0,cs),
(401,0,o),
(452,55,o),
(465,128,cs),
(590,846,l),
(1127,72,ls),
(1159,27,o),
(1213,0,o),
(1266,0,cs)
);
}
);
vertWidth = 0;
width = 1514;
}
);
metricLeft = H;
unicode = 75;
},
{
glyphname = L;
kernLeft = H;
kernRight = L;
layers = (
{
anchors = (
{
name = bottom;
pos = (732,0);
},
{
name = center;
pos = (831,928);
},
{
name = top;
pos = (565,1855);
},
{
name = topright;
pos = (1205,1278);
}
);
layerId = m01;
shapes = (
{
closed = 1;
nodes = (
(1220,0,ls),
(1265,0,o),
(1282,31,o),
(1282,63,cs),
(1282,91,o),
(1268,106,o),
(1220,106,cs),
(315,106,l),
(610,1781,ls),
(619,1831,o),
(614,1855,o),
(565,1855,cs),
(516,1855,o),
(499,1832,o),
(492,1788,cs),
(187,62,ls),
(180,23,o),
(195,0,o),
(239,0,cs)
);
}
);
vertWidth = 0;
width = 1365;
},
{
anchors = (
{
name = bottom;
pos = (796,0);
},
{
name = center;
pos = (865,928);
},
{
name = top;
pos = (627,1855);
},
{
name = topright;
pos = (1214,1216);
}
);
layerId = "140DECC1-64C4-40C0-9C07-503DBC3F4160";
shapes = (
{
closed = 1;
nodes = (
(1288,0,ls),
(1374,0,o),
(1432,63,o),
(1432,132,cs),
(1432,200,o),
(1374,257,o),
(1288,257,cs),
(491,257,l),
(745,1704,ls),
(766,1823,o),
(699,1855,o),
(627,1855,cs),
(542,1855,o),
(474,1819,o),
(459,1738,cs),
(177,140,ls),
(164,60,o),
(216,0,o),
(300,0,cs)
);
}
);
vertWidth = 0;
width = 1460;
}
);
metricLeft = E;
unicode = 76;
},
{
glyphname = Lslash;
kernLeft = H;
kernRight = L;
layers = (
{
anchors = (
{
name = bottom;
pos = (574,0);
},
{
name = center;
pos = (737,928);
},
{
name = top;
pos = (901,1855);
},
{
name = topright;
pos = (1543,1855);
}
);
layerId = m01;
shapes = (
{
closed = 1;
nodes = (
(1126,0,ls),
(1172,0,o),
(1188,31,o),
(1188,63,cs),
(1188,91,o),
(1174,106,o),
(1126,106,cs),
(222,106,l),
(517,1781,ls),
(526,1831,o),
(520,1855,o),
(472,1855,cs),
(422,1855,o),
(406,1832,o),
(398,1788,cs),
(93,62,ls),
(87,23,o),
(102,0,o),
(146,0,cs)
);
},
{
closed = 1;
nodes = (
(75,755,o),
(113,746,o),
(170,761,cs),
(689,906,ls),
(722,916,o),
(745,953,o),
(731,983,cs),
(719,1007,o),
(681,1025,o),
(626,1010,cs),
(105,865,ls),
(52,850,o),
(45,819,o),
(60,788,cs)
);
}
);
width = 1322;
},
{
anchors = (
{
name = bottom;
pos = (631,0);
},
{
name = center;
pos = (795,928);
},
{
name = top;
pos = (958,1855);
},
{
name = topright;
pos = (1659,1855);
}
);
layerId = "140DECC1-64C4-40C0-9C07-503DBC3F4160";
shapes = (
{
closed = 1;
nodes = (
(1218,0,ls),
(1304,0,o),
(1362,63,o),
(1362,132,cs),
(1362,200,o),
(1304,257,o),
(1218,257,cs),
(420,257,l),
(675,1704,ls),
(696,1823,o),
(629,1855,o),
(557,1855,cs),
(472,1855,o),
(404,1819,o),
(389,1738,cs),
(107,140,ls),
(93,60,o),
(146,0,o),
(230,0,cs)
);
},
{
closed = 1;
nodes = (
(108,658,o),
(213,633,o),
(305,658,cs),
(786,789,ls),
(888,817,o),
(921,887,o),
(898,954,cs),
(878,1012,o),
(796,1038,o),
(711,1015,cs),
(193,893,ls),
(87,864,o),
(57,791,o),
(85,720,cs)
);
}
);
width = 1438;
}
);
unicode = 321;
},
{
glyphname = M;
kernLeft = M;
kernRight = M;
layers = (
{
anchors = (
{
name = bottom;
pos = (1128,0);
},
{
name = top;
pos = (1455,1855);
}
);
layerId = m01;
shapes = (
{
closed = 1;
nodes = (
(78,-5,o),
(110,12,o),
(132,61,c),
(947,1641,l),
(1065,54,ls),
(1068,26,o),
(1077,-5,o),
(1133,-5,cs),
(1180,-5,o),
(1198,37,o),
(1210,59,cs),
(2031,1646,l),
(2153,53,ls),
(2154,26,o),
(2165,-5,o),
(2217,-5,cs),
(2255,-5,o),
(2273,18,o),
(2268,56,cs),
(2126,1792,l),
(2124,1838,o),
(2118,1860,o),
(2067,1860,cs),
(2013,1860,o),
(1999,1824,o),
(1981,1791,cs),
(1163,200,l),
(1040,1818,l),
(1038,1838,o),
(1027,1860,o),
(981,1860,cs),
(940,1860,o),
(925,1835,o),
(905,1797,cs),
(13,85,ls),
(-18,25,o),
(9,-5,o),
(50,-5,cs)
);
}
);
vertWidth = 0;
width = 2454;
},
{
anchors = (
{
name = bottom;
pos = (1146,0);
},
{
name = top;
pos = (1473,1855);
}
);
layerId = "140DECC1-64C4-40C0-9C07-503DBC3F4160";
shapes = (
{
closed = 1;
nodes = (
(218,0,o),
(297,27,o),
(331,93,cs),
(930,1268,l),
(1018,116,l),
(1026,51,o),
(1074,0,o),
(1160,0,cs),
(1272,0,o),
(1302,55,o),
(1319,89,cs),
(1927,1271,l),
(2011,116,ls),
(2013,55,o),
(2075,0,o),
(2164,0,cs),
(2246,0,o),
(2302,57,o),
(2294,132,cs),
(2164,1731,ls),
(2158,1812,o),
(2140,1855,o),
(2039,1855,cs),
(1955,1855,o),
(1904,1822,o),
(1874,1759,cs),
(1255,563,l),
(1170,1731,ls),
(1164,1812,o),
(1131,1855,o),
(1014,1855,cs),
(936,1855,o),
(910,1822,o),
(879,1762,cs),
(55,183,l),
(1,87,o),
(80,0,o),
(164,0,cs)
);
}
);
vertWidth = 0;
width = 2448;
}
);
metricLeft = A;
metricRight = A;
unicode = 77;
},
{
glyphname = N;
kernLeft = H;
kernRight = H;
layers = (
{
anchors = (
{
name = bottom;
pos = (726,0);
},
{
name = top;
pos = (1053,1855);
}
);
layerId = m01;
shapes = (
{
closed = 1;
nodes = (
(294,0,o),
(302,35,o),
(308,69,cs),
(581,1624,l),
(1163,43,ls),
(1173,18,o),
(1192,0,o),
(1228,0,cs),
(1277,0,o),
(1281,32,o),
(1286,62,cs),
(1590,1781,ls),
(1599,1832,o),
(1593,1855,o),
(1548,1855,cs),
(1500,1855,o),
(1483,1831,o),
(1476,1789,cs),
(1201,249,l),
(641,1805,ls),
(633,1830,o),
(608,1855,o),
(563,1855,cs),
(511,1855,o),
(499,1833,o),
(491,1788,cs),
(186,62,ls),
(179,23,o),
(197,0,o),
(240,0,cs)
);
}
);
vertWidth = 0;
width = 1631;
},
{
anchors = (
{
name = bottom;
pos = (771,0);
},
{
name = top;
pos = (1099,1855);
}
);
layerId = "140DECC1-64C4-40C0-9C07-503DBC3F4160";
shapes = (
{
closed = 1;
nodes = (
(395,0,o),
(451,55,o),
(463,120,cs),
(651,1258,l),
(1146,79,l),
(1170,29,o),
(1210,0,o),
(1282,0,cs),
(1379,0,o),
(1405,55,o),
(1417,116,cs),
(1696,1704,ls),
(1713,1795,o),
(1667,1865,o),
(1573,1865,cs),
(1494,1865,o),
(1429,1819,o),
(1415,1738,cs),
(1225,590,l),
(730,1771,ls),
(703,1831,o),
(653,1855,o),
(595,1855,cs),
(523,1855,o),
(475,1817,o),
(461,1738,cs),
(177,140,ls),
(163,60,o),
(218,0,o),
(299,0,cs)
);
}
);
vertWidth = 0;
width = 1745;
}
);
metricLeft = H;
metricRight = H;
unicode = 78;
},
{
glyphname = Eng;
kernLeft = H;
kernRight = J;
layers = (
{
layerId = m01;
shapes = (
{
closed = 1;
nodes = (
(298,0,o),
(304,39,o),
(307,55,cs),
(547,1429,l),
(709,1665,o),
(902,1775,o),
(1141,1775,cs),
(1319,1775,o),
(1387,1631,o),
(1342,1375,cs),
(1108,49,ls),
(1053,-261,o),
(867,-400,o),
(690,-400,cs),
(602,-400,o),
(517,-373,o),
(458,-333,cs),
(431,-313,o),
(402,-313,o),
(384,-333,c),
(364,-360,o),
(366,-393,o),
(389,-412,cs),
(456,-468,o),
(569,-503,o),
(688,-503,cs),
(920,-503,o),
(1156,-356,o),
(1226,42,cs),
(1460,1365,ls),
(1520,1705,o),
(1386,1881,o),
(1150,1881,cs),
(918,1881,o),
(704,1794,o),
(577,1600,c),
(613,1801,ls),
(621,1846,o),
(612,1863,o),
(573,1863,cs),
(520,1863,o),
(500,1842,o),
(492,1796,cs),
(186,49,ls),
(182,30,o),
(184,0,o),
(235,0,cs)
);
}
);
width = 1511;
},
{
layerId = "140DECC1-64C4-40C0-9C07-503DBC3F4160";
shapes = (
{
closed = 1;
nodes = (
(401,0,o),
(456,63,o),
(464,105,cs),
(673,1300,l),
(791,1496,o),
(885,1627,o),
(1077,1627,cs),
(1195,1627,o),
(1341,1564,o),
(1318,1428,cs),
(1079,89,ls),
(1015,-275,o),
(923,-359,o),
(727,-359,cs),
(619,-359,o),
(578,-339,o),
(556,-324,cs),
(496,-286,o),
(422,-300,o),
(383,-360,cs),
(338,-431,o),
(350,-510,o),
(410,-553,cs),
(453,-584,o),
(556,-635,o),
(694,-635,cs),
(1145,-635,o),
(1287,-394,o),
(1368,68,cs),
(1588,1383,ls),
(1645,1715,o),
(1452,1872,o),
(1173,1872,cs),
(989,1872,o),
(834,1789,o),
(738,1671,c),
(748,1723,ls),
(762,1807,o),
(717,1860,o),
(626,1860,cs),
(505,1860,o),
(468,1773,o),
(462,1740,cs),
(177,125,ls),
(165,57,o),
(200,0,o),
(296,0,cs)
);
}
);
width = 1644;
}
);
metricLeft = H;
metricRight = H;
unicode = 330;
},
{
glyphname = O;
kernLeft = O;
kernRight = O;
layers = (
{
anchors = (
{
name = bottom;
pos = (691,0);
},
{
name = center;
pos = (855,928);
},
{
name = ogonek;
pos = (1294,9);
},
{
name = top;
pos = (1018,1855);
},
{
name = topleft;
pos = (285,1855);
},
{
name = topright;
pos = (1752,1855);
}
);
layerId = m01;
shapes = (
{
closed = 1;
nodes = (
(1225,-5,o),
(1447,730,o),
(1514,1112,cs),
(1599,1585,o),
(1451,1860,o),
(1045,1860,cs),
(537,1860,o),
(319,1339,o),
(249,938,cs),
(169,467,o),
(245,-5,o),
(736,-5,cs)
);
},
{
closed = 1;
nodes = (
(411,1167,o),
(595,1757,o),
(1030,1757,cs),
(1431,1757,o),
(1457,1424,o),
(1397,1089,cs),
(1340,767,o),
(1084,102,o),
(734,102,cs),
(333,102,o),
(302,568,o),
(364,913,cs)
);
}
);
vertWidth = 0;
width = 1556;
},
{
anchors = (
{
name = bottom;
pos = (729,0);
},
{
name = center;
pos = (893,928);
},
{
name = ogonek;
pos = (1388,9);
},
{
name = top;
pos = (1056,1855);
},
{
name = topleft;
pos = (252,1855);
},
{
name = topright;
pos = (1860,1855);
}
);
layerId = "140DECC1-64C4-40C0-9C07-503DBC3F4160";
shapes = (
{
closed = 1;
nodes = (
(1204,0,o),
(1526,423,o),
(1647,1105,cs),
(1728,1574,o),
(1576,1855,o),
(1100,1855,cs),
(635,1855,o),
(344,1548,o),
(236,940,cs),
(134,360,o),
(348,0,o),
(797,0,cs)
);
},
{
closed = 1;
nodes = (
(601,1368,o),
(791,1599,o),
(1086,1599,cs),
(1393,1599,o),
(1417,1413,o),
(1360,1088,cs),
(1271,575,o),
(1055,257,o),
(796,257,cs),
(553,257,o),
(447,505,o),
(517,911,cs)
);
}
);
vertWidth = 0;
width = 1639;
}
);
unicode = 79;
},
{
glyphname = Oslash;
kernLeft = O;
kernRight = O;
layers = (
{
anchors = (
{
name = bottom;
pos = (664,0);
},
{
name = center;
pos = (828,928);
},
{
name = ogonek;
pos = (1267,9);
},
{
name = top;
pos = (991,1855);
},
{
name = topleft;
pos = (258,1855);
},
{
name = topright;
pos = (1725,1855);
}
);
layerId = m01;
shapes = (
{
closed = 1;
nodes = (
(1198,-5,o),
(1420,730,o),
(1488,1112,cs),
(1573,1585,o),
(1424,1860,o),
(1018,1860,cs),
(510,1860,o),
(292,1339,o),
(223,938,cs),
(142,467,o),
(218,-5,o),
(710,-5,cs)
);
},
{
closed = 1;
nodes = (
(384,1167,o),
(568,1757,o),
(1003,1757,cs),
(1404,1757,o),
(1430,1424,o),
(1370,1089,cs),
(1313,767,o),
(1057,102,o),
(707,102,cs),
(306,102,o),
(275,568,o),
(337,913,cs)
);
},
{
closed = 1;
nodes = (
(434,-103,o),
(458,-90,o),
(470,-56,cs),
(499,25,l),
(516,70,l),
(1283,1784,l),
(1295,1821,l),
(1316,1878,ls),
(1334,1930,o),
(1303,1956,o),
(1264,1956,cs),
(1236,1956,o),
(1213,1944,o),
(1198,1901,cs),
(1185,1866,l),
(1170,1824,l),
(419,159,l),
(400,104,l),
(350,-34,ls),
(334,-78,o),
(363,-103,o),
(404,-103,cs)
);
}
);
width = 1504;
},
{
anchors = (
{
name = bottom;
pos = (735,0);
},
{
name = center;
pos = (898,928);
},
{
name = ogonek;
pos = (1393,9);
},
{
name = top;
pos = (1062,1855);
},
{
name = topleft;
pos = (258,1855);
},
{
name = topright;
pos = (1866,1855);
}
);
layerId = "140DECC1-64C4-40C0-9C07-503DBC3F4160";
shapes = (
{
closed = 1;
nodes = (
(1210,0,o),
(1531,423,o),
(1652,1105,cs),
(1733,1574,o),
(1582,1855,o),
(1106,1855,cs),
(640,1855,o),
(349,1548,o),
(241,940,cs),
(140,360,o),
(354,0,o),
(803,0,cs)
);
},
{
closed = 1;
nodes = (
(606,1368,o),
(796,1599,o),
(1091,1599,cs),
(1399,1599,o),
(1423,1413,o),
(1366,1088,cs),
(1277,575,o),
(1061,257,o),
(801,257,cs),
(558,257,o),
(453,505,o),
(522,911,cs)
);
},
{
closed = 1;
nodes = (
(617,-204,o),
(679,-175,o),
(701,-111,cs),
(743,6,l),
(737,87,l),
(1296,1630,l),
(1358,1707,l),
(1400,1824,ls),
(1436,1930,o),
(1345,2007,o),
(1261,2007,cs),
(1203,2007,o),
(1140,1975,o),
(1114,1901,cs),
(1085,1818,l),
(1083,1708,l),
(554,248,l),
(461,89,l),
(419,-29,ls),
(382,-130,o),
(470,-204,o),
(562,-204,cs)
);
}
);
width = 1645;
}
);
unicode = 216;
},
{
glyphname = OE;
kernLeft = O;
kernRight = E;
layers = (
{
anchors = (
{
name = bottom;
pos = (1740,0);
},
{
name = center;
pos = (855,928);
},
{
name = ogonek;
pos = (2267,9);
},
{
name = top;
pos = (2129,1855);
},
{
name = topleft;
pos = (1427,1855);
},
{
name = topright;
pos = (1752,1855);
}
);
layerId = m01;
shapes = (
{
closed = 1;
nodes = (
(1225,-5,o),
(1434,730,o),
(1502,1112,cs),
(1587,1585,o),
(1451,1860,o),
(1045,1860,cs),
(537,1860,o),
(319,1339,o),
(249,938,cs),
(169,467,o),
(245,-5,o),
(736,-5,cs)
);
},
{
closed = 1;
nodes = (
(411,1167,o),
(595,1757,o),
(1030,1757,cs),
(1431,1757,o),
(1457,1424,o),
(1397,1089,cs),
(1340,767,o),
(1084,102,o),
(734,102,cs),
(333,102,o),
(302,568,o),
(364,913,cs)
);
},
{
closed = 1;
nodes = (
(2290,0,ls),
(2339,0,o),
(2353,30,o),
(2353,63,cs),
(2353,91,o),
(2341,106,o),
(2290,106,cs),
(1392,106,l),
(1539,947,l),
(2320,947,ls),
(2371,947,o),
(2382,968,o),
(2382,999,cs),
(2382,1032,o),
(2371,1053,o),
(2320,1053,cs),
(1558,1053,l),
(1682,1752,l),
(2575,1752,ls),
(2627,1752,o),
(2637,1767,o),
(2637,1799,cs),
(2637,1830,o),
(2625,1855,o),
(2575,1855,cs),
(1641,1855,ls),
(1587,1855,o),
(1574,1833,o),
(1567,1789,cs),
(1262,62,ls),
(1255,22,o),
(1270,0,o),
(1315,0,cs)
);
}
);
width = 2618;
},
{
anchors = (
{
name = bottom;
pos = (1846,0);
},
{
name = center;
pos = (893,928);
},
{
name = ogonek;
pos = (2418,9);
},
{
name = top;
pos = (2258,1855);
},
{
name = topleft;
pos = (1477,1855);
},
{
name = topright;
pos = (1860,1855);
}
);
layerId = "140DECC1-64C4-40C0-9C07-503DBC3F4160";
shapes = (
{
closed = 1;
nodes = (
(1204,0,o),
(1470,423,o),
(1591,1105,cs),
(1672,1574,o),
(1576,1855,o),
(1100,1855,cs),
(635,1855,o),
(344,1548,o),
(236,940,cs),
(134,360,o),
(348,0,o),
(797,0,cs)
);
},
{
closed = 1;
nodes = (
(601,1368,o),
(791,1599,o),
(1086,1599,cs),
(1393,1599,o),
(1427,1413,o),
(1369,1088,cs),
(1281,575,o),
(1055,257,o),
(796,257,cs),
(553,257,o),
(447,505,o),
(517,911,cs)
);
},
{
closed = 1;
nodes = (
(2426,0,ls),
(2511,0,o),
(2568,45,o),
(2568,120,cs),
(2568,188,o),
(2523,255,o),
(2431,255,cs),
(1643,255,l),
(1753,878,l),
(2489,878,ls),
(2580,878,o),
(2643,933,o),
(2643,1001,cs),
(2643,1075,o),
(2587,1121,o),
(2503,1121,cs),
(1795,1121,l),
(1880,1600,l),
(2706,1600,ls),
(2793,1600,o),
(2853,1656,o),
(2853,1731,cs),
(2853,1803,o),
(2801,1855,o),
(2714,1855,cs),
(1762,1855,ls),
(1673,1855,o),
(1624,1824,o),
(1611,1745,cs),
(1328,141,ls),
(1314,63,o),
(1350,0,o),
(1434,0,cs)
);
}
);
width = 2779;
}
);
metricLeft = O;
metricRight = E;
unicode = 338;
},
{
glyphname = P;
kernLeft = H;
kernRight = P;
layers = (
{
anchors = (
{
name = bottom;
pos = (641,0);
},
{
name = top;
pos = (968,1855);
}
);
layerId = m01;
shapes = (
{
closed = 1;
nodes = (
(294,0,o),
(301,33,o),
(306,62,cs),
(462,947,l),
(1039,951,o),
(1467,1008,o),
(1518,1391,cs),
(1562,1713,o),
(1187,1855,o),
(565,1855,cs),
(511,1855,o),
(499,1833,o),
(491,1788,cs),
(186,62,ls),
(179,23,o),
(198,0,o),
(241,0,cs)
);
},
{
closed = 1;
nodes = (
(604,1752,l),
(1194,1745,o),
(1429,1613,o),
(1402,1402,cs),
(1366,1115,o),
(958,1058,o),
(480,1053,c)
);
}
);
vertWidth = 0;
width = 1466;
},
{
anchors = (
{
name = bottom;
pos = (713,0);
},
{
name = top;
pos = (1040,1855);
}
);
layerId = "140DECC1-64C4-40C0-9C07-503DBC3F4160";
shapes = (
{
closed = 1;
nodes = (
(407,0,o),
(454,48,o),
(465,111,cs),
(600,878,l),
(1107,889,o),
(1581,943,o),
(1638,1369,cs),
(1685,1720,o),
(1311,1855,o),
(612,1855,cs),
(526,1855,o),
(474,1819,o),
(459,1738,cs),
(177,137,ls),
(164,60,o),
(218,0,o),
(311,0,cs)
);
},
{
closed = 1;
nodes = (
(728,1605,l),
(1304,1605,o),
(1374,1522,o),
(1361,1384,cs),
(1343,1199,o),
(1022,1133,o),
(642,1120,c)
);
}
);
vertWidth = 0;
width = 1532;
}
);
metricLeft = H;
unicode = 80;
},
{
glyphname = Thorn;
kernLeft = H;
kernRight = P;
layers = (
{
layerId = m01;
shapes = (
{
closed = 1;
nodes = (
(292,0,o),
(301,33,o),
(306,62,c),
(609,1781,l),
(617,1830,o),
(605,1855,o),
(565,1855,cs),
(517,1855,o),
(498,1832,o),
(491,1788,cs),
(187,62,ls),
(179,22,o),
(194,0,o),
(238,0,cs)
);
},
{
closed = 1;
nodes = (
(515,1342,l),
(1104,1335,o),
(1339,1203,o),
(1312,991,cs),
(1276,705,o),
(850,648,o),
(372,643,c),
(354,537,l),
(930,541,o),
(1378,598,o),
(1429,980,cs),
(1472,1303,o),
(1098,1445,o),
(476,1445,c)
);
}
);
width = 1404;
},
{
layerId = "140DECC1-64C4-40C0-9C07-503DBC3F4160";
shapes = (
{
closed = 1;
nodes = (
(411,0,o),
(456,57,o),
(466,116,c),
(745,1704,l),
(762,1805,o),
(707,1855,o),
(625,1855,cs),
(548,1855,o),
(474,1819,o),
(459,1738,cs),
(177,140,ls),
(164,60,o),
(222,0,o),
(312,0,cs)
);
},
{
closed = 1;
nodes = (
(623,1213,l),
(1198,1213,o),
(1269,1130,o),
(1256,992,cs),
(1238,808,o),
(917,741,o),
(537,728,c),
(494,486,l),
(1002,497,o),
(1476,552,o),
(1533,978,cs),
(1580,1328,o),
(1206,1464,o),
(506,1464,c)
);
}
);
width = 1427;
}
);
metricLeft = H;
unicode = 222;
},
{
glyphname = Q;
kernLeft = O;
kernRight = Q;
layers = (
{
anchors = (
{
name = bottom;
pos = (666,0);
},
{
name = top;
pos = (993,1855);
}
);
layerId = m01;
shapes = (
{
closed = 1;
nodes = (
(793,-18,o),
(868,1,o),
(937,56,c),
(1103,-185,ls),
(1132,-226,o),
(1167,-245,o),
(1198,-227,cs),
(1232,-209,o),
(1231,-166,o),
(1210,-135,cs),
(1033,123,l),
(1302,351,o),
(1441,830,o),
(1490,1113,cs),
(1575,1587,o),
(1424,1855,o),
(1018,1855,cs),
(510,1855,o),
(292,1341,o),
(223,940,cs),
(142,469,o),
(218,-18,o),
(710,-18,cs)
);
},
{
closed = 1;
nodes = (
(384,1170,o),
(568,1752,o),
(1003,1752,cs),
(1404,1752,o),
(1426,1426,o),
(1366,1091,cs),
(1324,854,o),
(1177,431,o),
(963,225,c),
(896,322,ls),
(870,359,o),
(829,375,o),
(794,345,cs),
(766,323,o),
(770,300,o),
(799,257,cs),
(870,153,l),
(820,104,o),
(764,88,o),
(707,88,cs),
(306,88,o),
(275,570,o),
(337,916,cs)
);
}
);
vertWidth = 0;
width = 1507;
},
{
anchors = (
{
name = bottom;
pos = (735,0);
},
{
name = top;
pos = (1062,1855);
}
);
layerId = "140DECC1-64C4-40C0-9C07-503DBC3F4160";
shapes = (
{
closed = 1;
nodes = (
(867,0,o),
(929,10,o),
(989,30,c),
(1106,-141,ls),
(1157,-219,o),
(1246,-243,o),
(1308,-201,cs),
(1373,-161,o),
(1387,-79,o),
(1342,-12,cs),
(1219,170,l),
(1423,354,o),
(1576,679,o),
(1652,1105,cs),
(1733,1574,o),
(1582,1855,o),
(1106,1855,cs),
(640,1855,o),
(349,1548,o),
(241,940,cs),
(140,360,o),
(354,0,o),
(803,0,cs)
);
},
{
closed = 1;
nodes = (
(606,1368,o),
(796,1599,o),
(1091,1599,cs),
(1399,1599,o),
(1423,1413,o),
(1366,1088,cs),
(1310,769,o),
(1206,526,o),
(1073,387,c),
(1037,440,ls),
(986,517,o),
(897,541,o),
(834,495,cs),
(772,452,o),
(760,365,o),
(806,298,cs),
(833,259,l),
(822,258,o),
(812,257,o),
(801,257,cs),
(558,257,o),
(453,505,o),
(522,911,cs)
);
}
);
vertWidth = 0;
width = 1645;
}
);
unicode = 81;
},
{
glyphname = R;
kernLeft = H;
kernRight = R;
layers = (
{
anchors = (
{
name = bottom;
pos = (652,0);
},
{
name = top;
pos = (980,1855);
}
);
layerId = m01;
shapes = (
{
closed = 1;
nodes = (
(290,0,o),
(299,35,o),
(307,79,cs),
(457,931,l),
(1162,43,ls),
(1190,6,o),
(1213,-5,o),
(1232,-5,cs),
(1284,-5,o),
(1302,47,o),
(1247,116,cs),
(589,949,l),
(1089,964,o),
(1471,1044,o),
(1517,1396,cs),
(1559,1713,o),
(1196,1855,o),
(564,1855,cs),
(509,1855,o),
(497,1833,o),
(489,1788,cs),
(188,79,ls),
(179,33,o),
(194,0,o),
(237,0,cs)
);
},
{
closed = 1;
nodes = (
(603,1752,l),
(1153,1745,o),
(1429,1618,o),
(1401,1406,cs),
(1363,1119,o),
(954,1058,o),
(480,1053,c)
);
}
);
vertWidth = 0;
width = 1520;
},
{
anchors = (
{
name = bottom;
pos = (693,0);
},
{
name = top;
pos = (1020,1855);
}
);
layerId = "140DECC1-64C4-40C0-9C07-503DBC3F4160";
shapes = (
{
closed = 1;
nodes = (
(378,0,o),
(455,65,o),
(470,152,cs),
(584,803,l),
(1136,65,ls),
(1179,6,o),
(1245,0,o),
(1282,0,cs),
(1373,0,o),
(1458,112,o),
(1352,255,cs),
(889,879,l),
(1272,919,o),
(1578,1043,o),
(1636,1367,cs),
(1700,1720,o),
(1308,1855,o),
(613,1855,cs),
(525,1855,o),
(472,1819,o),
(457,1738,cs),
(178,153,ls),
(163,69,o),
(198,0,o),
(289,0,cs)
);
},
{
closed = 1;
nodes = (
(724,1599,l),
(1234,1600,o),
(1384,1517,o),
(1359,1373,cs),
(1330,1202,o),
(1030,1133,o),
(640,1121,c)
);
}
);
vertWidth = 0;
width = 1550;
}
);
metricLeft = H;
unicode = 82;
},
{
glyphname = S;
kernLeft = S;
kernRight = S;
layers = (
{
anchors = (
{
name = bottom;
pos = (576,0);
},
{
name = top;
pos = (903,1855);
}
);
layerId = m01;
shapes = (
{
closed = 1;
nodes = (
(870,0,o),
(1144,244,o),
(1144,521,cs),
(1144,749,o),
(1014,909,o),
(835,1025,cs),
(748,1081,ls),
(553,1208,o),
(470,1306,o),
(470,1428,cs),
(470,1658,o),
(717,1754,o),
(1026,1754,cs),
(1271,1754,ls),
(1302,1754,o),
(1321,1770,o),
(1321,1806,cs),
(1321,1856,o),
(1278,1855,o),
(1268,1855,cs),
(1003,1855,ls),
(597,1855,o),
(349,1680,o),
(349,1418,cs),
(349,1276,o),
(451,1137,o),
(631,1015,cs),
(721,955,ls),
(894,840,o),
(1025,708,o),
(1025,519,cs),
(1025,292,o),
(806,104,o),
(403,104,cs),
(157,104,ls),
(125,104,o),
(102,85,o),
(102,49,cs),
(102,0,o),
(151,0,o),
(157,0,cs),
(385,0,ls)
);
}
);
vertWidth = 0;
width = 1294;
},
{
anchors = (
{
name = bottom;
pos = (565,0);
},
{
name = top;
pos = (892,1855);
}
);
layerId = "140DECC1-64C4-40C0-9C07-503DBC3F4160";
shapes = (
{
closed = 1;
nodes = (
(727,0,o),
(1220,141,o),
(1220,548,cs),
(1220,808,o),
(1026,946,o),
(849,1081,cs),
(795,1123,ls),
(625,1252,o),
(530,1312,o),
(530,1392,cs),
(530,1504,o),
(732,1596,o),
(921,1596,cs),
(1301,1596,ls),
(1376,1596,o),
(1436,1656,o),
(1436,1728,cs),
(1436,1831,o),
(1349,1855,o),
(1299,1855,cs),
(924,1855,ls),
(542,1855,o),
(247,1641,o),
(247,1380,cs),
(247,1173,o),
(421,1063,o),
(614,925,cs),
(675,882,ls),
(855,755,o),
(933,671,o),
(933,548,cs),
(933,329,o),
(612,260,o),
(445,260,cs),
(155,260,ls),
(80,260,o),
(18,197,o),
(18,125,cs),
(18,24,o),
(115,0,o),
(155,0,cs),
(445,0,ls)
);
}
);
vertWidth = 0;
width = 1353;
},
{
associatedMasterId = m01;
layerId = "A440414B-586A-40A5-AE6A-EB7CED442D21";
name = background;
shapes = (
{
closed = 1;
nodes = (
(217,0,o),
(381,55,o),
(381,202,cs),
(381,296,o),
(332,349,o),
(253,404,cs),
(173,460,o),
(123,496,o),
(123,545,cs),
(123,609,o),
(220,659,o),
(304,659,cs),
(447,659,ls),
(461,659,o),
(472,673,o),
(472,687,cs),
(472,713,o),
(450,713,o),
(445,713,cs),
(305,713,ls),
(164,713,o),
(67,632,o),
(67,541,cs),
(67,463,o),
(130,422,o),
(217,361,cs),
(296,305,o),
(326,264,o),
(326,201,cs),
(326,91,o),
(181,55,o),
(110,55,cs),
(0,55,ls),
(-14,55,o),
(-27,41,o),
(-27,27,cs),
(-27,0,o),
(-2,0,o),
(0,0,cs),
(110,0,ls)
);
}
);
vertWidth = 0;
width = 549;
}
);
unicode = 83;
},
{
glyphname = Germandbls;
kernLeft = H;
kernRight = Germandbls;
layers = (
{
layerId = m01;
shapes = (
{
closed = 1;
nodes = (
(1188,-3,o),
(1499,167,o),
(1550,542,cs),
(1594,858,o),
(1337,1005,o),
(1135,1095,c),
(1639,1751,ls),
(1660,1774,o),
(1659,1806,o),
(1649,1821,cs),
(1637,1844,o),
(1623,1854,o),
(1594,1854,cs),
(570,1854,ls),
(522,1854,o),
(492,1837,o),
(485,1795,cs),
(186,46,ls),
(181,18,o),
(193,-9,o),
(239,-9,cs),
(286,-9,o),
(304,11,o),
(310,48,cs),
(598,1741,l),
(1500,1741,l),
(1030,1143,l),
(987,1083,o),
(997,1020,o),
(1092,981,cs),
(1208,936,o),
(1468,832,o),
(1423,520,cs),
(1385,241,o),
(1072,119,o),
(790,119,cs),
(600,119,ls),
(573,119,o),
(546,91,o),
(545,55,cs),
(545,14,o),
(577,1,o),
(602,1,cs),
(792,0,ls)
);
}
);
width = 1629;
},
{
layerId = "140DECC1-64C4-40C0-9C07-503DBC3F4160";
shapes = (
{
closed = 1;
nodes = (
(1213,-6,o),
(1635,139,o),
(1689,545,cs),
(1732,851,o),
(1521,1056,o),
(1342,1132,c),
(1740,1637,ls),
(1779,1684,o),
(1780,1742,o),
(1758,1783,cs),
(1737,1826,o),
(1693,1855,o),
(1636,1855,cs),
(613,1855,ls),
(539,1855,o),
(468,1819,o),
(454,1737,cs),
(177,140,ls),
(164,60,o),
(219,0,o),
(308,0,cs),
(399,0,o),
(444,57,o),
(452,116,cs),
(707,1599,l),
(1397,1599,l),
(1052,1187,l),
(1003,1121,o),
(992,1012,o),
(1112,955,cs),
(1250,892,o),
(1448,788,o),
(1414,545,cs),
(1383,326,o),
(1183,253,o),
(944,257,cs),
(742,260,ls),
(670,261,o),
(611,197,o),
(610,125,cs),
(609,24,o),
(701,1,o),
(741,0,cs),
(943,-3,ls)
);
}
);
width = 1689;
}
);
metricLeft = H;
metricRight = S;
unicode = 7838;
},
{
glyphname = T;
kernLeft = T;
kernRight = T;
layers = (
{
anchors = (
{
name = bottom;
pos = (559,0);
},
{
name = center;
pos = (646,928);
},
{
name = top;
pos = (809,1855);
}
);
layerId = m01;
shapes = (
{
closed = 1;
nodes = (
(611,0,o),
(618,33,o),
(623,62,cs),
(918,1752,l),
(1420,1752,ls),
(1468,1752,o),
(1479,1772,o),
(1479,1804,cs),
(1479,1834,o),
(1468,1855,o),
(1420,1855,cs),
(293,1855,ls),
(242,1855,o),
(231,1834,o),
(231,1804,cs),
(231,1772,o),
(242,1752,o),
(293,1752,cs),
(800,1752,l),
(506,62,ls),
(500,22,o),
(513,0,o),
(559,0,cs)
);
}
);
vertWidth = 0;
width = 1387;
},
{
anchors = (
{
name = bottom;
pos = (626,0);
},
{
name = center;
pos = (688,928);
},
{
name = top;
pos = (852,1855);
}
);
layerId = "140DECC1-64C4-40C0-9C07-503DBC3F4160";
shapes = (
{
closed = 1;
nodes = (
(699,-3,o),
(748,51,o),
(760,111,cs),
(1021,1608,l),
(1416,1608,ls),
(1507,1608,o),
(1558,1665,o),
(1558,1733,cs),
(1558,1807,o),
(1502,1865,o),
(1416,1865,cs),
(383,1865,ls),
(296,1865,o),
(240,1807,o),
(240,1733,cs),
(240,1665,o),
(291,1608,o),
(383,1608,cs),
(733,1608,l),
(474,140,ls),
(459,60,o),
(517,-3,o),
(606,-3,cs)
);
}
);
vertWidth = 0;
width = 1475;
}
);
unicode = 84;
},
{
glyphname = U;
kernLeft = U;
kernRight = H;
layers = (
{
anchors = (
{
name = bottom;
pos = (640,0);
},
{
name = ogonek;
pos = (1245,9);
},
{
name = top;
pos = (958,1855);
},
{
name = topright;
pos = (1696,1855);
}
);
guides = (
{
angle = 80;
pos = (1359,998);
}
);
layerId = m01;
shapes = (
{
closed = 1;
nodes = (
(652,-18,o),
(999,309,o),
(1268,991,c),
(1104,65,ls),
(1096,19,o),
(1125,0,o),
(1161,0,cs),
(1192,0,o),
(1220,17,o),
(1226,55,cs),
(1533,1796,ls),
(1539,1835,o),
(1526,1855,o),
(1477,1855,cs),
(1432,1855,o),
(1416,1830,o),
(1410,1798,cs),
(1354,1478,l),
(1109,685,o),
(703,89,o),
(411,89,cs),
(258,89,o),
(295,321,o),
(328,509,cs),
(553,1791,ls),
(560,1828,o),
(542,1853,o),
(505,1855,cs),
(466,1855,o),
(439,1824,o),
(432,1781,cs),
(208,510,ls),
(142,135,o),
(224,-18,o),
(387,-18,cs)
);
}
);
vertWidth = 0;
width = 1571;
},
{
anchors = (
{
name = bottom;
pos = (689,0);
},
{
name = ogonek;
pos = (1323,9);
},
{
name = top;
pos = (989,1855);
},
{
name = topright;
pos = (1817,1855);
}
);
layerId = "140DECC1-64C4-40C0-9C07-503DBC3F4160";
shapes = (
{
closed = 1;
nodes = (
(696,-18,o),
(947,179,o),
(1143,515,c),
(1077,140,ls),
(1061,45,o),
(1132,0,o),
(1211,0,cs),
(1276,0,o),
(1350,33,o),
(1363,105,cs),
(1646,1719,ls),
(1660,1798,o),
(1608,1855,o),
(1512,1855,cs),
(1430,1855,o),
(1372,1812,o),
(1360,1747,cs),
(1325,1550,l),
(1106,743,o),
(800,238,o),
(531,238,cs),
(443,238,o),
(453,359,o),
(482,529,cs),
(690,1714,ls),
(704,1795,o),
(647,1855,o),
(563,1855,cs),
(471,1858,o),
(411,1781,o),
(402,1731,cs),
(195,557,ls),
(126,164,o),
(243,-18,o),
(452,-18,cs)
);
}
);
vertWidth = 0;
width = 1694;
}
);
metricLeft = H;
metricRight = H;
unicode = 85;
},
{
glyphname = V;
kernLeft = V;
kernRight = V;
layers = (
{
anchors = (
{
name = bottom;
pos = (466,0);
},
{
name = top;
pos = (793,1855);
}
);
layerId = m01;
shapes = (
{
closed = 1;
nodes = (
(483,-5,o),
(492,19,o),
(513,61,cs),
(1366,1787,ls),
(1391,1837,o),
(1368,1860,o),
(1330,1860,cs),
(1279,1860,o),
(1263,1844,o),
(1239,1797,cs),
(470,209,l),
(396,1805,ls),
(396,1831,o),
(385,1860,o),
(329,1860,cs),
(286,1860,o),
(275,1839,o),
(277,1798,cs),
(372,64,l),
(377,30,o),
(395,-5,o),
(437,-5,cs)
);
}
);
vertWidth = 0;
width = 1376;
},
{
anchors = (
{
name = bottom;
pos = (571,0);
},
{
name = top;
pos = (898,1855);
}
);
layerId = "140DECC1-64C4-40C0-9C07-503DBC3F4160";
shapes = (
{
closed = 1;
nodes = (
(648,-5,o),
(684,43,o),
(713,96,c),
(1499,1687,ls),
(1550,1786,o),
(1485,1855,o),
(1393,1855,cs),
(1311,1855,o),
(1256,1822,o),
(1230,1764,c),
(664,596,l),
(610,1743,ls),
(607,1807,o),
(554,1855,o),
(463,1855,cs),
(382,1855,o),
(326,1810,o),
(334,1726,c),
(424,125,ls),
(427,55,o),
(485,-5,o),
(566,-5,cs)
);
}
);
vertWidth = 0;
width = 1380;
}
);
unicode = 86;
},
{
glyphname = W;
kernLeft = W;
kernRight = W;
layers = (
{
anchors = (
{
name = bottom;
pos = (930,0);
},
{
name = top;
pos = (1331,1855);
}
);
layerId = m01;
shapes = (
{
closed = 1;
nodes = (
(482,-5,o),
(503,32,o),
(517,64,c),
(1290,1661,l),
(1372,39,ls),
(1375,6,o),
(1388,-5,o),
(1434,-5,cs),
(1465,-5,o),
(1487,15,o),
(1507,61,c),
(2359,1787,ls),
(2383,1837,o),
(2360,1860,o),
(2312,1860,cs),
(2276,1860,o),
(2255,1841,o),
(2231,1797,c),
(1469,222,l),
(1388,1804,l),
(1384,1831,o),
(1372,1860,o),
(1314,1860,cs),
(1275,1860,o),
(1248,1818,o),
(1239,1799,cs),
(474,213,l),
(395,1805,l),
(395,1831,o),
(385,1860,o),
(329,1860,cs),
(286,1860,o),
(274,1839,o),
(277,1798,cs),
(372,64,ls),
(376,21,o),
(397,-5,o),
(442,-5,cs)
);
}
);
vertWidth = 0;
width = 2322;
},
{
anchors = (
{
name = bottom;
pos = (1038,0);
},
{
name = top;
pos = (1411,1855);
}
);
layerId = "140DECC1-64C4-40C0-9C07-503DBC3F4160";
shapes = (
{
closed = 1;
nodes = (
(626,0,o),
(677,36,o),
(709,96,cs),
(1288,1263,l),
(1367,128,ls),
(1372,48,o),
(1428,0,o),
(1506,0,cs),
(1569,0,o),
(1626,36,o),
(1656,101,cs),
(2434,1687,ls),
(2482,1786,o),
(2408,1855,o),
(2324,1855,cs),
(2234,1855,o),
(2186,1807,o),
(2160,1757,cs),
(1606,608,l),
(1526,1743,ls),
(1521,1812,o),
(1473,1855,o),
(1372,1855,cs),
(1278,1855,o),
(1252,1803,o),
(1234,1767,cs),
(659,591,l),
(610,1743,ls),
(608,1807,o),
(557,1855,o),
(466,1855,cs),
(384,1855,o),
(326,1810,o),
(334,1726,c),
(418,125,l),
(425,48,o),
(480,0,o),
(572,0,cs)
);
}
);
vertWidth = 0;
width = 2332;
}
);
unicode = 87;
},
{
glyphname = X;
kernLeft = X;
kernRight = X;
layers = (
{
anchors = (
{
name = bottom;
pos = (595,0);
},
{
name = top;
pos = (922,1855);
}
);
layerId = m01;
shapes = (
{
closed = 1;
nodes = (
(102,-14,o),
(145,-17,o),
(172,22,cs),
(742,807,l),
(1028,43,ls),
(1045,-6,o),
(1091,-13,o),
(1124,4,cs),
(1148,16,o),
(1156,40,o),
(1141,79,cs),
(825,919,l),
(1437,1763,ls),
(1465,1801,o),
(1460,1832,o),
(1440,1848,cs),
(1415,1869,o),
(1370,1867,o),
(1343,1829,cs),
(775,1051,l),
(487,1816,ls),
(469,1863,o),
(432,1871,o),
(402,1858,cs),
(371,1848,o),
(361,1821,o),
(381,1771,cs),
(694,938,l),
(70,83,l),
(47,54,o),
(53,26,o),
(73,9,cs)
);
}
);
vertWidth = 0;
width = 1429;
},
{
anchors = (
{
name = bottom;
pos = (590,0);
},
{
name = top;
pos = (918,1855);
}
);
layerId = "140DECC1-64C4-40C0-9C07-503DBC3F4160";
shapes = (
{
closed = 1;
nodes = (
(122,-9,o),
(235,-24,o),
(285,45,cs),
(711,642,l),
(922,79,ls),
(954,-3,o),
(1062,-17,o),
(1126,17,cs),
(1186,48,o),
(1215,103,o),
(1186,173,c),
(906,914,l),
(1434,1651,ls),
(1484,1719,o),
(1472,1779,o),
(1419,1824,cs),
(1368,1870,o),
(1266,1872,o),
(1215,1803,cs),
(793,1216,l),
(580,1779,ls),
(550,1858,o),
(458,1870,o),
(393,1848,cs),
(319,1822,o),
(292,1762,o),
(326,1672,cs),
(598,945,l),
(59,197,ls),
(16,137,o),
(16,81,o),
(67,36,cs)
);
}
);
vertWidth = 0;
width = 1419;
}
);
unicode = 88;
},
{
glyphname = Y;
kernLeft = Y;
kernRight = Y;
layers = (
{
anchors = (
{
name = bottom;
pos = (552,0);
},
{
name = top;
pos = (879,1855);
},
{
name = topleft;
pos = (381,1855);
}
);
layerId = m01;
shapes = (
{
closed = 1;
nodes = (
(770,1050,l),
(478,1810,ls),
(466,1842,o),
(446,1860,o),
(407,1860,cs),
(379,1860,o),
(355,1839,o),
(355,1816,cs),
(355,1801,o),
(358,1796,o),
(367,1771,cs),
(688,938,l),
(54,62,ls),
(30,30,o),
(63,0,o),
(96,0,cs),
(132,0,o),
(158,39,o),
(176,63,cs),
(1428,1756,ls),
(1444,1779,o),
(1450,1793,o),
(1450,1806,cs),
(1450,1831,o),
(1422,1854,o),
(1394,1854,cs),
(1368,1854,o),
(1352,1852,o),
(1331,1822,cs)
);
}
);
vertWidth = 0;
width = 1330;
},
{
anchors = (
{
name = bottom;
pos = (723,0);
},
{
name = top;
pos = (1051,1855);
},
{
name = topleft;
pos = (472,1855);
}
);
layerId = "140DECC1-64C4-40C0-9C07-503DBC3F4160";
shapes = (
{
closed = 1;
nodes = (
(925,1194,l),
(708,1767,ls),
(685,1829,o),
(648,1855,o),
(588,1855,cs),
(504,1855,o),
(436,1810,o),
(436,1750,cs),
(436,1720,o),
(441,1704,o),
(453,1672,cs),
(737,937,l),
(161,144,ls),
(114,79,o),
(207,0,o),
(287,0,cs),
(364,0,o),
(411,71,o),
(447,120,cs),
(1587,1642,ls),
(1610,1673,o),
(1620,1703,o),
(1620,1736,cs),
(1620,1811,o),
(1531,1856,o),
(1480,1856,cs),
(1435,1856,o),
(1392,1835,o),
(1363,1796,cs)
);
}
);
vertWidth = 0;
width = 1408;
}
);
unicode = 89;
},
{
glyphname = Z;
kernLeft = Z;
kernRight = Z;
layers = (
{
anchors = (
{
name = bottom;
pos = (612,0);
},
{
name = center;
pos = (775,928);
},
{
name = top;
pos = (939,1855);
}
);
layerId = m01;
shapes = (
{
closed = 1;
nodes = (
(1104,-5,ls),
(1155,-5,o),
(1167,21,o),
(1167,55,cs),
(1167,85,o),
(1156,102,o),
(1104,102,cs),
(234,102,l),
(1429,1759,ls),
(1442,1780,o),
(1452,1801,o),
(1452,1816,cs),
(1452,1848,o),
(1438,1860,o),
(1391,1860,cs),
(444,1860,ls),
(395,1860,o),
(383,1834,o),
(383,1804,cs),
(383,1771,o),
(394,1757,o),
(444,1757,cs),
(1292,1757,l),
(89,86,ls),
(77,69,o),
(74,56,o),
(74,43,cs),
(74,18,o),
(90,-5,o),
(137,-5,cs)
);
}
);
vertWidth = 0;
width = 1359;
},
{
anchors = (
{
name = bottom;
pos = (649,0);
},
{
name = center;
pos = (812,928);
},
{
name = top;
pos = (976,1855);
}
);
layerId = "140DECC1-64C4-40C0-9C07-503DBC3F4160";
shapes = (
{
closed = 1;
nodes = (
(1124,0,ls),
(1215,0,o),
(1266,55,o),
(1266,123,cs),
(1266,197,o),
(1208,257,o),
(1124,257,cs),
(480,257,l),
(1491,1647,ls),
(1518,1683,o),
(1527,1714,o),
(1527,1743,cs),
(1527,1812,o),
(1467,1865,o),
(1374,1865,cs),
(506,1865,ls),
(419,1865,o),
(364,1807,o),
(364,1733,cs),
(364,1665,o),
(415,1608,o),
(506,1608,cs),
(1125,1608,l),
(98,200,ls),
(81,177,o),
(74,152,o),
(74,125,cs),
(74,72,o),
(110,0,o),
(237,0,cs)
);
}
);
vertWidth = 0;
width = 1435;
}
);
unicode = 90;
},
{
color = 10;
glyphname = A.ss02;
kernLeft = A;
kernRight = A;
layers = (
{
anchors = (
{
name = bottom;
pos = (590,0);
},
{
name = ogonek;
pos = (1098,9);
},
{
name = top;
pos = (917,1855);
}
);
layerId = m01;
shapes = (
{
closed = 1;
nodes = (
(130,0,o),
(146,23,o),
(174,77,cs),
(609,931,l),
(979,931,l),
(1046,78,ls),
(1049,48,o),
(1060,0,o),
(1128,0,cs),
(1185,0,o),
(1205,36,o),
(1201,84,cs),
(1057,1795,ls),
(1054,1828,o),
(1031,1855,o),
(979,1855,cs),
(908,1855,o),
(905,1818,o),
(885,1781,cs),
(12,104,ls),
(-22,40,o),
(21,0,o),
(70,0,cs)
);
},
{
closed = 1;
nodes = (
(30,18,o),
(1,45,o),
(28,96,cs),
(902,1773,ls),
(923,1814,o),
(924,1837,o),
(979,1837,cs),
(1021,1837,o),
(1037,1818,o),
(1039,1793,cs),
(1184,82,ls),
(1187,42,o),
(1173,18,o),
(1128,18,cs),
(1075,18,o),
(1066,51,o),
(1064,79,cs),
(995,950,l),
(598,950,l),
(157,85,ls),
(130,33,o),
(120,18,o),
(70,18,cs)
);
},
{
closed = 1;
nodes = (
(967,1071,l),
(930,1561,l),
(681,1071,l)
);
},
{
closed = 1;
nodes = (
(920,1583,ls),
(938,1617,o),
(942,1617,o),
(945,1578,cs),
(987,1053,l),
(650,1053,l)
);
}
);
vertWidth = 0;
width = 1386;
},
{
anchors = (
{
name = bottom;
pos = (699,0);
},
{
name = ogonek;
pos = (1267,9);
},
{
name = top;
pos = (1026,1855);
}
);
layerId = "140DECC1-64C4-40C0-9C07-503DBC3F4160";
shapes = (
{
closed = 1;
nodes = (
(263,-18,o),
(314,7,o),
(353,85,cs),
(686,742,l),
(1040,741,l),
(1091,115,ls),
(1098,34,o),
(1150,-18,o),
(1249,-18,cs),
(1338,-18,o),
(1405,32,o),
(1397,134,cs),
(1260,1722,ls),
(1252,1822,o),
(1178,1874,o),
(1081,1874,cs),
(979,1874,o),
(915,1826,o),
(884,1768,cs),
(57,179,ls),
(-3,65,o),
(79,-18,o),
(180,-18,cs)
);
},
{
closed = 1;
nodes = (
(101,18,o),
(43,72,o),
(91,163,cs),
(918,1751,ls),
(943,1801,o),
(993,1837,o),
(1081,1837,cs),
(1164,1837,o),
(1216,1800,o),
(1223,1719,cs),
(1360,130,ls),
(1367,52,o),
(1322,18,o),
(1249,18,cs),
(1168,18,o),
(1134,54,o),
(1128,116,cs),
(1073,778,l),
(663,779,l),
(320,102,ls),
(286,36,o),
(252,18,o),
(180,18,cs)
);
},
{
closed = 1;
nodes = (
(1015,1037,l),
(990,1341,l),
(835,1037,l)
);
},
{
closed = 1;
nodes = (
(974,1391,ls),
(1005,1452,o),
(1015,1456,o),
(1021,1394,cs),
(1054,1000,l),
(775,1000,l)
);
}
);
vertWidth = 0;
width = 1551;
}
);
metricLeft = A;
metricRight = A;
},
{
color = 10;
glyphname = B.ss02;
kernLeft = H;
kernRight = B;
layers = (
{
anchors = (
{
name = bottom;
pos = (680,0);
},
{
name = center;
pos = (844,928);
},
{
name = top;
pos = (1007,1855);
}
);
layerId = m01;
shapes = (
{
closed = 1;
nodes = (
(1052,0,o),
(1283,154,o),
(1332,470,cs),
(1372,727,o),
(1246,902,o),
(977,995,c),
(1327,1052,o),
(1415,1182,o),
(1437,1357,cs),
(1480,1699,o),
(1185,1855,o),
(575,1855,cs),
(523,1855,o),
(493,1833,o),
(482,1772,cs),
(187,99,ls),
(178,51,o),
(202,0,o),
(248,0,cs)
);
},
{
closed = 1;
nodes = (
(215,18,o),
(197,55,o),
(204,95,cs),
(500,1769,ls),
(509,1822,o),
(530,1837,o),
(575,1837,cs),
(1179,1837,o),
(1459,1688,o),
(1418,1360,cs),
(1395,1173,o),
(1303,1050,o),
(891,1002,c),
(1209,918,o),
(1356,741,o),
(1315,472,cs),
(1269,166,o),
(1045,18,o),
(248,18,cs)
);
},
{
closed = 1;
nodes = (
(851,153,o),
(1137,227,o),
(1174,489,cs),
(1210,736,o),
(1013,923,o),
(496,942,c),
(357,150,l)
);
},
{
closed = 1;
nodes = (
(480,961,l),
(1018,944,o),
(1230,746,o),
(1193,487,cs),
(1153,208,o),
(845,133,o),
(334,131,c)
);
},
{
closed = 1;
nodes = (
(1166,1080,o),
(1257,1189,o),
(1276,1364,cs),
(1303,1609,o),
(1058,1702,o),
(630,1708,c),
(518,1072,l)
);
},
{
closed = 1;
nodes = (
(615,1727,l),
(1056,1723,o),
(1325,1625,o),
(1295,1362,cs),
(1273,1177,o),
(1174,1060,o),
(497,1053,c)
);
}
);
vertWidth = 0;
width = 1469;
},
{
anchors = (
{
name = bottom;
pos = (760,0);
},
{
name = center;
pos = (924,928);
},
{
name = top;
pos = (1088,1855);
}
);
layerId = "140DECC1-64C4-40C0-9C07-503DBC3F4160";
shapes = (
{
closed = 1;
nodes = (
(1159,-18,o),
(1462,57,o),
(1519,468,cs),
(1555,724,o),
(1448,881,o),
(1251,982,c),
(1507,1059,o),
(1635,1194,o),
(1654,1344,cs),
(1698,1715,o),
(1356,1874,o),
(615,1874,cs),
(545,1874,o),
(478,1850,o),
(458,1741,cs),
(178,154,ls),
(161,56,o),
(232,-18,o),
(317,-18,cs)
);
},
{
closed = 1;
nodes = (
(251,18,o),
(201,70,o),
(215,149,cs),
(495,1735,ls),
(510,1820,o),
(554,1837,o),
(615,1837,cs),
(1345,1837,o),
(1657,1693,o),
(1617,1350,cs),
(1598,1187,o),
(1453,1060,o),
(1137,991,c),
(1387,899,o),
(1521,746,o),
(1482,474,cs),
(1428,90,o),
(1151,18,o),
(317,18,cs)
);
},
{
closed = 1;
nodes = (
(1016,289,o),
(1173,345,o),
(1198,524,cs),
(1230,736,o),
(1091,830,o),
(630,847,c),
(529,276,l)
);
},
{
closed = 1;
nodes = (
(600,886,l),
(1101,870,o),
(1271,762,o),
(1235,518,cs),
(1206,310,o),
(1015,249,o),
(485,237,c)
);
},
{
closed = 1;
nodes = (
(1297,1140,o),
(1322,1272,o),
(1331,1364,cs),
(1341,1483,o),
(1252,1561,o),
(759,1576,c),
(677,1121,l)
);
},
{
closed = 1;
nodes = (
(727,1614,l),
(1265,1601,o),
(1380,1505,o),
(1368,1360,cs),
(1358,1261,o),
(1331,1098,o),
(634,1082,c)
);
}
);
vertWidth = 0;
width = 1627;
}
);
metricLeft = B;
metricRight = B;
},
{
color = 10;
glyphname = C.ss02;
kernLeft = C;
kernRight = C;
layers = (
{
anchors = (
{
name = bottom;
pos = (665,0);
},
{
name = top;
pos = (992,1855);
}
);
layerId = m01;
shapes = (
{
closed = 1;
nodes = (
(966,0,o),
(1159,128,o),
(1321,308,cs),
(1392,386,o),
(1400,424,o),
(1397,446,cs),
(1390,484,o),
(1361,505,o),
(1321,505,cs),
(1270,505,o),
(1252,453,o),
(1197,404,cs),
(1042,257,o),
(905,150,o),
(722,150,cs),
(524,150,o),
(320,397,o),
(400,867,cs),
(457,1192,o),
(590,1708,o),
(1078,1708,cs),
(1208,1708,o),
(1342,1650,o),
(1467,1519,cs),
(1510,1477,o),
(1554,1489,o),
(1580,1516,cs),
(1607,1546,o),
(1599,1596,o),
(1571,1623,cs),
(1425,1764,o),
(1259,1855,o),
(1081,1855,cs),
(474,1855,o),
(313,1275,o),
(241,872,cs),
(140,310,o),
(443,0,o),
(720,0,cs)
);
},
{
closed = 1;
nodes = (
(452,18,o),
(161,317,o),
(260,869,cs),
(331,1271,o),
(488,1837,o),
(1081,1837,cs),
(1255,1837,o),
(1420,1756,o),
(1558,1611,cs),
(1582,1587,o),
(1587,1550,o),
(1566,1528,cs),
(1547,1505,o),
(1514,1497,o),
(1480,1531,cs),
(1353,1666,o),
(1211,1727,o),
(1078,1727,cs),
(577,1727,o),
(439,1196,o),
(383,869,cs),
(300,390,o),
(514,131,o),
(722,131,cs),
(911,131,o),
(1054,243,o),
(1209,391,cs),
(1269,443,o),
(1282,486,o),
(1321,486,cs),
(1355,486,o),
(1373,472,o),
(1379,444,cs),
(1381,426,o),
(1375,395,o),
(1307,320,cs),
(1147,142,o),
(959,18,o),
(720,18,cs)
);
}
);
vertWidth = 0;
width = 1542;
},
{
anchors = (
{
name = bottom;
pos = (698,0);
},
{
name = top;
pos = (1025,1855);
}
);
layerId = "140DECC1-64C4-40C0-9C07-503DBC3F4160";
shapes = (
{
closed = 1;
nodes = (
(1029,-18,o),
(1279,95,o),
(1449,280,cs),
(1522,359,o),
(1551,402,o),
(1551,461,cs),
(1551,524,o),
(1503,578,o),
(1417,578,cs),
(1368,578,o),
(1306,561,o),
(1234,480,cs),
(1118,351,o),
(955,275,o),
(796,275,cs),
(596,275,o),
(492,518,o),
(552,865,cs),
(633,1344,o),
(833,1580,o),
(1156,1580,cs),
(1283,1580,o),
(1368,1552,o),
(1456,1471,cs),
(1530,1405,o),
(1628,1374,o),
(1700,1446,cs),
(1775,1521,o),
(1733,1617,o),
(1656,1686,cs),
(1501,1827,o),
(1340,1874,o),
(1159,1874,cs),
(658,1874,o),
(347,1535,o),
(229,873,cs),
(140,364,o),
(381,-18,o),
(793,-18,cs)
);
},
{
closed = 1;
nodes = (
(404,18,o),
(180,374,o),
(266,868,cs),
(381,1515,o),
(676,1837,o),
(1159,1837,cs),
(1333,1837,o),
(1483,1793,o),
(1632,1659,cs),
(1700,1597,o),
(1730,1528,o),
(1674,1472,cs),
(1619,1417,o),
(1547,1440,o),
(1480,1499,cs),
(1386,1586,o),
(1289,1617,o),
(1156,1617,cs),
(813,1617,o),
(599,1363,o),
(515,870,cs),
(454,510,o),
(569,238,o),
(796,238,cs),
(965,238,o),
(1139,321,o),
(1261,456,cs),
(1325,527,o),
(1375,541,o),
(1417,541,cs),
(1484,541,o),
(1514,507,o),
(1514,461,cs),
(1514,414,o),
(1492,383,o),
(1421,306,cs),
(1258,127,o),
(1020,18,o),
(793,18,cs)
);
}
);
vertWidth = 0;
width = 1662;
}
);
metricLeft = C;
metricRight = C;
},
{
color = 10;
glyphname = D.ss02;
kernLeft = H;
kernRight = D;
layers = (
{
anchors = (
{
name = bottom;
pos = (724,0);
},
{
name = center;
pos = (888,928);
},
{
name = top;
pos = (1052,1855);
}
);
layerId = m01;
shapes = (
{
closed = 1;
nodes = (
(444,0,ls),
(991,0,o),
(1452,348,o),
(1536,981,cs),
(1611,1550,o),
(1205,1855,o),
(679,1855,cs),
(577,1855,ls),
(511,1855,o),
(492,1819,o),
(484,1772,cs),
(187,87,ls),
(178,38,o),
(202,0,o),
(260,0,cs)
);
},
{
closed = 1;
nodes = (
(213,18,o),
(197,43,o),
(204,83,cs),
(503,1769,ls),
(510,1812,o),
(523,1837,o),
(577,1837,cs),
(679,1837,ls),
(1198,1837,o),
(1590,1540,o),
(1517,984,cs),
(1434,359,o),
(983,18,o),
(444,18,cs),
(260,18,ls)
);
},
{
closed = 1;
nodes = (
(444,150,ls),
(898,150,o),
(1308,435,o),
(1377,1003,cs),
(1429,1452,o),
(1119,1708,o),
(689,1708,cs),
(633,1708,l),
(358,150,l)
);
},
{
closed = 1;
nodes = (
(617,1727,l),
(689,1727,ls),
(1126,1727,o),
(1448,1461,o),
(1395,1001,cs),
(1325,424,o),
(905,131,o),
(444,131,cs),
(336,131,l)
);
}
);
vertWidth = 0;
width = 1564;
},
{
anchors = (
{
name = bottom;
pos = (809,0);
},
{
name = center;
pos = (973,928);
},
{
name = top;
pos = (1136,1855);
}
);
layerId = "140DECC1-64C4-40C0-9C07-503DBC3F4160";
shapes = (
{
closed = 1;
nodes = (
(547,-18,ls),
(1131,-18,o),
(1622,417,o),
(1700,1000,cs),
(1774,1541,o),
(1415,1874,o),
(768,1874,cs),
(625,1874,ls),
(527,1874,o),
(475,1829,o),
(459,1742,cs),
(177,143,ls),
(162,55,o),
(226,-18,o),
(326,-18,cs)
);
},
{
closed = 1;
nodes = (
(246,18,o),
(202,68,o),
(214,136,cs),
(496,1734,ls),
(509,1807,o),
(543,1837,o),
(625,1837,cs),
(768,1837,ls),
(1398,1837,o),
(1734,1524,o),
(1663,1005,cs),
(1586,437,o),
(1114,18,o),
(547,18,cs),
(326,18,ls)
);
},
{
closed = 1;
nodes = (
(547,274,ls),
(976,274,o),
(1332,584,o),
(1387,1003,cs),
(1434,1364,o),
(1208,1582,o),
(783,1582,cs),
(760,1582,l),
(530,274,l)
);
},
{
closed = 1;
nodes = (
(729,1619,l),
(783,1619,ls),
(1225,1619,o),
(1474,1380,o),
(1424,997,cs),
(1367,564,o),
(991,237,o),
(547,237,cs),
(486,237,l)
);
}
);
vertWidth = 0;
width = 1724;
}
);
metricLeft = D;
metricRight = D;
},
{
color = 10;
glyphname = E.ss02;
kernLeft = H;
kernRight = E;
layers = (
{
anchors = (
{
name = bottom;
pos = (668,0);
},
{
name = ogonek;
pos = (1203,9);
},
{
name = top;
pos = (995,1855);
},
{
name = topleft;
pos = (347,1855);
}
);
layerId = m01;
shapes = (
{
closed = 1;
nodes = (
(1210,0,ls),
(1273,0,o),
(1293,47,o),
(1293,83,cs),
(1293,120,o),
(1272,150,o),
(1210,150,cs),
(358,150,l),
(495,929,l),
(1238,929,ls),
(1303,929,o),
(1321,966,o),
(1320,996,cs),
(1319,1035,o),
(1302,1072,o),
(1237,1072,cs),
(520,1072,l),
(633,1708,l),
(1486,1708,ls),
(1549,1708,o),
(1568,1738,o),
(1568,1778,cs),
(1568,1814,o),
(1550,1855,o),
(1486,1855,cs),
(579,1855,ls),
(511,1855,o),
(492,1818,o),
(484,1772,cs),
(187,87,ls),
(178,38,o),
(202,0,o),
(260,0,cs)
);
},
{
closed = 1;
nodes = (
(213,18,o),
(197,43,o),
(204,83,cs),
(503,1769,ls),
(510,1812,o),
(523,1837,o),
(579,1837,cs),
(1486,1837,ls),
(1537,1837,o),
(1550,1808,o),
(1550,1778,cs),
(1550,1745,o),
(1538,1727,o),
(1486,1727,cs),
(617,1727,l),
(498,1053,l),
(1237,1053,ls),
(1290,1053,o),
(1301,1029,o),
(1302,996,cs),
(1303,971,o),
(1291,947,o),
(1238,947,cs),
(480,947,l),
(336,131,l),
(1210,131,ls),
(1262,131,o),
(1275,114,o),
(1275,83,cs),
(1275,52,o),
(1260,18,o),
(1210,18,cs),
(260,18,ls)
);
}
);
vertWidth = 0;
width = 1549;
},
{
anchors = (
{
name = bottom;
pos = (716,0);
},
{
name = ogonek;
pos = (1303,9);
},
{
name = top;
pos = (1043,1855);
},
{
name = topleft;
pos = (328,1855);
}
);
layerId = "140DECC1-64C4-40C0-9C07-503DBC3F4160";
shapes = (
{
closed = 1;
nodes = (
(1295,-18,ls),
(1389,-18,o),
(1455,34,o),
(1455,120,cs),
(1455,196,o),
(1404,274,o),
(1300,274,cs),
(531,274,l),
(630,841,l),
(1355,841,ls),
(1454,841,o),
(1526,904,o),
(1526,982,cs),
(1526,1067,o),
(1462,1121,o),
(1368,1121,cs),
(680,1121,l),
(761,1582,l),
(1576,1582,ls),
(1672,1582,o),
(1742,1646,o),
(1742,1731,cs),
(1742,1813,o),
(1681,1874,o),
(1584,1874,cs),
(632,1874,ls),
(536,1874,o),
(478,1837,o),
(462,1748,cs),
(178,144,ls),
(163,56,o),
(206,-18,o),
(303,-18,cs)
);
},
{
closed = 1;
nodes = (
(230,18,o),
(202,67,o),
(215,139,cs),
(499,1741,ls),
(512,1813,o),
(549,1837,o),
(632,1837,cs),
(1584,1837,ls),
(1663,1837,o),
(1705,1795,o),
(1705,1731,cs),
(1705,1664,o),
(1656,1619,o),
(1576,1619,cs),
(730,1619,l),
(636,1084,l),
(1368,1084,ls),
(1446,1084,o),
(1489,1048,o),
(1489,982,cs),
(1489,923,o),
(1438,878,o),
(1355,878,cs),
(599,878,l),
(487,237,l),
(1300,237,ls),
(1381,237,o),
(1418,182,o),
(1418,120,cs),
(1418,55,o),
(1373,18,o),
(1295,18,cs),
(303,18,ls)
);
}
);
vertWidth = 0;
width = 1668;
}
);
metricLeft = E;
metricRight = E;
},
{
color = 10;
glyphname = F.ss02;
kernLeft = F;
kernRight = F;
layers = (
{
anchors = (
{
name = bottom;
pos = (592,0);
},
{
name = top;
pos = (919,1855);
}
);
layerId = m01;
shapes = (
{
closed = 1;
nodes = (
(329,0,o),
(339,50,o),
(345,79,cs),
(495,929,l),
(1207,929,ls),
(1271,929,o),
(1290,966,o),
(1290,996,cs),
(1290,1035,o),
(1271,1072,o),
(1207,1072,cs),
(521,1072,l),
(633,1708,l),
(1457,1708,ls),
(1520,1708,o),
(1540,1738,o),
(1540,1778,cs),
(1540,1814,o),
(1521,1855,o),
(1457,1855,cs),
(579,1855,ls),
(511,1855,o),
(492,1818,o),
(484,1772,cs),
(187,87,ls),
(178,38,o),
(203,0,o),
(261,0,cs)
);
},
{
closed = 1;
nodes = (
(214,18,o),
(198,44,o),
(204,83,cs),
(503,1769,ls),
(510,1812,o),
(523,1837,o),
(579,1837,cs),
(1457,1837,ls),
(1509,1837,o),
(1522,1808,o),
(1522,1778,cs),
(1522,1745,o),
(1510,1727,o),
(1457,1727,cs),
(617,1727,l),
(499,1053,l),
(1207,1053,ls),
(1259,1053,o),
(1272,1029,o),
(1272,996,cs),
(1272,971,o),
(1259,947,o),
(1207,947,cs),
(480,947,l),
(327,82,ls),
(322,55,o),
(314,18,o),
(261,18,cs)
);
}
);
vertWidth = 0;
width = 1522;
},
{
anchors = (
{
name = bottom;
pos = (666,0);
},
{
name = top;
pos = (993,1855);
}
);
layerId = "140DECC1-64C4-40C0-9C07-503DBC3F4160";
shapes = (
{
closed = 1;
nodes = (
(421,-18,o),
(491,49,o),
(507,144,cs),
(629,841,l),
(1340,841,ls),
(1441,841,o),
(1497,906,o),
(1497,984,cs),
(1497,1066,o),
(1438,1121,o),
(1342,1121,cs),
(678,1121,l),
(760,1582,l),
(1542,1582,ls),
(1647,1582,o),
(1709,1656,o),
(1709,1726,cs),
(1709,1815,o),
(1648,1874,o),
(1551,1874,cs),
(625,1874,ls),
(527,1874,o),
(475,1834,o),
(459,1745,cs),
(179,157,ls),
(164,73,o),
(194,-18,o),
(322,-18,cs)
);
},
{
closed = 1;
nodes = (
(223,18,o),
(203,79,o),
(216,150,cs),
(496,1740,ls),
(509,1812,o),
(541,1837,o),
(625,1837,cs),
(1551,1837,ls),
(1631,1837,o),
(1672,1797,o),
(1672,1726,cs),
(1672,1672,o),
(1628,1619,o),
(1542,1619,cs),
(728,1619,l),
(634,1084,l),
(1342,1084,ls),
(1421,1084,o),
(1460,1048,o),
(1460,984,cs),
(1460,921,o),
(1422,878,o),
(1340,878,cs),
(598,878,l),
(470,150,ls),
(456,69,o),
(405,18,o),
(322,18,cs)
);
}
);
vertWidth = 0;
width = 1599;
}
);
metricLeft = F;
metricRight = F;
},
{
color = 10;
glyphname = G.ss02;
kernLeft = G;
kernRight = G;
layers = (
{
anchors = (
{
name = bottom;
pos = (713,0);
},
{
name = top;
pos = (1040,1855);
}
);
layerId = m01;
shapes = (
{
closed = 1;
nodes = (
(869,-18,o),
(1026,88,o),
(1208,335,c),
(1167,87,ls),
(1161,51,o),
(1171,4,o),
(1233,0,cs),
(1306,-3,o),
(1322,52,o),
(1328,84,cs),
(1438,723,ls),
(1447,776,o),
(1432,810,o),
(1374,810,cs),
(1311,810,o),
(1280,766,o),
(1248,691,cs),
(1099,350,o),
(904,131,o),
(705,131,cs),
(457,131,o),
(330,450,o),
(400,867,cs),
(497,1428,o),
(724,1727,o),
(1078,1727,cs),
(1208,1727,o),
(1332,1672,o),
(1460,1539,cs),
(1500,1499,o),
(1544,1510,o),
(1571,1538,cs),
(1598,1566,o),
(1592,1616,o),
(1563,1645,cs),
(1424,1792,o),
(1259,1874,o),
(1081,1874,cs),
(640,1874,o),
(359,1523,o),
(241,872,cs),
(155,373,o),
(350,-18,o),
(702,-18,cs)
);
},
{
closed = 1;
nodes = (
(363,0,o),
(175,378,o),
(260,869,cs),
(376,1514,o),
(649,1855,o),
(1081,1855,cs),
(1255,1855,o),
(1413,1777,o),
(1550,1633,cs),
(1574,1608,o),
(1576,1572,o),
(1557,1550,cs),
(1537,1527,o),
(1505,1519,o),
(1473,1551,cs),
(1343,1687,o),
(1211,1745,o),
(1078,1745,cs),
(714,1745,o),
(479,1437,o),
(382,869,cs),
(310,446,o),
(443,113,o),
(705,113,cs),
(912,113,o),
(1115,339,o),
(1265,684,cs),
(1296,757,o),
(1321,792,o),
(1374,792,cs),
(1420,792,o),
(1428,772,o),
(1420,727,cs),
(1310,87,ls),
(1305,56,o),
(1293,16,o),
(1233,18,cs),
(1186,21,o),
(1181,52,o),
(1185,83,cs),
(1230,359,ls),
(1236,402,o),
(1230,399,o),
(1204,362,cs),
(1020,104,o),
(868,0,o),
(702,0,cs)
);
}
);
vertWidth = 0;
width = 1625;
},
{
anchors = (
{
name = bottom;
pos = (778,0);
},
{
name = top;
pos = (1105,1855);
}
);
layerId = "140DECC1-64C4-40C0-9C07-503DBC3F4160";
shapes = (
{
closed = 1;
nodes = (
(922,-18,o),
(1056,67,o),
(1177,217,c),
(1166,161,ls),
(1147,60,o),
(1218,-1,o),
(1327,-1,cs),
(1438,-1,o),
(1469,60,o),
(1482,135,cs),
(1592,760,ls),
(1610,859,o),
(1553,925,o),
(1454,925,cs),
(1393,925,o),
(1325,910,o),
(1248,769,cs),
(1104,517,o),
(925,275,o),
(740,275,cs),
(584,275,o),
(493,492,o),
(556,865,cs),
(638,1344,o),
(837,1580,o),
(1161,1580,cs),
(1287,1580,o),
(1372,1552,o),
(1461,1471,cs),
(1535,1405,o),
(1633,1374,o),
(1705,1446,cs),
(1780,1521,o),
(1737,1617,o),
(1661,1686,cs),
(1505,1827,o),
(1344,1874,o),
(1163,1874,cs),
(663,1874,o),
(351,1535,o),
(234,873,cs),
(138,324,o),
(356,-18,o),
(737,-18,cs)
);
},
{
closed = 1;
nodes = (
(378,18,o),
(177,335,o),
(271,868,cs),
(385,1515,o),
(681,1837,o),
(1163,1837,cs),
(1338,1837,o),
(1488,1793,o),
(1636,1659,cs),
(1705,1597,o),
(1734,1528,o),
(1679,1472,cs),
(1624,1417,o),
(1551,1440,o),
(1485,1499,cs),
(1391,1586,o),
(1294,1617,o),
(1161,1617,cs),
(818,1617,o),
(603,1363,o),
(519,870,cs),
(453,483,o),
(557,238,o),
(740,238,cs),
(944,238,o),
(1135,496,o),
(1280,750,cs),
(1348,876,o),
(1398,888,o),
(1454,888,cs),
(1534,888,o),
(1569,845,o),
(1555,765,cs),
(1445,140,ls),
(1434,75,o),
(1414,36,o),
(1327,36,cs),
(1235,36,o),
(1189,76,o),
(1203,153,cs),
(1225,274,ls),
(1235,328,o),
(1217,333,o),
(1183,286,cs),
(1057,112,o),
(928,18,o),
(737,18,cs)
);
}
);
vertWidth = 0;
width = 1771;
}
);
metricLeft = G;
metricRight = G;
},
{
color = 10;
glyphname = H.ss02;
kernLeft = H;
kernRight = H;
layers = (
{
anchors = (
{
name = bottom;
pos = (728,0);
},
{
name = center;
pos = (892,928);
},
{
name = top;
pos = (1055,1855);
},
{
name = topleft;
pos = (347,1855);
}
);
layerId = m01;
shapes = (
{
closed = 1;
nodes = (
(329,0,o),
(340,50,o),
(346,79,cs),
(495,929,l),
(1284,929,l),
(1138,87,ls),
(1132,51,o),
(1139,0,o),
(1211,0,cs),
(1273,0,o),
(1292,42,o),
(1296,70,cs),
(1595,1764,ls),
(1604,1817,o),
(1583,1855,o),
(1522,1855,cs),
(1464,1855,o),
(1437,1818,o),
(1431,1786,cs),
(1308,1072,l),
(520,1072,l),
(641,1757,ls),
(651,1814,o),
(633,1855,o),
(578,1855,cs),
(518,1855,o),
(492,1819,o),
(484,1772,cs),
(187,87,ls),
(178,38,o),
(203,0,o),
(260,0,cs)
);
},
{
closed = 1;
nodes = (
(213,18,o),
(197,43,o),
(204,83,cs),
(502,1769,ls),
(509,1811,o),
(529,1837,o),
(578,1837,cs),
(621,1837,o),
(632,1809,o),
(623,1759,cs),
(498,1053,l),
(1324,1053,l),
(1450,1782,ls),
(1454,1810,o),
(1475,1837,o),
(1522,1837,cs),
(1571,1837,o),
(1586,1812,o),
(1577,1767,cs),
(1279,73,ls),
(1274,48,o),
(1261,18,o),
(1211,18,cs),
(1156,18,o),
(1151,52,o),
(1157,83,cs),
(1306,947,l),
(480,947,l),
(327,82,ls),
(322,55,o),
(315,18,o),
(260,18,cs)
);
}
);
vertWidth = 0;
width = 1634;
},
{
anchors = (
{
name = bottom;
pos = (791,0);
},
{
name = center;
pos = (954,928);
},
{
name = top;
pos = (1118,1855);
},
{
name = topleft;
pos = (326,1855);
}
);
layerId = "140DECC1-64C4-40C0-9C07-503DBC3F4160";
shapes = (
{
closed = 1;
nodes = (
(440,-18,o),
(491,48,o),
(500,113,c),
(617,786,l),
(1246,786,l),
(1134,142,ls),
(1117,49,o),
(1177,-18,o),
(1282,-18,cs),
(1372,-18,o),
(1440,36,o),
(1454,102,c),
(1733,1708,ls),
(1752,1812,o),
(1683,1874,o),
(1585,1874,cs),
(1495,1874,o),
(1427,1825,o),
(1415,1753,cs),
(1297,1081,l),
(668,1081,l),
(776,1701,ls),
(795,1814,o),
(735,1874,o),
(642,1874,cs),
(559,1874,o),
(475,1834,o),
(458,1742,cs),
(177,143,ls),
(161,52,o),
(229,-18,o),
(330,-18,cs)
);
},
{
closed = 1;
nodes = (
(247,18,o),
(201,67,o),
(214,136,cs),
(495,1734,ls),
(508,1806,o),
(570,1837,o),
(642,1837,cs),
(717,1837,o),
(756,1798,o),
(739,1707,cs),
(624,1044,l),
(1329,1044,l),
(1452,1747,ls),
(1460,1802,o),
(1509,1837,o),
(1585,1837,cs),
(1666,1837,o),
(1711,1796,o),
(1696,1715,cs),
(1417,109,ls),
(1407,58,o),
(1357,18,o),
(1282,18,cs),
(1197,18,o),
(1157,63,o),
(1171,137,cs),
(1291,823,l),
(586,823,l),
(463,118,l),
(456,65,o),
(419,18,o),
(330,18,cs)
);
}
);
vertWidth = 0;
width = 1782;
}
);
metricLeft = H;
metricRight = H;
},
{
color = 10;
glyphname = I.ss02;
kernLeft = I;
kernRight = I;
layers = (
{
anchors = (
{
name = bottom;
pos = (368,0);
},
{
name = ogonek;
pos = (671,9);
},
{
name = top;
pos = (695,1855);
},
{
name = topleft;
pos = (334,1855);
}
);
layerId = m01;
shapes = (
{
closed = 1;
nodes = (
(510,0,ls),
(575,0,o),
(593,37,o),
(593,73,cs),
(593,113,o),
(575,150,o),
(510,150,cs),
(472,150,l),
(747,1708,l),
(806,1708,ls),
(867,1708,o),
(886,1748,o),
(886,1784,cs),
(886,1821,o),
(867,1855,o),
(806,1855,cs),
(553,1855,ls),
(490,1855,o),
(471,1821,o),
(471,1784,cs),
(471,1748,o),
(490,1708,o),
(553,1708,cs),
(581,1708,l),
(310,150,l),
(247,150,ls),
(186,150,o),
(166,112,o),
(166,73,cs),
(166,37,o),
(186,0,o),
(247,0,cs)
);
},
{
closed = 1;
nodes = (
(198,18,o),
(185,43,o),
(185,73,cs),
(185,106,o),
(198,131,o),
(247,131,cs),
(325,131,l),
(603,1727,l),
(553,1727,ls),
(502,1727,o),
(489,1753,o),
(489,1784,cs),
(489,1816,o),
(502,1837,o),
(553,1837,cs),
(806,1837,ls),
(856,1837,o),
(868,1816,o),
(868,1784,cs),
(868,1753,o),
(855,1727,o),
(806,1727,cs),
(731,1727,l),
(451,131,l),
(510,131,ls),
(563,131,o),
(575,106,o),
(575,73,cs),
(575,43,o),
(563,18,o),
(510,18,cs),
(247,18,ls)
);
}
);
vertWidth = 0;
width = 886;
},
{
anchors = (
{
name = bottom;
pos = (453,0);
},
{
name = ogonek;
pos = (772,9);
},
{
name = top;
pos = (780,1855);
},
{
name = topleft;
pos = (399,1855);
}
);
layerId = "140DECC1-64C4-40C0-9C07-503DBC3F4160";
shapes = (
{
closed = 1;
nodes = (
(753,-18,ls),
(862,-18,o),
(898,50,o),
(908,122,cs),
(921,201,o),
(879,275,o),
(794,275,cs),
(707,275,l),
(933,1580,l),
(1040,1580,ls),
(1142,1580,o),
(1189,1657,o),
(1202,1730,cs),
(1212,1812,o),
(1156,1874,o),
(1080,1874,cs),
(570,1874,ls),
(473,1874,o),
(426,1812,o),
(413,1735,cs),
(399,1659,o),
(452,1580,o),
(532,1580,cs),
(606,1580,l),
(381,275,l),
(286,275,ls),
(185,275,o),
(135,204,o),
(122,128,cs),
(108,50,o),
(162,-18,o),
(246,-18,cs)
);
},
{
closed = 1;
nodes = (
(183,18,o),
(148,62,o),
(159,122,cs),
(170,188,o),
(205,238,o),
(286,238,cs),
(412,238,l),
(650,1617,l),
(532,1617,ls),
(475,1617,o),
(439,1670,o),
(450,1730,cs),
(461,1795,o),
(493,1837,o),
(570,1837,cs),
(1080,1837,ls),
(1137,1837,o),
(1173,1796,o),
(1165,1735,cs),
(1154,1672,o),
(1120,1617,o),
(1040,1617,cs),
(902,1617,l),
(663,238,l),
(794,238,ls),
(856,238,o),
(882,191,o),
(871,128,cs),
(863,63,o),
(838,18,o),
(753,18,cs),
(246,18,ls)
);
}
);
vertWidth = 0;
width = 1157;
}
);
metricLeft = I;
metricRight = I;
},
{
color = 10;
glyphname = J.ss02;
kernLeft = J;
kernRight = J;
layers = (
{
anchors = (
{
name = bottom;
pos = (568,0);
},
{
name = top;
pos = (895,1855);
}
);
layerId = m01;
shapes = (
{
closed = 1;
nodes = (
(91,0,o),
(346,12,o),
(401,19,cs),
(790,77,o),
(867,426,o),
(942,845,cs),
(1121,1855,l),
(960,1855,l),
(784,862,ls),
(726,541,o),
(679,216,o),
(410,170,cs),
(334,156,o),
(71,150,o),
(5,150,cs),
(-35,150,o),
(-76,122,o),
(-76,78,cs),
(-76,30,o),
(-35,0,o),
(5,0,cs)
);
},
{
closed = 1;
nodes = (
(-28,18,o),
(-57,41,o),
(-57,78,cs),
(-57,112,o),
(-29,131,o),
(5,131,cs),
(71,131,o),
(335,139,o),
(413,152,cs),
(695,201,o),
(744,538,o),
(801,859,cs),
(975,1837,l),
(1100,1837,l),
(923,849,ls),
(848,430,o),
(774,93,o),
(398,38,cs),
(344,30,o),
(91,18,o),
(5,18,cs)
);
}
);
vertWidth = 0;
width = 1311;
},
{
anchors = (
{
name = bottom;
pos = (611,0);
},
{
name = top;
pos = (938,1855);
}
);
layerId = "140DECC1-64C4-40C0-9C07-503DBC3F4160";
shapes = (
{
closed = 1;
nodes = (
(160,-18,o),
(409,-14,o),
(461,-6,cs),
(995,58,o),
(994,449,o),
(1063,835,cs),
(1244,1855,l),
(916,1855,l),
(742,878,ls),
(688,575,o),
(665,317,o),
(450,290,cs),
(382,281,o),
(136,275,o),
(76,275,cs),
(-3,275,o),
(-82,213,o),
(-82,128,cs),
(-82,39,o),
(-2,-18,o),
(76,-18,cs)
);
},
{
closed = 1;
nodes = (
(12,18,o),
(-45,60,o),
(-45,128,cs),
(-45,192,o),
(13,238,o),
(76,238,cs),
(136,238,o),
(385,244,o),
(456,253,cs),
(699,284,o),
(725,571,o),
(779,872,cs),
(946,1817,l),
(1199,1817,l),
(1026,843,ls),
(956,453,o),
(959,91,o),
(456,30,cs),
(406,23,o),
(160,18,o),
(76,18,cs)
);
}
);
vertWidth = 0;
width = 1397;
}
);
},
{
color = 10;
glyphname = K.ss02;
kernLeft = H;
kernRight = K;
layers = (
{
anchors = (
{
name = bottom;
pos = (663,0);
},
{
name = top;
pos = (991,1855);
}
);
layerId = m01;
shapes = (
{
closed = 1;
nodes = (
(1254,0,o),
(1295,32,o),
(1295,73,cs),
(1295,98,o),
(1283,118,o),
(1259,151,cs),
(624,993,l),
(1538,1706,ls),
(1574,1733,o),
(1594,1754,o),
(1594,1794,cs),
(1594,1821,o),
(1572,1855,o),
(1531,1855,cs),
(1504,1855,o),
(1472,1845,o),
(1437,1818,cs),
(525,1100,l),
(642,1757,ls),
(652,1812,o),
(638,1855,o),
(576,1855,cs),
(514,1855,o),
(492,1819,o),
(484,1771,cs),
(187,102,ls),
(178,54,o),
(202,0,o),
(260,0,cs),
(326,0,o),
(341,57,o),
(347,96,cs),
(492,913,l),
(1125,59,ls),
(1148,30,o),
(1173,0,o),
(1216,0,cs)
);
},
{
closed = 1;
nodes = (
(1182,18,o),
(1161,42,o),
(1140,69,cs),
(500,932,ls),
(483,955,o),
(480,954,o),
(477,931,cs),
(329,99,ls),
(322,61,o),
(312,18,o),
(260,18,cs),
(215,18,o),
(197,58,o),
(204,98,cs),
(502,1769,ls),
(509,1812,o),
(525,1837,o),
(576,1837,cs),
(624,1837,o),
(633,1810,o),
(624,1759,cs),
(505,1088,ls),
(500,1063,o),
(504,1061,o),
(529,1081,cs),
(1448,1804,ls),
(1481,1830,o),
(1508,1837,o),
(1529,1837,cs),
(1561,1837,o),
(1575,1815,o),
(1575,1794,cs),
(1575,1762,o),
(1562,1746,o),
(1527,1720,cs),
(598,997,l),
(1245,140,ls),
(1268,109,o),
(1276,93,o),
(1276,73,cs),
(1276,43,o),
(1246,18,o),
(1216,18,cs)
);
}
);
vertWidth = 0;
width = 1413;
},
{
anchors = (
{
name = bottom;
pos = (710,0);
},
{
name = top;
pos = (1038,1855);
}
);
layerId = "140DECC1-64C4-40C0-9C07-503DBC3F4160";
shapes = (
{
closed = 1;
nodes = (
(1372,-18,o),
(1438,54,o),
(1438,135,cs),
(1438,176,o),
(1423,223,o),
(1402,253,cs),
(893,976,l),
(1658,1601,ls),
(1702,1637,o),
(1736,1684,o),
(1736,1745,cs),
(1736,1812,o),
(1685,1874,o),
(1590,1874,cs),
(1540,1874,o),
(1479,1857,o),
(1431,1818,cs),
(691,1213,l),
(779,1701,ls),
(802,1829,o),
(710,1874,o),
(634,1874,cs),
(554,1874,o),
(475,1833,o),
(458,1742,cs),
(177,156,ls),
(161,61,o),
(231,-18,o),
(333,-18,cs),
(430,-18,o),
(484,44,o),
(498,124,cs),
(618,799,l),
(1130,62,ls),
(1165,12,o),
(1226,-18,o),
(1284,-18,cs)
);
},
{
closed = 1;
nodes = (
(1236,18,o),
(1189,42,o),
(1161,82,cs),
(637,836,ls),
(605,882,o),
(595,880,o),
(586,827,cs),
(461,131,ls),
(449,64,o),
(411,18,o),
(333,18,cs),
(250,18,o),
(200,75,o),
(214,151,cs),
(495,1734,ls),
(508,1807,o),
(565,1837,o),
(634,1837,cs),
(698,1837,o),
(759,1806,o),
(742,1707,cs),
(649,1188,ls),
(639,1134,o),
(645,1126,o),
(703,1174,cs),
(1455,1788,ls),
(1497,1822,o),
(1547,1837,o),
(1590,1837,cs),
(1666,1837,o),
(1699,1796,o),
(1699,1745,cs),
(1699,1698,o),
(1674,1662,o),
(1634,1629,cs),
(844,983,l),
(1370,233,ls),
(1389,206,o),
(1401,169,o),
(1401,135,cs),
(1401,70,o),
(1354,18,o),
(1284,18,cs)
);
}
);
vertWidth = 0;
width = 1551;
}
);
metricLeft = K;
metricRight = K;
},
{
color = 10;
glyphname = L.ss02;
kernLeft = H;
kernRight = L;
layers = (
{
anchors = (
{
name = bottom;
pos = (668,0);
},
{
name = center;
pos = (832,928);
},
{
name = top;
pos = (995,1855);
},
{
name = topright;
pos = (1646,1855);
}
);
layerId = m01;
shapes = (
{
closed = 1;
nodes = (
(1212,0,ls),
(1271,0,o),
(1295,46,o),
(1295,83,cs),
(1295,122,o),
(1269,150,o),
(1212,150,cs),
(359,150,l),
(643,1757,ls),
(652,1811,o),
(642,1855,o),
(577,1855,cs),
(514,1855,o),
(490,1819,o),
(481,1772,cs),
(187,87,ls),
(176,39,o),
(204,0,o),
(260,0,cs)
);
},
{
closed = 1;
nodes = (
(215,18,o),
(197,44,o),
(205,83,cs),
(499,1769,ls),
(509,1812,o),
(525,1837,o),
(577,1837,cs),
(626,1837,o),
(634,1810,o),
(625,1759,cs),
(336,131,l),
(1212,131,ls),
(1260,131,o),
(1276,113,o),
(1276,83,cs),
(1276,52,o),
(1258,18,o),
(1212,18,cs),
(260,18,ls)
);
}
);
vertWidth = 0;
width = 1378;
},
{
anchors = (
{
name = bottom;
pos = (720,0);
},
{
name = center;
pos = (883,928);
},
{
name = top;
pos = (1047,1855);
},
{
name = topright;
pos = (1767,1855);
}
);
layerId = "140DECC1-64C4-40C0-9C07-503DBC3F4160";
shapes = (
{
closed = 1;
nodes = (
(1306,-18,ls),
(1403,-18,o),
(1469,54,o),
(1469,132,cs),
(1469,210,o),
(1403,275,o),
(1306,275,cs),
(530,275,l),
(784,1701,l),
(805,1837,o),
(724,1874,o),
(646,1874,cs),
(554,1874,o),
(478,1833,o),
(461,1742,cs),
(177,142,ls),
(162,52,o),
(224,-18,o),
(319,-18,cs)
);
},
{
closed = 1;
nodes = (
(243,18,o),
(201,66,o),
(214,137,cs),
(498,1734,ls),
(511,1807,o),
(565,1837,o),
(646,1837,cs),
(714,1837,o),
(764,1813,o),
(747,1707,cs),
(486,238,l),
(1306,238,ls),
(1385,238,o),
(1432,192,o),
(1432,132,cs),
(1432,70,o),
(1384,18,o),
(1306,18,cs),
(319,18,ls)
);
}
);
vertWidth = 0;
width = 1497;
}
);
metricLeft = L;
metricRight = L;
},
{
color = 10;
glyphname = M.ss02;
kernLeft = M;
kernRight = M;
layers = (
{
anchors = (
{
name = bottom;
pos = (1112,0);
},
{
name = top;
pos = (1440,1855);
}
);
layerId = m01;
shapes = (
{
closed = 1;
nodes = (
(103,0,o),
(143,23,o),
(171,77,cs),
(925,1538,l),
(1034,77,ls),
(1037,47,o),
(1051,0,o),
(1122,0,cs),
(1183,0,o),
(1207,53,o),
(1218,74,cs),
(1976,1542,l),
(2088,78,ls),
(2091,47,o),
(2107,0,o),
(2174,0,cs),
(2225,0,o),
(2252,36,o),
(2247,84,cs),
(2109,1768,ls),
(2105,1816,o),
(2095,1855,o),
(2028,1855,cs),
(1961,1855,o),
(1941,1807,o),
(1925,1776,cs),
(1168,304,l),
(1055,1795,ls),
(1052,1818,o),
(1033,1855,o),
(975,1855,cs),
(921,1855,o),
(900,1819,o),
(881,1781,cs),
(14,120,ls),
(-22,46,o),
(19,0,o),
(71,0,cs)
);
},
{
closed = 1;
nodes = (
(29,18,o),
(0,51,o),
(30,112,cs),
(896,1773,ls),
(916,1810,o),
(932,1837,o),
(975,1837,cs),
(1021,1837,o),
(1035,1812,o),
(1037,1793,cs),
(1150,286,ls),
(1153,248,o),
(1160,249,o),
(1178,285,cs),
(1941,1768,ls),
(1958,1799,o),
(1973,1837,o),
(2028,1837,cs),
(2081,1837,o),
(2086,1812,o),
(2090,1767,cs),
(2229,82,ls),
(2233,43,o),
(2214,18,o),
(2174,18,cs),
(2121,18,o),
(2109,52,o),
(2107,79,cs),
(1994,1561,ls),
(1991,1598,o),
(1987,1600,o),
(1966,1562,cs),
(1201,82,ls),
(1189,61,o),
(1171,18,o),
(1122,18,cs),
(1064,18,o),
(1055,51,o),
(1052,79,cs),
(942,1555,ls),
(939,1588,o),
(930,1590,o),
(910,1550,cs),
(155,85,ls),
(130,36,o),
(99,18,o),
(71,18,cs)
);
}
);
vertWidth = 0;
width = 2433;
},
{
anchors = (
{
name = bottom;
pos = (1163,0);
},
{
name = top;
pos = (1490,1855);
}
);
layerId = "140DECC1-64C4-40C0-9C07-503DBC3F4160";
shapes = (
{
closed = 1;
nodes = (
(240,-18,o),
(327,10,o),
(365,85,cs),
(934,1201,l),
(1017,114,ls),
(1023,41,o),
(1081,-18,o),
(1177,-18,cs),
(1302,-18,o),
(1335,46,o),
(1353,80,cs),
(1931,1204,l),
(2010,115,ls),
(2014,44,o),
(2084,-18,o),
(2182,-18,cs),
(2274,-18,o),
(2338,48,o),
(2330,134,cs),
(2200,1733,ls),
(2193,1818,o),
(2171,1874,o),
(2057,1874,cs),
(1965,1874,o),
(1910,1836,o),
(1875,1768,cs),
(1286,629,l),
(1206,1732,ls),
(1199,1821,o),
(1160,1874,o),
(1031,1874,cs),
(943,1874,o),
(913,1833,o),
(880,1770,cs),
(55,191,ls),
(-2,81,o),
(85,-18,o),
(182,-18,cs)
);
},
{
closed = 1;
nodes = (
(106,18,o),
(43,88,o),
(89,175,cs),
(913,1754,ls),
(943,1812,o),
(963,1837,o),
(1031,1837,cs),
(1139,1837,o),
(1163,1805,o),
(1169,1730,cs),
(1252,586,ls),
(1258,510,o),
(1265,510,o),
(1305,586,cs),
(1908,1751,ls),
(1938,1808,o),
(1978,1837,o),
(2057,1837,cs),
(2146,1837,o),
(2157,1807,o),
(2163,1729,cs),
(2293,130,ls),
(2299,64,o),
(2256,18,o),
(2182,18,cs),
(2100,18,o),
(2050,64,o),
(2047,116,cs),
(1964,1259,ls),
(1960,1328,o),
(1954,1328,o),
(1916,1255,cs),
(1319,97,ls),
(1303,64,o),
(1279,18,o),
(1177,18,cs),
(1100,18,o),
(1059,59,o),
(1054,117,cs),
(968,1251,ls),
(963,1324,o),
(956,1323,o),
(919,1251,cs),
(332,102,ls),
(301,42,o),
(233,18,o),
(182,18,cs)
);
}
);
vertWidth = 0;
width = 2484;
}
);
metricLeft = M;
metricRight = M;
},
{
color = 10;
glyphname = N.ss02;
kernLeft = H;
kernRight = H;
layers = (
{
anchors = (
{
name = bottom;
pos = (726,0);
},
{
name = top;
pos = (1053,1855);
}
);
layerId = m01;
shapes = (
{
closed = 1;
nodes = (
(329,0,o),
(341,52,o),
(347,87,cs),
(599,1521,l),
(1134,56,ls),
(1145,27,o),
(1173,0,o),
(1218,0,cs),
(1285,0,o),
(1292,51,o),
(1296,79,cs),
(1591,1757,ls),
(1600,1811,o),
(1590,1855,o),
(1527,1855,cs),
(1467,1855,o),
(1443,1819,o),
(1435,1771,cs),
(1185,359,l),
(671,1793,ls),
(661,1820,o),
(628,1855,o),
(573,1855,cs),
(507,1855,o),
(490,1818,o),
(481,1772,cs),
(187,87,ls),
(178,39,o),
(204,0,o),
(260,0,cs)
);
},
{
closed = 1;
nodes = (
(214,18,o),
(198,44,o),
(204,83,cs),
(499,1769,ls),
(506,1813,o),
(520,1837,o),
(573,1837,cs),
(620,1837,o),
(645,1810,o),
(653,1786,cs),
(1175,329,ls),
(1186,298,o),
(1192,298,o),
(1198,329,cs),
(1453,1769,ls),
(1461,1811,o),
(1478,1837,o),
(1527,1837,cs),
(1574,1837,o),
(1583,1810,o),
(1574,1759,cs),
(1279,82,ls),
(1274,54,o),
(1270,18,o),
(1218,18,cs),
(1182,18,o),
(1161,38,o),
(1151,63,cs),
(608,1549,ls),
(596,1582,o),
(590,1582,o),
(585,1549,cs),
(329,90,ls),
(323,55,o),
(315,18,o),
(260,18,cs)
);
}
);
vertWidth = 0;
width = 1631;
},
{
anchors = (
{
name = bottom;
pos = (790,0);
},
{
name = top;
pos = (1117,1855);
}
);
layerId = "140DECC1-64C4-40C0-9C07-503DBC3F4160";
shapes = (
{
closed = 1;
nodes = (
(423,-18,o),
(488,44,o),
(500,117,cs),
(677,1192,l),
(1148,72,ls),
(1172,14,o),
(1221,-18,o),
(1301,-18,cs),
(1410,-18,o),
(1443,48,o),
(1454,112,cs),
(1733,1700,ls),
(1751,1802,o),
(1698,1883,o),
(1592,1883,cs),
(1504,1883,o),
(1429,1832,o),
(1415,1741,cs),
(1236,656,l),
(765,1779,ls),
(736,1848,o),
(678,1874,o),
(613,1874,cs),
(533,1874,o),
(477,1829,o),
(461,1741,cs),
(177,143,ls),
(161,52,o),
(225,-18,o),
(318,-18,cs)
);
},
{
closed = 1;
nodes = (
(245,18,o),
(202,66,o),
(214,136,cs),
(498,1735,ls),
(511,1806,o),
(548,1837,o),
(613,1837,cs),
(667,1837,o),
(709,1818,o),
(732,1764,cs),
(1218,602,ls),
(1247,532,o),
(1253,532,o),
(1265,607,cs),
(1452,1735,ls),
(1464,1808,o),
(1518,1846,o),
(1592,1846,cs),
(1675,1846,o),
(1711,1792,o),
(1696,1708,cs),
(1417,119,ls),
(1407,61,o),
(1385,18,o),
(1301,18,cs),
(1234,18,o),
(1200,40,o),
(1181,87,cs),
(696,1246,ls),
(667,1314,o),
(661,1313,o),
(649,1242,cs),
(463,123,ls),
(454,65,o),
(406,18,o),
(318,18,cs)
);
}
);
vertWidth = 0;
width = 1782;
}
);
metricLeft = N;
metricRight = N;
},
{
color = 10;
glyphname = O.ss02;
kernLeft = O;
kernRight = O;
layers = (
{
anchors = (
{
name = bottom;
pos = (695,0);
},
{
name = center;
pos = (858,928);
},
{
name = ogonek;
pos = (1301,9);
},
{
name = top;
pos = (1022,1855);
},
{
name = topleft;
pos = (284,1855);
},
{
name = topright;
pos = (1760,1855);
}
);
layerId = m01;
shapes = (
{
closed = 1;
nodes = (
(1235,0,o),
(1455,730,o),
(1521,1101,cs),
(1605,1571,o),
(1452,1855,o),
(1042,1855,cs),
(534,1855,o),
(316,1333,o),
(249,942,cs),
(170,480,o),
(247,0,o),
(744,0,cs)
);
},
{
closed = 1;
nodes = (
(262,18,o),
(188,480,o),
(267,938,cs),
(334,1328,o),
(546,1837,o),
(1042,1837,cs),
(1440,1837,o),
(1586,1566,o),
(1502,1105,cs),
(1438,735,o),
(1222,18,o),
(744,18,cs)
);
},
{
closed = 1;
nodes = (
(346,579,o),
(373,150,o),
(741,150,cs),
(1063,150,o),
(1307,778,o),
(1362,1088,cs),
(1419,1408,o),
(1396,1708,o),
(1028,1708,cs),
(624,1708,o),
(449,1154,o),
(405,909,cs)
);
},
{
closed = 1;
nodes = (
(432,1159,o),
(610,1727,o),
(1028,1727,cs),
(1414,1727,o),
(1438,1408,o),
(1380,1086,cs),
(1325,772,o),
(1076,131,o),
(741,131,cs),
(356,131,o),
(327,580,o),
(387,913,cs)
);
}
);
vertWidth = 0;
width = 1562;
},
{
anchors = (
{
name = bottom;
pos = (748,0);
},
{
name = center;
pos = (911,928);
},
{
name = ogonek;
pos = (1421,9);
},
{
name = top;
pos = (1075,1855);
},
{
name = topleft;
pos = (252,1855);
},
{
name = topright;
pos = (1897,1855);
}
);
layerId = "140DECC1-64C4-40C0-9C07-503DBC3F4160";
shapes = (
{
closed = 1;
nodes = (
(1234,-18,o),
(1561,413,o),
(1684,1102,cs),
(1766,1580,o),
(1609,1874,o),
(1119,1874,cs),
(643,1874,o),
(346,1559,o),
(236,942,cs),
(132,353,o),
(354,-18,o),
(816,-18,cs)
);
},
{
closed = 1;
nodes = (
(377,18,o),
(172,364,o),
(273,937,cs),
(380,1539,o),
(662,1837,o),
(1119,1837,cs),
(1584,1837,o),
(1727,1572,o),
(1647,1108,cs),
(1526,431,o),
(1213,18,o),
(816,18,cs)
);
},
{
closed = 1;
nodes = (
(485,506,o),
(583,275,o),
(814,275,cs),
(1064,275,o),
(1272,582,o),
(1360,1091,cs),
(1417,1413,o),
(1395,1580,o),
(1104,1580,cs),
(818,1580,o),
(637,1359,o),
(553,908,cs)
);
},
{
closed = 1;
nodes = (
(602,1378,o),
(798,1617,o),
(1104,1617,cs),
(1429,1617,o),
(1455,1416,o),
(1397,1086,cs),
(1307,565,o),
(1086,238,o),
(814,238,cs),
(557,238,o),
(446,499,o),
(517,914,cs)
);
}
);
vertWidth = 0;
width = 1676;
}
);
metricLeft = O;
metricRight = O;
},
{
color = 10;
glyphname = P.ss02;
kernLeft = H;
kernRight = P;
layers = (
{
anchors = (
{
name = bottom;
pos = (645,0);
},
{
name = top;
pos = (972,1855);
}
);
layerId = m01;
shapes = (
{
closed = 1;
nodes = (
(330,0,o),
(340,51,o),
(345,79,cs),
(494,923,l),
(1051,928,o),
(1476,990,o),
(1527,1380,cs),
(1571,1706,o),
(1190,1855,o),
(579,1855,cs),
(511,1855,o),
(492,1819,o),
(484,1772,cs),
(187,87,ls),
(178,39,o),
(204,0,o),
(261,0,cs)
);
},
{
closed = 1;
nodes = (
(215,18,o),
(199,44,o),
(205,83,cs),
(503,1769,ls),
(510,1812,o),
(523,1837,o),
(579,1837,cs),
(1185,1837,o),
(1550,1693,o),
(1509,1382,cs),
(1459,1003,o),
(1040,945,o),
(480,941,c),
(327,82,ls),
(322,54,o),
(315,18,o),
(261,18,cs)
);
},
{
closed = 1;
nodes = (
(973,1078,o),
(1337,1137,o),
(1369,1397,cs),
(1392,1576,o),
(1184,1700,o),
(633,1708,c),
(521,1072,l)
);
},
{
closed = 1;
nodes = (
(617,1727,l),
(1186,1721,o),
(1410,1589,o),
(1386,1394,cs),
(1353,1114,o),
(963,1058,o),
(499,1053,c)
);
}
);
vertWidth = 0;
width = 1475;
},
{
anchors = (
{
name = bottom;
pos = (733,0);
},
{
name = top;
pos = (1060,1855);
}
);
layerId = "140DECC1-64C4-40C0-9C07-503DBC3F4160";
shapes = (
{
closed = 1;
nodes = (
(437,-18,o),
(491,38,o),
(503,107,cs),
(628,825,l),
(1132,838,o),
(1602,850,o),
(1671,1331,cs),
(1728,1733,o),
(1335,1874,o),
(630,1874,cs),
(536,1874,o),
(476,1832,o),
(460,1742,cs),
(177,140,ls),
(162,52,o),
(225,-18,o),
(330,-18,cs)
);
},
{
closed = 1;
nodes = (
(245,18,o),
(202,66,o),
(214,133,cs),
(497,1734,ls),
(510,1808,o),
(550,1837,o),
(630,1837,cs),
(1326,1837,o),
(1687,1707,o),
(1634,1337,cs),
(1569,874,o),
(1109,872,o),
(597,862,c),
(466,115,ls),
(455,56,o),
(417,18,o),
(330,18,cs)
);
},
{
closed = 1;
nodes = (
(1048,1136,o),
(1331,1137,o),
(1357,1350,cs),
(1378,1514,o),
(1315,1586,o),
(762,1587,c),
(680,1121,l)
);
},
{
closed = 1;
nodes = (
(731,1623,l),
(1334,1625,o),
(1417,1532,o),
(1394,1346,cs),
(1364,1096,o),
(1028,1093,o),
(636,1082,c)
);
}
);
vertWidth = 0;
width = 1566;
}
);
metricLeft = P;
metricRight = P;
},
{
color = 10;
glyphname = Q.ss02;
kernLeft = O;
kernRight = Q;
layers = (
{
anchors = (
{
name = bottom;
pos = (668,0);
},
{
name = top;
pos = (995,1855);
}
);
layerId = m01;
shapes = (
{
closed = 1;
nodes = (
(794,-1,o),
(866,18,o),
(930,49,c),
(1079,-168,ls),
(1111,-213,o),
(1161,-241,o),
(1201,-216,cs),
(1247,-191,o),
(1247,-130,o),
(1221,-93,cs),
(1061,140,l),
(1317,370,o),
(1447,830,o),
(1494,1100,cs),
(1578,1570,o),
(1425,1854,o),
(1015,1854,cs),
(507,1854,o),
(289,1332,o),
(222,940,cs),
(143,479,o),
(220,-1,o),
(717,-1,cs)
);
},
{
closed = 1;
nodes = (
(236,18,o),
(162,480,o),
(240,937,cs),
(307,1327,o),
(519,1836,o),
(1015,1836,cs),
(1413,1836,o),
(1559,1565,o),
(1476,1104,cs),
(1429,830,o),
(1296,365,o),
(1037,142,c),
(1206,-104,ls),
(1228,-135,o),
(1228,-181,o),
(1192,-201,cs),
(1161,-219,o),
(1123,-199,o),
(1095,-158,cs),
(935,73,l),
(869,37,o),
(796,18,o),
(717,18,cs)
);
},
{
closed = 1;
nodes = (
(319,578,o),
(347,148,o),
(714,148,cs),
(758,148,o),
(799,160,o),
(840,180,c),
(785,260,ls),
(752,308,o),
(747,347,o),
(784,377,cs),
(829,414,o),
(885,394,o),
(917,349,cs),
(966,278,l),
(1160,480,o),
(1296,866,o),
(1335,1088,cs),
(1392,1407,o),
(1369,1708,o),
(1002,1708,cs),
(597,1708,o),
(422,1153,o),
(378,908,cs)
);
},
{
closed = 1;
nodes = (
(405,1158,o),
(583,1726,o),
(1002,1726,cs),
(1387,1726,o),
(1411,1407,o),
(1353,1084,cs),
(1313,856,o),
(1168,449,o),
(963,249,c),
(901,338,ls),
(874,377,o),
(832,393,o),
(796,362,cs),
(767,340,o),
(771,313,o),
(800,271,cs),
(866,175,l),
(819,146,o),
(767,129,o),
(714,129,cs),
(329,129,o),
(300,578,o),
(360,912,cs)
);
}
);
vertWidth = 0;
width = 1510;
},
{
anchors = (
{
name = bottom;
pos = (753,0);
},
{
name = top;
pos = (1080,1855);
}
);
layerId = "140DECC1-64C4-40C0-9C07-503DBC3F4160";
shapes = (
{
closed = 1;
nodes = (
(882,-18,o),
(942,-9,o),
(1000,8,c),
(1109,-152,ls),
(1165,-237,o),
(1265,-264,o),
(1337,-217,cs),
(1410,-171,o),
(1427,-78,o),
(1376,-2,cs),
(1261,167,l),
(1463,356,o),
(1614,681,o),
(1689,1102,cs),
(1771,1580,o),
(1614,1874,o),
(1125,1874,cs),
(649,1874,o),
(351,1559,o),
(241,942,cs),
(138,353,o),
(359,-18,o),
(821,-18,cs)
);
},
{
closed = 1;
nodes = (
(383,18,o),
(177,364,o),
(278,937,cs),
(385,1539,o),
(667,1837,o),
(1125,1837,cs),
(1589,1837,o),
(1733,1572,o),
(1652,1108,cs),
(1575,676,o),
(1420,353,o),
(1213,173,c),
(1344,-22,ls),
(1386,-84,o),
(1375,-150,o),
(1317,-186,cs),
(1261,-223,o),
(1187,-203,o),
(1140,-131,cs),
(1015,53,l),
(952,30,o),
(888,18,o),
(821,18,cs)
);
},
{
closed = 1;
nodes = (
(491,506,o),
(589,275,o),
(820,275,cs),
(819,275,o),
(819,275,o),
(818,275,c),
(809,288,ls),
(759,362,o),
(772,461,o),
(842,510,cs),
(914,562,o),
(1015,535,o),
(1071,450,cs),
(1093,417,l),
(1217,555,o),
(1313,786,o),
(1366,1091,cs),
(1423,1413,o),
(1401,1580,o),
(1110,1580,cs),
(823,1580,o),
(642,1359,o),
(559,908,cs)
);
},
{
closed = 1;
nodes = (
(608,1378,o),
(804,1617,o),
(1110,1617,cs),
(1434,1617,o),
(1461,1416,o),
(1403,1086,cs),
(1344,750,o),
(1232,496,o),
(1088,359,c),
(1040,430,ls),
(992,501,o),
(919,520,o),
(864,480,cs),
(809,442,o),
(798,370,o),
(839,309,cs),
(886,242,l),
(862,242,o),
(843,238,o),
(820,238,cs),
(563,238,o),
(452,499,o),
(522,914,cs)
);
}
);
vertWidth = 0;
width = 1682;
}
);
metricLeft = Q;
metricRight = Q;
},
{
color = 10;
glyphname = R.ss02;
kernLeft = H;
kernRight = R;
layers = (
{
anchors = (
{
name = bottom;
pos = (654,0);
},
{
name = top;
pos = (981,1855);
}
);
layerId = m01;
shapes = (
{
closed = 1;
nodes = (
(327,0,o),
(337,52,o),
(345,95,cs),
(485,883,l),
(1138,54,ls),
(1169,15,o),
(1199,0,o),
(1224,0,cs),
(1292,0,o),
(1320,74,o),
(1257,155,cs),
(651,926,l),
(1114,944,o),
(1479,1034,o),
(1525,1379,cs),
(1567,1705,o),
(1198,1855,o),
(577,1855,cs),
(508,1855,o),
(490,1819,o),
(481,1772,cs),
(187,103,ls),
(177,52,o),
(201,0,o),
(258,0,cs)
);
},
{
closed = 1;
nodes = (
(213,18,o),
(198,55,o),
(205,100,cs),
(500,1769,ls),
(507,1812,o),
(520,1837,o),
(577,1837,cs),
(1191,1837,o),
(1546,1693,o),
(1506,1382,cs),
(1463,1046,o),
(1106,962,o),
(641,944,cs),
(618,943,o),
(616,938,o),
(629,921,cs),
(1243,143,ls),
(1298,73,o),
(1278,18,o),
(1224,18,cs),
(1205,18,o),
(1180,30,o),
(1152,66,cs),
(494,897,ls),
(475,921,o),
(472,919,o),
(468,893,cs),
(327,99,ls),
(320,56,o),
(312,18,o),
(258,18,cs)
);
},
{
closed = 1;
nodes = (
(967,1078,o),
(1332,1140,o),
(1367,1396,cs),
(1391,1580,o),
(1146,1700,o),
(630,1708,c),
(518,1072,l)
);
},
{
closed = 1;
nodes = (
(614,1727,l),
(1148,1721,o),
(1410,1594,o),
(1384,1393,cs),
(1348,1118,o),
(957,1058,o),
(496,1053,c)
);
}
);
vertWidth = 0;
width = 1528;
},
{
anchors = (
{
name = bottom;
pos = (710,0);
},
{
name = top;
pos = (1038,1855);
}
);
layerId = "140DECC1-64C4-40C0-9C07-503DBC3F4160";
shapes = (
{
closed = 1;
nodes = (
(405,-18,o),
(487,53,o),
(504,149,cs),
(608,745,l),
(1139,53,ls),
(1189,-13,o),
(1261,-18,o),
(1299,-18,cs),
(1405,-18,o),
(1503,111,o),
(1383,267,cs),
(941,845,l),
(1313,890,o),
(1611,1021,o),
(1672,1361,cs),
(1739,1733,o),
(1331,1874,o),
(631,1874,cs),
(535,1874,o),
(472,1832,o),
(456,1742,cs),
(178,156,ls),
(163,65,o),
(201,-18,o),
(307,-18,cs)
);
},
{
closed = 1;
nodes = (
(227,18,o),
(201,72,o),
(215,151,cs),
(493,1734,ls),
(506,1808,o),
(548,1837,o),
(631,1837,cs),
(1323,1837,o),
(1695,1708,o),
(1635,1368,cs),
(1577,1039,o),
(1288,920,o),
(912,879,cs),
(873,874,o),
(869,869,o),
(898,833,cs),
(1355,243,ls),
(1457,112,o),
(1382,18,o),
(1299,18,cs),
(1265,18,o),
(1208,24,o),
(1167,77,cs),
(628,775,ls),
(590,824,o),
(587,821,o),
(577,771,cs),
(468,154,ls),
(455,74,o),
(389,18,o),
(307,18,cs)
);
},
{
closed = 1;
nodes = (
(1051,1135,o),
(1329,1202,o),
(1358,1374,cs),
(1380,1506,o),
(1247,1580,o),
(758,1580,c),
(676,1121,l)
);
},
{
closed = 1;
nodes = (
(726,1617,l),
(1255,1621,o),
(1424,1533,o),
(1395,1368,cs),
(1359,1161,o),
(1034,1092,o),
(632,1082,c)
);
}
);
vertWidth = 0;
width = 1586;
}
);
metricLeft = R;
metricRight = R;
},
{
color = 10;
glyphname = S.ss02;
kernLeft = S;
kernRight = S;
layers = (
{
anchors = (
{
name = bottom;
pos = (419,0);
},
{
name = top;
pos = (746,1855);
}
);
layerId = m01;
shapes = (
{
closed = 1;
nodes = (
(725,-18,o),
(1009,232,o),
(1009,521,cs),
(1009,759,o),
(871,925,o),
(690,1043,cs),
(602,1100,ls),
(411,1225,o),
(335,1316,o),
(335,1428,cs),
(335,1640,o),
(566,1708,o),
(868,1708,cs),
(1112,1708,ls),
(1153,1708,o),
(1186,1735,o),
(1186,1783,cs),
(1186,1855,o),
(1120,1855,o),
(1110,1855,cs),
(845,1855,ls),
(432,1855,o),
(168,1694,o),
(168,1418,cs),
(168,1268,o),
(276,1121,o),
(460,997,cs),
(550,937,ls),
(721,822,o),
(844,698,o),
(844,519,cs),
(844,305,o),
(640,132,o),
(248,132,cs),
(2,132,ls),
(-41,132,o),
(-77,102,o),
(-77,54,cs),
(-77,-18,o),
(-5,-18,o),
(2,-18,cs),
(230,-18,ls)
);
},
{
closed = 1;
nodes = (
(2,0,ls),
(-5,0,o),
(-58,0,o),
(-58,54,cs),
(-58,91,o),
(-32,114,o),
(2,114,cs),
(248,114,ls),
(649,114,o),
(862,295,o),
(862,519,cs),
(862,706,o),
(732,837,o),
(561,952,cs),
(471,1012,ls),
(290,1134,o),
(187,1274,o),
(187,1418,cs),
(187,1683,o),
(438,1837,o),
(845,1837,cs),
(1110,1837,ls),
(1120,1837,o),
(1168,1837,o),
(1168,1783,cs),
(1168,1745,o),
(1145,1726,o),
(1112,1726,cs),
(868,1726,ls),
(562,1726,o),
(317,1654,o),
(317,1428,cs),
(317,1308,o),
(400,1214,o),
(593,1086,cs),
(679,1028,ls),
(857,909,o),
(991,751,o),
(991,521,cs),
(991,242,o),
(717,0,o),
(230,0,cs)
);
}
);
vertWidth = 0;
width = 1012;
},
{
anchors = (
{
name = bottom;
pos = (503,0);
},
{
name = top;
pos = (830,1855);
}
);
layerId = "140DECC1-64C4-40C0-9C07-503DBC3F4160";
shapes = (
{
closed = 1;
nodes = (
(669,-18,o),
(1174,127,o),
(1174,548,cs),
(1174,817,o),
(973,961,o),
(796,1096,cs),
(742,1137,ls),
(572,1267,o),
(485,1321,o),
(485,1392,cs),
(485,1492,o),
(672,1559,o),
(857,1559,cs),
(1237,1559,ls),
(1322,1559,o),
(1391,1627,o),
(1391,1709,cs),
(1391,1828,o),
(1290,1855,o),
(1235,1855,cs),
(860,1855,ls),
(470,1855,o),
(164,1653,o),
(164,1380,cs),
(164,1162,o),
(347,1046,o),
(540,910,cs),
(600,868,ls),
(779,741,o),
(851,663,o),
(851,548,cs),
(851,344,o),
(546,278,o),
(382,278,cs),
(91,278,ls),
(6,278,o),
(-64,207,o),
(-64,125,cs),
(-64,9,o),
(46,-18,o),
(91,-18,cs),
(382,-18,ls)
);
},
{
closed = 1;
nodes = (
(91,18,ls),
(53,18,o),
(-27,39,o),
(-27,125,cs),
(-27,189,o),
(24,241,o),
(91,241,cs),
(382,241,ls),
(553,241,o),
(888,313,o),
(888,548,cs),
(888,679,o),
(804,768,o),
(622,897,cs),
(562,940,ls),
(367,1077,o),
(201,1183,o),
(201,1380,cs),
(201,1632,o),
(484,1818,o),
(860,1818,cs),
(1235,1818,ls),
(1283,1818,o),
(1354,1799,o),
(1354,1709,cs),
(1354,1645,o),
(1305,1596,o),
(1237,1596,cs),
(857,1596,ls),
(662,1596,o),
(448,1519,o),
(448,1392,cs),
(448,1302,o),
(549,1238,o),
(720,1108,cs),
(774,1066,ls),
(951,931,o),
(1137,798,o),
(1137,548,cs),
(1137,155,o),
(661,18,o),
(382,18,cs)
);
}
);
vertWidth = 0;
width = 1180;
},
{
associatedMasterId = m01;
layerId = "A440414B-586A-40A5-AE6A-EB7CED442D21";
name = background;
shapes = (
{
closed = 1;
nodes = (
(217,0,o),
(381,55,o),
(381,202,cs),
(381,296,o),
(332,349,o),
(253,404,cs),
(173,460,o),
(123,496,o),
(123,545,cs),
(123,609,o),
(220,659,o),
(304,659,cs),
(447,659,ls),
(461,659,o),
(472,673,o),
(472,687,cs),
(472,713,o),
(450,713,o),
(445,713,cs),
(305,713,ls),
(164,713,o),
(67,632,o),
(67,541,cs),
(67,463,o),
(130,422,o),
(217,361,cs),
(296,305,o),
(326,264,o),
(326,201,cs),
(326,91,o),
(181,55,o),
(110,55,cs),
(0,55,ls),
(-14,55,o),
(-27,41,o),
(-27,27,cs),
(-27,0,o),
(-2,0,o),
(0,0,cs),
(110,0,ls)
);
}
);
vertWidth = 0;
width = 549;
}
);
},
{
color = 10;
glyphname = T.ss02;
kernLeft = T;
kernRight = T;
layers = (
{
anchors = (
{
name = bottom;
pos = (491,0);
},
{
name = center;
pos = (654,928);
},
{
name = top;
pos = (818,1855);
}
);
layerId = m01;
shapes = (
{
closed = 1;
nodes = (
(640,0,o),
(651,50,o),
(656,79,cs),
(941,1708,l),
(1408,1708,ls),
(1469,1708,o),
(1489,1745,o),
(1489,1782,cs),
(1489,1818,o),
(1470,1855,o),
(1408,1855,cs),
(314,1855,ls),
(249,1855,o),
(231,1818,o),
(231,1782,cs),
(231,1745,o),
(250,1708,o),
(314,1708,cs),
(779,1708,l),
(498,87,l),
(487,39,o),
(513,0,o),
(571,0,cs)
);
},
{
closed = 1;
nodes = (
(524,18,o),
(507,44,o),
(517,83,c),
(801,1727,l),
(314,1727,ls),
(261,1727,o),
(249,1751,o),
(249,1782,cs),
(249,1813,o),
(262,1837,o),
(314,1837,cs),
(1408,1837,ls),
(1457,1837,o),
(1470,1813,o),
(1470,1782,cs),
(1470,1751,o),
(1458,1727,o),
(1408,1727,cs),
(925,1727,l),
(638,82,ls),
(634,54,o),
(626,18,o),
(571,18,cs)
);
}
);
vertWidth = 0;
width = 1397;
},
{
anchors = (
{
name = bottom;
pos = (543,0);
},
{
name = center;
pos = (707,928);
},
{
name = top;
pos = (870,1855);
}
);
layerId = "140DECC1-64C4-40C0-9C07-503DBC3F4160";
shapes = (
{
closed = 1;
nodes = (
(728,-21,o),
(783,41,o),
(796,107,c),
(1055,1589,l),
(1434,1589,ls),
(1537,1589,o),
(1595,1656,o),
(1595,1733,cs),
(1595,1818,o),
(1531,1883,o),
(1434,1883,cs),
(401,1883,ls),
(304,1883,o),
(240,1818,o),
(240,1733,cs),
(240,1656,o),
(298,1589,o),
(401,1589,cs),
(729,1589,l),
(474,143,ls),
(457,52,o),
(524,-21,o),
(625,-21,cs)
);
},
{
closed = 1;
nodes = (
(543,16,o),
(497,66,o),
(511,136,cs),
(773,1626,l),
(401,1626,ls),
(318,1626,o),
(277,1672,o),
(277,1733,cs),
(277,1800,o),
(322,1846,o),
(401,1846,cs),
(1434,1846,ls),
(1514,1846,o),
(1558,1800,o),
(1558,1733,cs),
(1558,1672,o),
(1517,1626,o),
(1434,1626,cs),
(1024,1626,l),
(760,115,ls),
(748,59,o),
(710,16,o),
(625,16,cs)
);
}
);
vertWidth = 0;
width = 1512;
}
);
metricLeft = T;
metricRight = T;
},
{
color = 10;
glyphname = U.ss02;
kernLeft = U;
kernRight = H;
layers = (
{
anchors = (
{
name = bottom;
pos = (672,0);
},
{
name = ogonek;
pos = (1255,9);
},
{
name = top;
pos = (999,1855);
},
{
name = topright;
pos = (1708,1855);
}
);
layerId = m01;
shapes = (
{
closed = 1;
nodes = (
(673,-13,o),
(1014,356,o),
(1209,818,c),
(1082,86,ls),
(1070,27,o),
(1110,-4,o),
(1155,-4,cs),
(1191,-4,o),
(1232,21,o),
(1240,68,cs),
(1539,1769,ls),
(1550,1818,o),
(1526,1854,o),
(1464,1854,cs),
(1405,1854,o),
(1384,1817,o),
(1376,1780,c),
(1321,1466,l),
(1084,699,o),
(696,136,o),
(429,136,cs),
(306,136,o),
(333,335,o),
(366,517,cs),
(593,1765,ls),
(602,1810,o),
(573,1851,o),
(524,1854,cs),
(473,1854,o),
(439,1811,o),
(432,1763,cs),
(208,526,ls),
(139,152,o),
(231,-13,o),
(405,-13,cs)
);
},
{
closed = 1;
nodes = (
(243,6,o),
(158,157,o),
(226,522,cs),
(449,1760,ls),
(456,1803,o),
(483,1836,o),
(523,1836,cs),
(562,1833,o),
(581,1805,o),
(575,1768,cs),
(348,519,ls),
(315,337,o),
(284,118,o),
(429,118,cs),
(708,118,o),
(1100,692,o),
(1339,1463,c),
(1394,1777,ls),
(1401,1809,o),
(1416,1836,o),
(1464,1836,cs),
(1514,1836,o),
(1530,1812,o),
(1522,1772,cs),
(1222,72,ls),
(1215,33,o),
(1185,15,o),
(1155,15,cs),
(1117,15,o),
(1090,36,o),
(1100,82,cs),
(1232,842,ls),
(1243,906,o),
(1236,924,o),
(1201,845,cs),
(978,344,o),
(656,6,o),
(405,6,cs)
);
}
);
vertWidth = 0;
width = 1579;
},
{
anchors = (
{
name = bottom;
pos = (736,0);
},
{
name = ogonek;
pos = (1386,9);
},
{
name = top;
pos = (1064,1855);
},
{
name = topright;
pos = (1855,1855);
}
);
layerId = "140DECC1-64C4-40C0-9C07-503DBC3F4160";
shapes = (
{
closed = 1;
nodes = (
(702,-30,o),
(938,135,o),
(1130,424,c),
(1080,142,ls),
(1061,35,o),
(1142,-18,o),
(1231,-18,cs),
(1301,-18,o),
(1386,18,o),
(1401,103,cs),
(1684,1716,ls),
(1700,1806,o),
(1638,1874,o),
(1531,1874,cs),
(1441,1874,o),
(1375,1825,o),
(1361,1750,cs),
(1325,1554,l),
(1108,750,o),
(809,263,o),
(551,263,cs),
(481,263,o),
(488,357,o),
(518,525,cs),
(730,1710,ls),
(747,1805,o),
(676,1874,o),
(582,1874,cs),
(480,1877,o),
(418,1790,o),
(407,1734,cs),
(196,561,ls),
(123,154,o),
(250,-30,o),
(471,-30,cs)
);
},
{
closed = 1;
nodes = (
(273,6,o),
(164,167,o),
(233,553,cs),
(444,1727,ls),
(453,1773,o),
(500,1840,o),
(582,1837,cs),
(659,1837,o),
(706,1789,o),
(693,1718,cs),
(481,532,ls),
(450,359,o),
(441,226,o),
(551,226,cs),
(833,226,o),
(1142,734,o),
(1362,1547,c),
(1398,1745,ls),
(1408,1802,o),
(1455,1837,o),
(1531,1837,cs),
(1619,1837,o),
(1660,1793,o),
(1647,1721,cs),
(1364,108,ls),
(1353,46,o),
(1292,18,o),
(1231,18,cs),
(1157,18,o),
(1102,55,o),
(1117,137,cs),
(1182,508,ls),
(1194,575,o),
(1181,580,o),
(1142,514,cs),
(950,187,o),
(707,6,o),
(471,6,cs)
);
}
);
vertWidth = 0;
width = 1732;
}
);
metricLeft = U;
metricRight = U;
},
{
color = 10;
glyphname = V.ss02;
kernLeft = V;
kernRight = V;
layers = (
{
anchors = (
{
name = bottom;
pos = (476,0);
},
{
name = top;
pos = (803,1855);
}
);
layerId = m01;
shapes = (
{
closed = 1;
nodes = (
(516,0,o),
(529,37,o),
(549,77,cs),
(1377,1752,ls),
(1409,1817,o),
(1369,1855,o),
(1321,1855,cs),
(1262,1855,o),
(1237,1831,o),
(1213,1781,cs),
(506,321,l),
(438,1780,ls),
(436,1810,o),
(421,1855,o),
(350,1855,cs),
(294,1855,o),
(274,1818,o),
(277,1771,cs),
(370,87,ls),
(371,49,o),
(399,0,o),
(455,0,cs)
);
},
{
closed = 1;
nodes = (
(411,18,o),
(390,55,o),
(388,89,cs),
(296,1772,ls),
(294,1813,o),
(306,1837,o),
(350,1837,cs),
(408,1837,o),
(419,1806,o),
(420,1779,cs),
(490,290,ls),
(492,252,o),
(493,252,o),
(511,288,cs),
(1230,1773,ls),
(1252,1819,o),
(1270,1837,o),
(1321,1837,cs),
(1360,1837,o),
(1386,1811,o),
(1360,1759,cs),
(532,85,ls),
(512,44,o),
(504,18,o),
(455,18,cs)
);
}
);
vertWidth = 0;
width = 1389;
},
{
anchors = (
{
name = bottom;
pos = (635,0);
},
{
name = top;
pos = (962,1855);
}
);
layerId = "140DECC1-64C4-40C0-9C07-503DBC3F4160";
shapes = (
{
closed = 1;
nodes = (
(675,-23,o),
(720,31,o),
(748,88,cs),
(1533,1679,ls),
(1590,1791,o),
(1515,1874,o),
(1411,1874,cs),
(1321,1874,o),
(1262,1836,o),
(1231,1771,cs),
(697,669,l),
(646,1744,ls),
(643,1818,o),
(581,1874,o),
(480,1874,cs),
(390,1874,o),
(327,1821,o),
(333,1725,cs),
(423,124,ls),
(426,45,o),
(492,-23,o),
(584,-23,cs)
);
},
{
closed = 1;
nodes = (
(510,14,o),
(463,63,o),
(460,126,cs),
(370,1727,ls),
(365,1802,o),
(406,1837,o),
(480,1837,cs),
(565,1837,o),
(606,1799,o),
(609,1742,cs),
(663,622,ls),
(667,535,o),
(676,541,o),
(715,622,cs),
(1264,1757,ls),
(1288,1809,o),
(1334,1837,o),
(1411,1837,cs),
(1494,1837,o),
(1545,1783,o),
(1500,1696,cs),
(714,104,ls),
(688,52,o),
(656,14,o),
(584,14,cs)
);
}
);
vertWidth = 0;
width = 1416;
}
);
metricLeft = V;
metricRight = V;
},
{
color = 10;
glyphname = W.ss02;
kernLeft = W;
kernRight = W;
layers = (
{
anchors = (
{
name = bottom;
pos = (963,0);
},
{
name = top;
pos = (1290,1855);
}
);
layerId = m01;
shapes = (
{
closed = 1;
nodes = (
(514,0,o),
(539,49,o),
(553,79,cs),
(1266,1550,l),
(1341,64,ls),
(1343,20,o),
(1369,0,o),
(1424,0,cs),
(1464,0,o),
(1491,28,o),
(1515,77,cs),
(2341,1752,ls),
(2373,1817,o),
(2333,1855,o),
(2276,1855,cs),
(2231,1855,o),
(2200,1830,o),
(2177,1781,cs),
(1476,333,l),
(1402,1781,ls),
(1400,1810,o),
(1380,1855,o),
(1307,1855,cs),
(1257,1855,o),
(1222,1804,o),
(1213,1783,cs),
(510,324,l),
(439,1780,ls),
(437,1810,o),
(422,1855,o),
(351,1855,cs),
(294,1855,o),
(274,1818,o),
(277,1771,cs),
(370,87,ls),
(372,38,o),
(405,0,o),
(460,0,cs)
);
},
{
closed = 1;
nodes = (
(415,18,o),
(391,46,o),
(388,89,cs),
(296,1772,ls),
(293,1813,o),
(306,1837,o),
(351,1837,cs),
(408,1837,o),
(419,1806,o),
(420,1779,cs),
(493,294,ls),
(495,261,o),
(501,263,o),
(517,297,cs),
(1230,1775,ls),
(1239,1794,o),
(1267,1837,o),
(1307,1837,cs),
(1367,1837,o),
(1381,1805,o),
(1383,1779,cs),
(1458,313,ls),
(1460,273,o),
(1467,274,o),
(1486,312,cs),
(2193,1773,ls),
(2216,1817,o),
(2239,1837,o),
(2276,1837,cs),
(2324,1837,o),
(2351,1811,o),
(2325,1759,cs),
(1499,84,ls),
(1477,40,o),
(1456,18,o),
(1424,18,cs),
(1377,18,o),
(1361,30,o),
(1359,65,cs),
(1282,1576,ls),
(1280,1615,o),
(1275,1611,o),
(1258,1575,cs),
(537,87,ls),
(524,56,o),
(503,18,o),
(460,18,cs)
);
}
);
vertWidth = 0;
width = 2305;
},
{
anchors = (
{
name = bottom;
pos = (1102,0);
},
{
name = top;
pos = (1429,1855);
}
);
layerId = "140DECC1-64C4-40C0-9C07-503DBC3F4160";
shapes = (
{
closed = 1;
nodes = (
(651,-18,o),
(710,21,o),
(743,88,cs),
(1292,1194,l),
(1366,127,ls),
(1372,37,o),
(1436,-18,o),
(1524,-18,cs),
(1594,-18,o),
(1656,22,o),
(1690,92,cs),
(2468,1679,ls),
(2523,1792,o),
(2438,1874,o),
(2341,1874,cs),
(2243,1874,o),
(2188,1820,o),
(2161,1765,cs),
(1637,678,l),
(1562,1744,ls),
(1556,1823,o),
(1500,1874,o),
(1390,1874,cs),
(1283,1874,o),
(1253,1811,o),
(1235,1775,cs),
(692,664,l),
(646,1744,ls),
(643,1818,o),
(585,1874,o),
(483,1874,cs),
(393,1874,o),
(328,1821,o),
(333,1725,cs),
(417,124,ls),
(421,37,o),
(489,-18,o),
(590,-18,cs)
);
},
{
closed = 1;
nodes = (
(505,18,o),
(457,57,o),
(454,126,cs),
(370,1727,ls),
(366,1802,o),
(408,1837,o),
(483,1837,cs),
(567,1837,o),
(606,1799,o),
(609,1742,cs),
(657,606,ls),
(660,531,o),
(668,534,o),
(703,605,cs),
(1269,1758,ls),
(1286,1794,o),
(1307,1837,o),
(1390,1837,cs),
(1483,1837,o),
(1520,1804,o),
(1525,1742,cs),
(1604,618,ls),
(1609,550,o),
(1614,548,o),
(1648,618,cs),
(2195,1748,ls),
(2218,1796,o),
(2259,1837,o),
(2341,1837,cs),
(2418,1837,o),
(2477,1781,o),
(2435,1696,cs),
(1657,109,ls),
(1627,50,o),
(1581,18,o),
(1524,18,cs),
(1452,18,o),
(1407,57,o),
(1403,128,cs),
(1326,1242,ls),
(1321,1313,o),
(1310,1314,o),
(1275,1243,cs),
(710,104,ls),
(682,49,o),
(638,18,o),
(590,18,cs)
);
}
);
vertWidth = 0;
width = 2368;
}
);
metricLeft = W;
metricRight = W;
},
{
color = 10;
glyphname = X.ss02;
kernLeft = X;
kernRight = X;
layers = (
{
anchors = (
{
name = bottom;
pos = (595,0);
},
{
name = top;
pos = (922,1855);
}
);
layerId = m01;
shapes = (
{
closed = 1;
nodes = (
(114,-10,o),
(174,-12,o),
(208,35,cs),
(735,762,l),
(999,61,ls),
(1021,1,o),
(1084,-10,o),
(1124,10,cs),
(1156,27,o),
(1169,65,o),
(1151,112,cs),
(848,917,l),
(1436,1724,ls),
(1469,1770,o),
(1462,1818,o),
(1434,1839,cs),
(1402,1866,o),
(1342,1864,o),
(1306,1816,cs),
(782,1095,l),
(516,1797,ls),
(495,1854,o),
(443,1866,o),
(404,1852,cs),
(364,1837,o),
(349,1796,o),
(370,1739,cs),
(670,941,l),
(73,122,ls),
(44,83,o),
(52,41,o),
(78,18,cs)
);
},
{
closed = 1;
nodes = (
(69,50,o),
(65,80,o),
(87,111,cs),
(690,938,l),
(387,1745,ls),
(369,1794,o),
(379,1824,o),
(410,1835,cs),
(442,1848,o),
(480,1839,o),
(499,1791,cs),
(768,1079,ls),
(775,1060,o),
(778,1060,o),
(794,1081,cs),
(1321,1805,ls),
(1350,1844,o),
(1397,1846,o),
(1422,1824,cs),
(1443,1808,o),
(1450,1774,o),
(1421,1735,cs),
(828,919,l),
(1135,105,ls),
(1149,66,o),
(1140,40,o),
(1115,27,cs),
(1082,9,o),
(1035,18,o),
(1016,67,cs),
(748,780,ls),
(742,797,o),
(739,797,o),
(727,781,cs),
(193,46,ls),
(164,7,o),
(119,9,o),
(90,33,cs)
);
}
);
vertWidth = 0;
width = 1430;
},
{
anchors = (
{
name = bottom;
pos = (609,0);
},
{
name = top;
pos = (936,1855);
}
);
layerId = "140DECC1-64C4-40C0-9C07-503DBC3F4160";
shapes = (
{
closed = 1;
nodes = (
(135,-29,o),
(261,-45,o),
(318,34,cs),
(724,603,l),
(923,73,ls),
(959,-22,o),
(1081,-37,o),
(1153,0,cs),
(1221,35,o),
(1255,101,o),
(1222,179,cs),
(945,911,l),
(1467,1640,ls),
(1524,1716,o),
(1509,1787,o),
(1450,1838,cs),
(1392,1891,o),
(1277,1892,o),
(1219,1814,cs),
(817,1255,l),
(616,1785,ls),
(581,1877,o),
(477,1890,o),
(405,1866,cs),
(322,1836,o),
(289,1765,o),
(327,1666,cs),
(596,948,l),
(63,208,ls),
(15,141,o),
(14,75,o),
(73,22,cs)
);
},
{
closed = 1;
nodes = (
(53,90,o),
(53,131,o),
(92,186,cs),
(637,942,l),
(362,1679,ls),
(331,1761,o),
(351,1807,o),
(418,1830,cs),
(479,1852,o),
(555,1842,o),
(581,1772,cs),
(791,1216,ls),
(804,1181,o),
(809,1182,o),
(833,1216,cs),
(1248,1792,ls),
(1294,1854,o),
(1380,1852,o),
(1426,1810,cs),
(1474,1769,o),
(1483,1723,o),
(1438,1662,cs),
(905,917,l),
(1187,166,ls),
(1211,103,o),
(1191,62,o),
(1137,33,cs),
(1076,3,o),
(985,14,o),
(958,86,cs),
(750,641,ls),
(737,677,o),
(733,677,o),
(708,642,cs),
(288,56,ls),
(245,-5,o),
(148,8,o),
(97,50,cs)
);
}
);
vertWidth = 0;
width = 1456;
}
);
metricLeft = X;
metricRight = X;
},
{
color = 10;
glyphname = Y.ss02;
kernLeft = Y;
kernRight = Y;
layers = (
{
anchors = (
{
name = bottom;
pos = (465,0);
},
{
name = top;
pos = (792,1855);
},
{
name = topleft;
pos = (258,1855);
}
);
layerId = m01;
shapes = (
{
closed = 1;
nodes = (
(1194,1802,ls),
(1216,1832,o),
(1233,1834,o),
(1259,1834,cs),
(1287,1834,o),
(1317,1810,o),
(1317,1784,cs),
(1317,1769,o),
(1311,1756,o),
(1295,1733,cs),
(79,82,ls),
(46,37,o),
(29,18,o),
(-9,18,cs),
(-43,18,o),
(-72,52,o),
(-48,84,cs),
(568,936,l),
(255,1745,ls),
(246,1769,o),
(244,1774,o),
(244,1790,cs),
(244,1814,o),
(269,1837,o),
(299,1837,cs),
(339,1837,o),
(359,1818,o),
(371,1786,cs),
(653,1052,l)
);
},
{
closed = 1;
nodes = (
(-95,47,o),
(-54,0,o),
(-9,0,cs),
(43,0,o),
(63,32,o),
(97,79,cs),
(1309,1721,ls),
(1328,1746,o),
(1335,1766,o),
(1335,1784,cs),
(1335,1821,o),
(1294,1853,o),
(1259,1853,cs),
(1229,1853,o),
(1204,1848,o),
(1179,1813,cs),
(659,1090,l),
(389,1793,ls),
(375,1829,o),
(347,1855,o),
(299,1855,cs),
(261,1855,o),
(225,1824,o),
(225,1790,cs),
(225,1770,o),
(229,1762,o),
(238,1739,cs),
(547,937,l),
(-67,87,ls)
);
}
);
vertWidth = 0;
width = 1105;
},
{
anchors = (
{
name = bottom;
pos = (509,0);
},
{
name = top;
pos = (836,1855);
},
{
name = topleft;
pos = (258,1855);
}
);
layerId = "140DECC1-64C4-40C0-9C07-503DBC3F4160";
shapes = (
{
closed = 1;
nodes = (
(1165,1781,ls),
(1191,1818,o),
(1226,1833,o),
(1268,1833,cs),
(1314,1833,o),
(1389,1795,o),
(1389,1732,cs),
(1389,1702,o),
(1382,1680,o),
(1359,1648,cs),
(233,126,ls),
(184,59,o),
(147,20,o),
(85,20,cs),
(19,20,o),
(-59,85,o),
(-17,143,cs),
(547,927,l),
(256,1679,ls),
(244,1709,o),
(240,1723,o),
(240,1750,cs),
(240,1800,o),
(295,1837,o),
(373,1837,cs),
(426,1837,o),
(455,1818,o),
(477,1759,cs),
(708,1151,l)
);
},
{
closed = 1;
nodes = (
(-107,75,o),
(0,-17,o),
(85,-17,cs),
(169,-17,o),
(215,44,o),
(270,118,cs),
(1389,1626,ls),
(1415,1661,o),
(1426,1694,o),
(1426,1732,cs),
(1426,1819,o),
(1325,1870,o),
(1268,1870,cs),
(1217,1870,o),
(1169,1848,o),
(1136,1802,cs),
(720,1224,l),
(511,1774,ls),
(485,1842,o),
(443,1874,o),
(373,1874,cs),
(281,1874,o),
(203,1822,o),
(203,1750,cs),
(203,1718,o),
(209,1698,o),
(221,1666,cs),
(506,928,l),
(-54,149,ls)
);
}
);
vertWidth = 0;
width = 1194;
}
);
},
{
color = 10;
glyphname = Z.ss02;
kernLeft = Z;
kernRight = Z;
layers = (
{
anchors = (
{
name = bottom;
pos = (613,0);
},
{
name = center;
pos = (776,928);
},
{
name = top;
pos = (940,1855);
}
);
layerId = m01;
shapes = (
{
closed = 1;
nodes = (
(1096,0,ls),
(1161,0,o),
(1179,42,o),
(1179,80,cs),
(1179,117,o),
(1160,150,o),
(1096,150,cs),
(297,150,l),
(1429,1722,ls),
(1444,1744,o),
(1455,1770,o),
(1455,1790,cs),
(1455,1832,o),
(1429,1855,o),
(1374,1855,cs),
(456,1855,ls),
(393,1855,o),
(373,1814,o),
(373,1778,cs),
(373,1738,o),
(393,1708,o),
(456,1708,cs),
(1233,1708,l),
(91,125,ls),
(77,103,o),
(74,84,o),
(74,68,cs),
(74,35,o),
(100,0,o),
(157,0,cs)
);
},
{
closed = 1;
nodes = (
(109,18,o),
(91,43,o),
(91,68,cs),
(91,82,o),
(94,96,o),
(106,114,cs),
(1255,1708,ls),
(1268,1725,o),
(1267,1727,o),
(1243,1727,cs),
(456,1727,ls),
(404,1727,o),
(392,1745,o),
(392,1778,cs),
(392,1808,o),
(405,1837,o),
(456,1837,cs),
(1374,1837,ls),
(1421,1837,o),
(1438,1823,o),
(1438,1790,cs),
(1438,1774,o),
(1429,1753,o),
(1415,1733,cs),
(277,154,ls),
(262,133,o),
(263,131,o),
(291,131,cs),
(1096,131,ls),
(1149,131,o),
(1161,111,o),
(1161,80,cs),
(1161,47,o),
(1148,18,o),
(1096,18,cs),
(157,18,ls)
);
}
);
vertWidth = 0;
width = 1362;
},
{
anchors = (
{
name = bottom;
pos = (667,0);
},
{
name = center;
pos = (831,928);
},
{
name = top;
pos = (994,1855);
}
);
layerId = "140DECC1-64C4-40C0-9C07-503DBC3F4160";
shapes = (
{
closed = 1;
nodes = (
(1142,-18,ls),
(1244,-18,o),
(1303,46,o),
(1303,123,cs),
(1303,207,o),
(1236,275,o),
(1142,275,cs),
(535,275,l),
(1520,1626,ls),
(1550,1666,o),
(1560,1701,o),
(1560,1733,cs),
(1560,1814,o),
(1490,1874,o),
(1388,1874,cs),
(520,1874,ls),
(423,1874,o),
(359,1808,o),
(359,1723,cs),
(359,1647,o),
(418,1580,o),
(520,1580,cs),
(1103,1580,l),
(102,211,ls),
(83,185,o),
(74,154,o),
(74,125,cs),
(74,66,o),
(115,-18,o),
(256,-18,cs)
);
},
{
closed = 1;
nodes = (
(140,18,o),
(111,77,o),
(111,125,cs),
(111,149,o),
(116,169,o),
(131,188,cs),
(1149,1582,ls),
(1173,1614,o),
(1172,1617,o),
(1128,1617,cs),
(520,1617,ls),
(437,1617,o),
(396,1663,o),
(396,1723,cs),
(396,1791,o),
(441,1837,o),
(520,1837,cs),
(1388,1837,ls),
(1474,1837,o),
(1523,1794,o),
(1523,1733,cs),
(1523,1708,o),
(1514,1682,o),
(1490,1648,cs),
(492,278,ls),
(465,241,o),
(466,238,o),
(515,238,cs),
(1142,238,ls),
(1219,238,o),
(1266,189,o),
(1266,123,cs),
(1266,63,o),
(1225,18,o),
(1142,18,cs),
(256,18,ls)
);
}
);
vertWidth = 0;
width = 1468;
}
);
metricLeft = Z;
metricRight = Z;
},
{
color = 7;
glyphname = A.ss04;
kernLeft = A;
kernRight = A;
layers = (
{
anchors = (
{
name = bottom;
pos = (590,0);
},
{
name = ogonek;
pos = (1098,9);
},
{
name = top;
pos = (917,1855);
}
);
layerId = m01;
shapes = (
{
closed = 1;
nodes = (
(130,0,o),
(146,23,o),
(174,77,cs),
(609,931,l),
(979,931,l),
(1046,78,ls),
(1049,48,o),
(1060,0,o),
(1128,0,cs),
(1185,0,o),
(1205,36,o),
(1201,84,cs),
(1057,1795,ls),
(1054,1828,o),
(1031,1855,o),
(979,1855,cs),
(908,1855,o),
(905,1818,o),
(885,1781,cs),
(12,104,ls),
(-22,40,o),
(21,0,o),
(70,0,cs)
);
},
{
closed = 1;
nodes = (
(30,18,o),
(1,45,o),
(28,96,cs),
(902,1773,ls),
(923,1814,o),
(924,1837,o),
(979,1837,cs),
(1021,1837,o),
(1037,1818,o),
(1039,1793,cs),
(1184,82,ls),
(1187,42,o),
(1173,18,o),
(1128,18,cs),
(1075,18,o),
(1066,51,o),
(1064,79,cs),
(995,950,l),
(598,950,l),
(157,85,ls),
(130,33,o),
(120,18,o),
(70,18,cs)
);
},
{
closed = 1;
nodes = (
(967,1071,l),
(930,1561,l),
(681,1071,l)
);
},
{
closed = 1;
nodes = (
(920,1583,ls),
(938,1617,o),
(942,1617,o),
(945,1578,cs),
(987,1053,l),
(650,1053,l)
);
},
{
closed = 1;
nodes = (
(997,1732,o),
(1015,1750,o),
(1015,1773,cs),
(1015,1796,o),
(997,1815,o),
(974,1815,cs),
(951,1815,o),
(932,1796,o),
(932,1773,cs),
(932,1750,o),
(951,1732,o),
(974,1732,cs)
);
}
);
vertWidth = 0;
width = 1386;
},
{
anchors = (
{
name = bottom;
pos = (699,0);
},
{
name = ogonek;
pos = (1267,9);
},
{
name = top;
pos = (1026,1855);
}
);
layerId = "140DECC1-64C4-40C0-9C07-503DBC3F4160";
shapes = (
{
closed = 1;
nodes = (
(263,-18,o),
(314,7,o),
(353,85,cs),
(686,742,l),
(1040,741,l),
(1091,115,ls),
(1098,34,o),
(1150,-18,o),
(1249,-18,cs),
(1338,-18,o),
(1405,32,o),
(1397,134,cs),
(1260,1722,ls),
(1252,1822,o),
(1178,1874,o),
(1081,1874,cs),
(979,1874,o),
(915,1826,o),
(884,1768,cs),
(57,179,ls),
(-3,65,o),
(79,-18,o),
(180,-18,cs)
);
},
{
closed = 1;
nodes = (
(101,18,o),
(43,72,o),
(91,163,cs),
(918,1751,ls),
(943,1801,o),
(993,1837,o),
(1081,1837,cs),
(1164,1837,o),
(1216,1800,o),
(1223,1719,cs),
(1360,130,ls),
(1367,52,o),
(1322,18,o),
(1249,18,cs),
(1168,18,o),
(1134,54,o),
(1128,116,cs),
(1073,778,l),
(663,779,l),
(320,102,ls),
(286,36,o),
(252,18,o),
(180,18,cs)
);
},
{
closed = 1;
nodes = (
(1015,1037,l),
(990,1341,l),
(835,1037,l)
);
},
{
closed = 1;
nodes = (
(974,1391,ls),
(1005,1452,o),
(1015,1456,o),
(1021,1394,cs),
(1054,1000,l),
(775,1000,l)
);
},
{
closed = 1;
nodes = (
(1100,1681,o),
(1125,1706,o),
(1125,1736,cs),
(1125,1767,o),
(1100,1792,o),
(1069,1792,cs),
(1039,1792,o),
(1014,1767,o),
(1014,1736,cs),
(1014,1706,o),
(1039,1681,o),
(1069,1681,cs)
);
}
);
vertWidth = 0;
width = 1551;
}
);
metricLeft = A;
metricRight = A;
},
{
color = 7;
glyphname = B.ss04;
kernLeft = H;
kernRight = B;
layers = (
{
anchors = (
{
name = bottom;
pos = (680,0);
},
{
name = center;
pos = (844,928);
},
{
name = top;
pos = (1007,1855);
}
);
layerId = m01;
shapes = (
{
closed = 1;
nodes = (
(1052,0,o),
(1283,154,o),
(1332,470,cs),
(1372,727,o),
(1246,902,o),
(977,995,c),
(1327,1052,o),
(1415,1182,o),
(1437,1357,cs),
(1480,1699,o),
(1185,1855,o),
(575,1855,cs),
(523,1855,o),
(493,1833,o),
(482,1772,cs),
(187,99,ls),
(178,51,o),
(202,0,o),
(248,0,cs)
);
},
{
closed = 1;
nodes = (
(215,18,o),
(197,55,o),
(204,95,cs),
(500,1769,ls),
(509,1822,o),
(530,1837,o),
(575,1837,cs),
(1179,1837,o),
(1459,1688,o),
(1418,1360,cs),
(1395,1173,o),
(1303,1050,o),
(891,1002,c),
(1209,918,o),
(1356,741,o),
(1315,472,cs),
(1269,166,o),
(1045,18,o),
(248,18,cs)
);
},
{
closed = 1;
nodes = (
(851,153,o),
(1137,227,o),
(1174,489,cs),
(1210,736,o),
(1013,923,o),
(496,942,c),
(357,150,l)
);
},
{
closed = 1;
nodes = (
(480,961,l),
(1018,944,o),
(1230,746,o),
(1193,487,cs),
(1153,208,o),
(845,133,o),
(334,131,c)
);
},
{
closed = 1;
nodes = (
(1166,1080,o),
(1257,1189,o),
(1276,1364,cs),
(1303,1609,o),
(1058,1702,o),
(630,1708,c),
(518,1072,l)
);
},
{
closed = 1;
nodes = (
(615,1727,l),
(1056,1723,o),
(1325,1625,o),
(1295,1362,cs),
(1273,1177,o),
(1174,1060,o),
(497,1053,c)
);
},
{
closed = 1;
nodes = (
(591,1732,o),
(610,1750,o),
(610,1773,cs),
(610,1796,o),
(591,1815,o),
(568,1815,cs),
(545,1815,o),
(527,1796,o),
(527,1773,cs),
(527,1750,o),
(545,1732,o),
(568,1732,cs)
);
}
);
vertWidth = 0;
width = 1469;
},
{
anchors = (
{
name = bottom;
pos = (760,0);
},
{
name = center;
pos = (924,928);
},
{
name = top;
pos = (1088,1855);
}
);
layerId = "140DECC1-64C4-40C0-9C07-503DBC3F4160";
shapes = (
{
closed = 1;
nodes = (
(1159,-18,o),
(1462,57,o),
(1519,468,cs),
(1555,724,o),
(1448,881,o),
(1251,982,c),
(1507,1059,o),
(1635,1194,o),
(1654,1344,cs),
(1698,1715,o),
(1356,1874,o),
(615,1874,cs),
(545,1874,o),
(478,1850,o),
(458,1741,cs),
(178,154,ls),
(161,56,o),
(232,-18,o),
(317,-18,cs)
);
},
{
closed = 1;
nodes = (
(251,18,o),
(201,70,o),
(215,149,cs),
(495,1735,ls),
(510,1820,o),
(554,1837,o),
(615,1837,cs),
(1345,1837,o),
(1657,1693,o),
(1617,1350,cs),
(1598,1187,o),
(1453,1060,o),
(1137,991,c),
(1387,899,o),
(1521,746,o),
(1482,474,cs),
(1428,90,o),
(1151,18,o),
(317,18,cs)
);
},
{
closed = 1;
nodes = (
(1016,289,o),
(1173,345,o),
(1198,524,cs),
(1230,736,o),
(1091,830,o),
(630,847,c),
(529,276,l)
);
},
{
closed = 1;
nodes = (
(600,886,l),
(1101,870,o),
(1271,762,o),
(1235,518,cs),
(1206,310,o),
(1015,249,o),
(485,237,c)
);
},
{
closed = 1;
nodes = (
(1297,1140,o),
(1322,1272,o),
(1331,1364,cs),
(1341,1483,o),
(1252,1561,o),
(759,1576,c),
(677,1121,l)
);
},
{
closed = 1;
nodes = (
(727,1614,l),
(1265,1601,o),
(1380,1505,o),
(1368,1360,cs),
(1358,1261,o),
(1331,1098,o),
(634,1082,c)
);
},
{
closed = 1;
nodes = (
(630,1681,o),
(655,1706,o),
(655,1736,cs),
(655,1767,o),
(630,1792,o),
(600,1792,cs),
(569,1792,o),
(544,1767,o),
(544,1736,cs),
(544,1706,o),
(569,1681,o),
(600,1681,cs)
);
}
);
vertWidth = 0;
width = 1627;
}
);
metricLeft = B;
metricRight = B;
},
{
color = 7;
glyphname = C.ss04;
kernLeft = C;
kernRight = C;
layers = (
{
anchors = (
{
name = bottom;
pos = (632,0);
},
{
name = top;
pos = (959,1855);
}
);
layerId = m01;
shapes = (
{
closed = 1;
nodes = (
(966,0,o),
(1159,128,o),
(1321,308,cs),
(1392,386,o),
(1400,424,o),
(1397,446,cs),
(1390,484,o),
(1361,505,o),
(1321,505,cs),
(1270,505,o),
(1252,453,o),
(1197,404,cs),
(1042,257,o),
(905,150,o),
(722,150,cs),
(524,150,o),
(320,397,o),
(400,867,cs),
(457,1192,o),
(590,1708,o),
(1078,1708,cs),
(1208,1708,o),
(1342,1650,o),
(1467,1519,cs),
(1510,1477,o),
(1554,1489,o),
(1580,1516,cs),
(1607,1546,o),
(1600,1590,o),
(1569,1623,cs),
(1436,1764,o),
(1259,1855,o),
(1081,1855,cs),
(474,1855,o),
(313,1275,o),
(241,872,cs),
(140,310,o),
(443,0,o),
(720,0,cs)
);
},
{
closed = 1;
nodes = (
(452,18,o),
(161,317,o),
(260,869,cs),
(331,1271,o),
(488,1837,o),
(1081,1837,cs),
(1255,1837,o),
(1420,1756,o),
(1558,1611,cs),
(1582,1587,o),
(1587,1550,o),
(1566,1528,cs),
(1547,1505,o),
(1514,1497,o),
(1480,1531,cs),
(1353,1666,o),
(1211,1727,o),
(1078,1727,cs),
(577,1727,o),
(439,1196,o),
(383,869,cs),
(300,390,o),
(514,131,o),
(722,131,cs),
(911,131,o),
(1054,243,o),
(1209,391,cs),
(1269,443,o),
(1282,486,o),
(1321,486,cs),
(1355,486,o),
(1373,472,o),
(1379,444,cs),
(1381,426,o),
(1375,395,o),
(1307,320,cs),
(1147,142,o),
(959,18,o),
(720,18,cs)
);
},
{
closed = 1;
nodes = (
(1546,1525,o),
(1564,1543,o),
(1564,1566,cs),
(1564,1589,o),
(1546,1608,o),
(1523,1608,cs),
(1500,1608,o),
(1481,1589,o),
(1481,1566,cs),
(1481,1543,o),
(1500,1525,o),
(1523,1525,cs)
);
}
);
vertWidth = 0;
width = 1408;
},
{
anchors = (
{
name = bottom;
pos = (684,0);
},
{
name = top;
pos = (1011,1855);
}
);
layerId = "140DECC1-64C4-40C0-9C07-503DBC3F4160";
shapes = (
{
closed = 1;
nodes = (
(1029,-18,o),
(1279,95,o),
(1449,280,cs),
(1522,359,o),
(1551,402,o),
(1551,461,cs),
(1551,524,o),
(1503,578,o),
(1417,578,cs),
(1368,578,o),
(1306,561,o),
(1234,480,cs),
(1118,351,o),
(955,275,o),
(796,275,cs),
(596,275,o),
(492,518,o),
(552,865,cs),
(633,1344,o),
(833,1580,o),
(1156,1580,cs),
(1283,1580,o),
(1368,1552,o),
(1456,1471,cs),
(1530,1405,o),
(1628,1374,o),
(1700,1446,cs),
(1775,1521,o),
(1733,1617,o),
(1656,1686,cs),
(1501,1827,o),
(1340,1874,o),
(1159,1874,cs),
(658,1874,o),
(347,1535,o),
(229,873,cs),
(140,364,o),
(381,-18,o),
(793,-18,cs)
);
},
{
closed = 1;
nodes = (
(404,18,o),
(180,374,o),
(266,868,cs),
(381,1515,o),
(676,1837,o),
(1159,1837,cs),
(1333,1837,o),
(1483,1793,o),
(1632,1659,cs),
(1700,1597,o),
(1730,1528,o),
(1674,1472,cs),
(1619,1417,o),
(1547,1440,o),
(1480,1499,cs),
(1386,1586,o),
(1289,1617,o),
(1156,1617,cs),
(813,1617,o),
(599,1363,o),
(515,870,cs),
(454,510,o),
(569,238,o),
(796,238,cs),
(965,238,o),
(1139,321,o),
(1261,456,cs),
(1325,527,o),
(1375,541,o),
(1417,541,cs),
(1484,541,o),
(1514,507,o),
(1514,461,cs),
(1514,414,o),
(1492,383,o),
(1421,306,cs),
(1258,127,o),
(1020,18,o),
(793,18,cs)
);
},
{
closed = 1;
nodes = (
(1633,1489,o),
(1658,1514,o),
(1658,1545,cs),
(1658,1575,o),
(1633,1600,o),
(1602,1600,cs),
(1572,1600,o),
(1547,1575,o),
(1547,1545,cs),
(1547,1514,o),
(1572,1489,o),
(1602,1489,cs)
);
}
);
vertWidth = 0;
width = 1542;
}
);
metricLeft = C;
},
{
color = 7;
glyphname = D.ss04;
kernLeft = H;
kernRight = D;
layers = (
{
anchors = (
{
name = bottom;
pos = (724,0);
},
{
name = center;
pos = (888,928);
},
{
name = top;
pos = (1052,1855);
}
);
layerId = m01;
shapes = (
{
closed = 1;
nodes = (
(444,0,ls),
(991,0,o),
(1452,348,o),
(1536,981,cs),
(1611,1550,o),
(1205,1855,o),
(679,1855,cs),
(577,1855,ls),
(511,1855,o),
(492,1819,o),
(484,1772,cs),
(187,87,ls),
(178,38,o),
(202,0,o),
(260,0,cs)
);
},
{
closed = 1;
nodes = (
(213,18,o),
(197,43,o),
(204,83,cs),
(503,1769,ls),
(510,1812,o),
(523,1837,o),
(577,1837,cs),
(679,1837,ls),
(1198,1837,o),
(1590,1540,o),
(1517,984,cs),
(1434,359,o),
(983,18,o),
(444,18,cs),
(260,18,ls)
);
},
{
closed = 1;
nodes = (
(444,150,ls),
(898,150,o),
(1308,435,o),
(1377,1003,cs),
(1429,1452,o),
(1119,1708,o),
(689,1708,cs),
(633,1708,l),
(358,150,l)
);
},
{
closed = 1;
nodes = (
(617,1727,l),
(689,1727,ls),
(1126,1727,o),
(1448,1461,o),
(1395,1001,cs),
(1325,424,o),
(905,131,o),
(444,131,cs),
(336,131,l)
);
},
{
closed = 1;
nodes = (
(593,1732,o),
(612,1750,o),
(612,1773,cs),
(612,1796,o),
(593,1815,o),
(570,1815,cs),
(547,1815,o),
(529,1796,o),
(529,1773,cs),
(529,1750,o),
(547,1732,o),
(570,1732,cs)
);
}
);
vertWidth = 0;
width = 1564;
},
{
anchors = (
{
name = bottom;
pos = (809,0);
},
{
name = center;
pos = (973,928);
},
{
name = top;
pos = (1136,1855);
}
);
layerId = "140DECC1-64C4-40C0-9C07-503DBC3F4160";
shapes = (
{
closed = 1;
nodes = (
(547,-18,ls),
(1131,-18,o),
(1622,417,o),
(1700,1000,cs),
(1774,1541,o),
(1415,1874,o),
(768,1874,cs),
(625,1874,ls),
(527,1874,o),
(475,1829,o),
(459,1742,cs),
(177,143,ls),
(162,55,o),
(226,-18,o),
(326,-18,cs)
);
},
{
closed = 1;
nodes = (
(246,18,o),
(202,68,o),
(214,136,cs),
(496,1734,ls),
(509,1807,o),
(543,1837,o),
(625,1837,cs),
(768,1837,ls),
(1398,1837,o),
(1734,1524,o),
(1663,1005,cs),
(1586,437,o),
(1114,18,o),
(547,18,cs),
(326,18,ls)
);
},
{
closed = 1;
nodes = (
(547,274,ls),
(976,274,o),
(1332,584,o),
(1387,1003,cs),
(1434,1364,o),
(1208,1582,o),
(783,1582,cs),
(760,1582,l),
(530,274,l)
);
},
{
closed = 1;
nodes = (
(729,1619,l),
(783,1619,ls),
(1225,1619,o),
(1474,1380,o),
(1424,997,cs),
(1367,564,o),
(991,237,o),
(547,237,cs),
(486,237,l)
);
},
{
closed = 1;
nodes = (
(631,1681,o),
(656,1706,o),
(656,1736,cs),
(656,1767,o),
(631,1792,o),
(601,1792,cs),
(570,1792,o),
(545,1767,o),
(545,1736,cs),
(545,1706,o),
(570,1681,o),
(601,1681,cs)
);
}
);
vertWidth = 0;
width = 1724;
}
);
metricLeft = D;
metricRight = D;
},
{
color = 7;
glyphname = E.ss04;
kernLeft = H;
kernRight = E;
layers = (
{
anchors = (
{
name = bottom;
pos = (668,0);
},
{
name = ogonek;
pos = (1203,9);
},
{
name = top;
pos = (995,1855);
},
{
name = topleft;
pos = (347,1855);
}
);
layerId = m01;
shapes = (
{
closed = 1;
nodes = (
(1210,0,ls),
(1273,0,o),
(1293,47,o),
(1293,83,cs),
(1293,120,o),
(1272,150,o),
(1210,150,cs),
(358,150,l),
(495,929,l),
(1238,929,ls),
(1303,929,o),
(1321,966,o),
(1320,996,cs),
(1319,1035,o),
(1302,1072,o),
(1237,1072,cs),
(520,1072,l),
(633,1708,l),
(1486,1708,ls),
(1549,1708,o),
(1568,1738,o),
(1568,1778,cs),
(1568,1814,o),
(1550,1855,o),
(1486,1855,cs),
(579,1855,ls),
(511,1855,o),
(492,1818,o),
(484,1772,cs),
(187,87,ls),
(178,38,o),
(202,0,o),
(260,0,cs)
);
},
{
closed = 1;
nodes = (
(213,18,o),
(197,43,o),
(204,83,cs),
(503,1769,ls),
(510,1812,o),
(523,1837,o),
(579,1837,cs),
(1486,1837,ls),
(1537,1837,o),
(1550,1808,o),
(1550,1778,cs),
(1550,1745,o),
(1538,1727,o),
(1486,1727,cs),
(617,1727,l),
(498,1053,l),
(1237,1053,ls),
(1290,1053,o),
(1301,1029,o),
(1302,996,cs),
(1303,971,o),
(1291,947,o),
(1238,947,cs),
(480,947,l),
(336,131,l),
(1210,131,ls),
(1262,131,o),
(1275,114,o),
(1275,83,cs),
(1275,52,o),
(1260,18,o),
(1210,18,cs),
(260,18,ls)
);
},
{
closed = 1;
nodes = (
(593,1732,o),
(612,1750,o),
(612,1773,cs),
(612,1796,o),
(593,1815,o),
(570,1815,cs),
(547,1815,o),
(529,1796,o),
(529,1773,cs),
(529,1750,o),
(547,1732,o),
(570,1732,cs)
);
}
);
vertWidth = 0;
width = 1549;
},
{
anchors = (
{
name = bottom;
pos = (716,0);
},
{
name = ogonek;
pos = (1303,9);
},
{
name = top;
pos = (1043,1855);
},
{
name = topleft;
pos = (328,1855);
}
);
layerId = "140DECC1-64C4-40C0-9C07-503DBC3F4160";
shapes = (
{
closed = 1;
nodes = (
(1295,-18,ls),
(1389,-18,o),
(1455,34,o),
(1455,120,cs),
(1455,196,o),
(1404,274,o),
(1300,274,cs),
(531,274,l),
(630,841,l),
(1355,841,ls),
(1454,841,o),
(1526,904,o),
(1526,982,cs),
(1526,1067,o),
(1462,1121,o),
(1368,1121,cs),
(680,1121,l),
(761,1582,l),
(1576,1582,ls),
(1672,1582,o),
(1742,1646,o),
(1742,1731,cs),
(1742,1813,o),
(1681,1874,o),
(1584,1874,cs),
(632,1874,ls),
(536,1874,o),
(478,1837,o),
(462,1748,cs),
(178,144,ls),
(163,56,o),
(206,-18,o),
(303,-18,cs)
);
},
{
closed = 1;
nodes = (
(230,18,o),
(202,67,o),
(215,139,cs),
(499,1741,ls),
(512,1813,o),
(549,1837,o),
(632,1837,cs),
(1584,1837,ls),
(1663,1837,o),
(1705,1795,o),
(1705,1731,cs),
(1705,1664,o),
(1656,1619,o),
(1576,1619,cs),
(730,1619,l),
(636,1084,l),
(1368,1084,ls),
(1446,1084,o),
(1489,1048,o),
(1489,982,cs),
(1489,923,o),
(1438,878,o),
(1355,878,cs),
(599,878,l),
(487,237,l),
(1300,237,ls),
(1381,237,o),
(1418,182,o),
(1418,120,cs),
(1418,55,o),
(1373,18,o),
(1295,18,cs),
(303,18,ls)
);
},
{
closed = 1;
nodes = (
(632,1681,o),
(657,1706,o),
(657,1736,cs),
(657,1767,o),
(632,1792,o),
(602,1792,cs),
(571,1792,o),
(546,1767,o),
(546,1736,cs),
(546,1706,o),
(571,1681,o),
(602,1681,cs)
);
}
);
vertWidth = 0;
width = 1668;
}
);
metricLeft = E;
metricRight = E;
},
{
color = 7;
glyphname = F.ss04;
kernLeft = H;
kernRight = F;
layers = (
{
anchors = (
{
name = bottom;
pos = (592,0);
},
{
name = top;
pos = (919,1855);
}
);
layerId = m01;
shapes = (
{
closed = 1;
nodes = (
(329,0,o),
(339,50,o),
(345,79,cs),
(495,929,l),
(1207,929,ls),
(1271,929,o),
(1290,966,o),
(1290,996,cs),
(1290,1035,o),
(1271,1072,o),
(1207,1072,cs),
(521,1072,l),
(633,1708,l),
(1457,1708,ls),
(1520,1708,o),
(1540,1738,o),
(1540,1778,cs),
(1540,1814,o),
(1521,1855,o),
(1457,1855,cs),
(579,1855,ls),
(511,1855,o),
(492,1818,o),
(484,1772,cs),
(187,87,ls),
(178,38,o),
(203,0,o),
(261,0,cs)
);
},
{
closed = 1;
nodes = (
(214,18,o),
(198,44,o),
(204,83,cs),
(503,1769,ls),
(510,1812,o),
(523,1837,o),
(579,1837,cs),
(1457,1837,ls),
(1509,1837,o),
(1522,1808,o),
(1522,1778,cs),
(1522,1745,o),
(1510,1727,o),
(1457,1727,cs),
(617,1727,l),
(499,1053,l),
(1207,1053,ls),
(1259,1053,o),
(1272,1029,o),
(1272,996,cs),
(1272,971,o),
(1259,947,o),
(1207,947,cs),
(480,947,l),
(327,82,ls),
(322,55,o),
(314,18,o),
(261,18,cs)
);
},
{
closed = 1;
nodes = (
(593,1732,o),
(612,1750,o),
(612,1773,cs),
(612,1796,o),
(593,1815,o),
(570,1815,cs),
(547,1815,o),
(529,1796,o),
(529,1773,cs),
(529,1750,o),
(547,1732,o),
(570,1732,cs)
);
}
);
vertWidth = 0;
width = 1522;
},
{
anchors = (
{
name = bottom;
pos = (666,0);
},
{
name = top;
pos = (993,1855);
}
);
layerId = "140DECC1-64C4-40C0-9C07-503DBC3F4160";
shapes = (
{
closed = 1;
nodes = (
(421,-18,o),
(491,49,o),
(507,144,cs),
(629,841,l),
(1340,841,ls),
(1441,841,o),
(1497,906,o),
(1497,984,cs),
(1497,1066,o),
(1438,1121,o),
(1342,1121,cs),
(678,1121,l),
(760,1582,l),
(1542,1582,ls),
(1647,1582,o),
(1709,1656,o),
(1709,1726,cs),
(1709,1815,o),
(1648,1874,o),
(1551,1874,cs),
(625,1874,ls),
(527,1874,o),
(475,1834,o),
(459,1745,cs),
(179,157,ls),
(164,73,o),
(194,-18,o),
(322,-18,cs)
);
},
{
closed = 1;
nodes = (
(223,18,o),
(203,79,o),
(216,150,cs),
(496,1740,ls),
(509,1812,o),
(541,1837,o),
(625,1837,cs),
(1551,1837,ls),
(1631,1837,o),
(1672,1797,o),
(1672,1726,cs),
(1672,1672,o),
(1628,1619,o),
(1542,1619,cs),
(728,1619,l),
(634,1084,l),
(1342,1084,ls),
(1421,1084,o),
(1460,1048,o),
(1460,984,cs),
(1460,921,o),
(1422,878,o),
(1340,878,cs),
(598,878,l),
(470,150,ls),
(456,69,o),
(405,18,o),
(322,18,cs)
);
},
{
closed = 1;
nodes = (
(630,1681,o),
(655,1706,o),
(655,1736,cs),
(655,1767,o),
(630,1792,o),
(600,1792,cs),
(569,1792,o),
(544,1767,o),
(544,1736,cs),
(544,1706,o),
(569,1681,o),
(600,1681,cs)
);
}
);
vertWidth = 0;
width = 1599;
}
);
metricLeft = F;
metricRight = F;
},
{
color = 7;
glyphname = G.ss04;
kernLeft = G;
kernRight = G;
layers = (
{
anchors = (
{
name = bottom;
pos = (713,0);
},
{
name = top;
pos = (1040,1855);
}
);
layerId = m01;
shapes = (
{
closed = 1;
nodes = (
(869,-18,o),
(1026,88,o),
(1208,335,c),
(1167,87,ls),
(1161,51,o),
(1171,4,o),
(1233,0,cs),
(1306,-3,o),
(1322,52,o),
(1328,84,cs),
(1438,723,ls),
(1447,776,o),
(1432,810,o),
(1374,810,cs),
(1311,810,o),
(1280,766,o),
(1248,691,cs),
(1099,350,o),
(904,131,o),
(705,131,cs),
(457,131,o),
(330,450,o),
(400,867,cs),
(497,1428,o),
(724,1727,o),
(1078,1727,cs),
(1208,1727,o),
(1332,1672,o),
(1460,1539,cs),
(1500,1499,o),
(1544,1510,o),
(1571,1538,cs),
(1598,1566,o),
(1592,1616,o),
(1563,1645,cs),
(1424,1792,o),
(1259,1874,o),
(1081,1874,cs),
(640,1874,o),
(359,1523,o),
(241,872,cs),
(155,373,o),
(350,-18,o),
(702,-18,cs)
);
},
{
closed = 1;
nodes = (
(363,0,o),
(175,378,o),
(260,869,cs),
(376,1514,o),
(649,1855,o),
(1081,1855,cs),
(1255,1855,o),
(1413,1777,o),
(1550,1633,cs),
(1574,1608,o),
(1576,1572,o),
(1557,1550,cs),
(1537,1527,o),
(1505,1519,o),
(1473,1551,cs),
(1343,1687,o),
(1211,1745,o),
(1078,1745,cs),
(714,1745,o),
(479,1437,o),
(382,869,cs),
(310,446,o),
(443,113,o),
(705,113,cs),
(912,113,o),
(1115,339,o),
(1265,684,cs),
(1296,757,o),
(1321,792,o),
(1374,792,cs),
(1420,792,o),
(1428,772,o),
(1420,727,cs),
(1310,87,ls),
(1305,56,o),
(1293,16,o),
(1233,18,cs),
(1186,21,o),
(1181,52,o),
(1185,83,cs),
(1230,359,ls),
(1236,402,o),
(1230,399,o),
(1204,362,cs),
(1020,104,o),
(868,0,o),
(702,0,cs)
);
},
{
closed = 1;
nodes = (
(1537,1548,o),
(1555,1566,o),
(1555,1589,cs),
(1555,1612,o),
(1537,1631,o),
(1513,1631,cs),
(1490,1631,o),
(1472,1612,o),
(1472,1589,cs),
(1472,1566,o),
(1490,1548,o),
(1513,1548,cs)
);
}
);
vertWidth = 0;
width = 1625;
},
{
anchors = (
{
name = bottom;
pos = (778,0);
},
{
name = top;
pos = (1105,1855);
}
);
layerId = "140DECC1-64C4-40C0-9C07-503DBC3F4160";
shapes = (
{
closed = 1;
nodes = (
(922,-18,o),
(1056,67,o),
(1177,217,c),
(1166,161,ls),
(1147,60,o),
(1218,-1,o),
(1327,-1,cs),
(1438,-1,o),
(1469,60,o),
(1482,135,cs),
(1592,760,ls),
(1610,859,o),
(1553,925,o),
(1454,925,cs),
(1393,925,o),
(1325,910,o),
(1248,769,cs),
(1104,517,o),
(925,275,o),
(740,275,cs),
(584,275,o),
(493,492,o),
(556,865,cs),
(638,1344,o),
(837,1580,o),
(1161,1580,cs),
(1287,1580,o),
(1372,1552,o),
(1461,1471,cs),
(1535,1405,o),
(1633,1374,o),
(1705,1446,cs),
(1780,1521,o),
(1737,1617,o),
(1661,1686,cs),
(1505,1827,o),
(1344,1874,o),
(1163,1874,cs),
(663,1874,o),
(351,1535,o),
(234,873,cs),
(138,324,o),
(356,-18,o),
(737,-18,cs)
);
},
{
closed = 1;
nodes = (
(378,18,o),
(177,335,o),
(271,868,cs),
(385,1515,o),
(681,1837,o),
(1163,1837,cs),
(1338,1837,o),
(1488,1793,o),
(1636,1659,cs),
(1705,1597,o),
(1734,1528,o),
(1679,1472,cs),
(1624,1417,o),
(1551,1440,o),
(1485,1499,cs),
(1391,1586,o),
(1294,1617,o),
(1161,1617,cs),
(818,1617,o),
(603,1363,o),
(519,870,cs),
(453,483,o),
(557,238,o),
(740,238,cs),
(944,238,o),
(1135,496,o),
(1280,750,cs),
(1348,876,o),
(1398,888,o),
(1454,888,cs),
(1534,888,o),
(1569,845,o),
(1555,765,cs),
(1445,140,ls),
(1434,75,o),
(1414,36,o),
(1327,36,cs),
(1235,36,o),
(1189,76,o),
(1203,153,cs),
(1225,274,ls),
(1235,328,o),
(1217,333,o),
(1183,286,cs),
(1057,112,o),
(928,18,o),
(737,18,cs)
);
},
{
closed = 1;
nodes = (
(1637,1489,o),
(1662,1514,o),
(1662,1545,cs),
(1662,1575,o),
(1637,1600,o),
(1607,1600,cs),
(1576,1600,o),
(1551,1575,o),
(1551,1545,cs),
(1551,1514,o),
(1576,1489,o),
(1607,1489,cs)
);
}
);
vertWidth = 0;
width = 1771;
}
);
metricLeft = G;
metricRight = G;
},
{
color = 7;
glyphname = H.ss04;
kernLeft = H;
kernRight = H;
layers = (
{
anchors = (
{
name = bottom;
pos = (728,0);
},
{
name = center;
pos = (892,928);
},
{
name = top;
pos = (1055,1855);
},
{
name = topleft;
pos = (347,1855);
}
);
layerId = m01;
shapes = (
{
closed = 1;
nodes = (
(329,0,o),
(340,50,o),
(346,79,cs),
(495,929,l),
(1284,929,l),
(1138,87,ls),
(1132,51,o),
(1139,0,o),
(1211,0,cs),
(1273,0,o),
(1292,42,o),
(1296,70,cs),
(1595,1764,ls),
(1604,1817,o),
(1583,1855,o),
(1522,1855,cs),
(1464,1855,o),
(1437,1818,o),
(1431,1786,cs),
(1308,1072,l),
(520,1072,l),
(641,1757,ls),
(651,1814,o),
(633,1855,o),
(578,1855,cs),
(518,1855,o),
(492,1819,o),
(484,1772,cs),
(187,87,ls),
(178,38,o),
(203,0,o),
(260,0,cs)
);
},
{
closed = 1;
nodes = (
(213,18,o),
(197,43,o),
(204,83,cs),
(502,1769,ls),
(509,1811,o),
(529,1837,o),
(578,1837,cs),
(621,1837,o),
(632,1809,o),
(623,1759,cs),
(498,1053,l),
(1324,1053,l),
(1450,1782,ls),
(1454,1810,o),
(1475,1837,o),
(1522,1837,cs),
(1571,1837,o),
(1586,1812,o),
(1577,1767,cs),
(1279,73,ls),
(1274,48,o),
(1261,18,o),
(1211,18,cs),
(1156,18,o),
(1151,52,o),
(1157,83,cs),
(1306,947,l),
(480,947,l),
(327,82,ls),
(322,55,o),
(315,18,o),
(260,18,cs)
);
},
{
closed = 1;
nodes = (
(587,1732,o),
(605,1750,o),
(605,1773,cs),
(605,1796,o),
(587,1815,o),
(564,1815,cs),
(541,1815,o),
(522,1796,o),
(522,1773,cs),
(522,1750,o),
(541,1732,o),
(564,1732,cs)
);
}
);
vertWidth = 0;
width = 1634;
},
{
anchors = (
{
name = bottom;
pos = (791,0);
},
{
name = center;
pos = (954,928);
},
{
name = top;
pos = (1118,1855);
},
{
name = topleft;
pos = (326,1855);
}
);
layerId = "140DECC1-64C4-40C0-9C07-503DBC3F4160";
shapes = (
{
closed = 1;
nodes = (
(440,-18,o),
(491,48,o),
(500,113,c),
(617,786,l),
(1246,786,l),
(1134,142,ls),
(1117,49,o),
(1177,-18,o),
(1282,-18,cs),
(1372,-18,o),
(1440,36,o),
(1454,102,c),
(1733,1708,ls),
(1752,1812,o),
(1683,1874,o),
(1585,1874,cs),
(1495,1874,o),
(1427,1825,o),
(1415,1753,cs),
(1297,1081,l),
(668,1081,l),
(776,1701,ls),
(795,1814,o),
(735,1874,o),
(642,1874,cs),
(559,1874,o),
(475,1834,o),
(458,1742,cs),
(177,143,ls),
(161,52,o),
(229,-18,o),
(330,-18,cs)
);
},
{
closed = 1;
nodes = (
(247,18,o),
(201,67,o),
(214,136,cs),
(495,1734,ls),
(508,1806,o),
(570,1837,o),
(642,1837,cs),
(717,1837,o),
(756,1798,o),
(739,1707,cs),
(624,1044,l),
(1329,1044,l),
(1452,1747,ls),
(1460,1802,o),
(1509,1837,o),
(1585,1837,cs),
(1666,1837,o),
(1711,1796,o),
(1696,1715,cs),
(1417,109,ls),
(1407,58,o),
(1357,18,o),
(1282,18,cs),
(1197,18,o),
(1157,63,o),
(1171,137,cs),
(1291,823,l),
(586,823,l),
(463,118,l),
(456,65,o),
(419,18,o),
(330,18,cs)
);
},
{
closed = 1;
nodes = (
(649,1681,o),
(674,1706,o),
(674,1736,cs),
(674,1767,o),
(649,1792,o),
(619,1792,cs),
(589,1792,o),
(564,1767,o),
(564,1736,cs),
(564,1706,o),
(589,1681,o),
(619,1681,cs)
);
}
);
vertWidth = 0;
width = 1782;
}
);
metricLeft = H;
metricRight = H;
},
{
color = 7;
glyphname = I.ss04;
kernLeft = I;
kernRight = I;
layers = (
{
anchors = (
{
name = bottom;
pos = (368,0);
},
{
name = ogonek;
pos = (671,9);
},
{
name = top;
pos = (695,1855);
},
{
name = topleft;
pos = (334,1855);
}
);
layerId = m01;
shapes = (
{
closed = 1;
nodes = (
(510,0,ls),
(575,0,o),
(593,37,o),
(593,73,cs),
(593,113,o),
(575,150,o),
(510,150,cs),
(472,150,l),
(747,1708,l),
(806,1708,ls),
(867,1708,o),
(886,1748,o),
(886,1784,cs),
(886,1821,o),
(867,1855,o),
(806,1855,cs),
(553,1855,ls),
(490,1855,o),
(471,1821,o),
(471,1784,cs),
(471,1748,o),
(490,1708,o),
(553,1708,cs),
(581,1708,l),
(310,150,l),
(247,150,ls),
(186,150,o),
(166,112,o),
(166,73,cs),
(166,37,o),
(186,0,o),
(247,0,cs)
);
},
{
closed = 1;
nodes = (
(198,18,o),
(185,43,o),
(185,73,cs),
(185,106,o),
(198,131,o),
(247,131,cs),
(325,131,l),
(603,1727,l),
(553,1727,ls),
(502,1727,o),
(489,1753,o),
(489,1784,cs),
(489,1816,o),
(502,1837,o),
(553,1837,cs),
(806,1837,ls),
(856,1837,o),
(868,1816,o),
(868,1784,cs),
(868,1753,o),
(855,1727,o),
(806,1727,cs),
(731,1727,l),
(451,131,l),
(510,131,ls),
(563,131,o),
(575,106,o),
(575,73,cs),
(575,43,o),
(563,18,o),
(510,18,cs),
(247,18,ls)
);
},
{
closed = 1;
nodes = (
(688,1684,o),
(707,1702,o),
(707,1725,cs),
(707,1748,o),
(688,1767,o),
(665,1767,cs),
(642,1767,o),
(624,1748,o),
(624,1725,cs),
(624,1702,o),
(642,1684,o),
(665,1684,cs)
);
}
);
vertWidth = 0;
width = 886;
},
{
anchors = (
{
name = bottom;
pos = (453,0);
},
{
name = ogonek;
pos = (772,9);
},
{
name = top;
pos = (780,1855);
},
{
name = topleft;
pos = (399,1855);
}
);
layerId = "140DECC1-64C4-40C0-9C07-503DBC3F4160";
shapes = (
{
closed = 1;
nodes = (
(753,-18,ls),
(862,-18,o),
(898,50,o),
(908,122,cs),
(921,201,o),
(879,275,o),
(794,275,cs),
(707,275,l),
(933,1580,l),
(1040,1580,ls),
(1142,1580,o),
(1189,1657,o),
(1202,1730,cs),
(1212,1812,o),
(1156,1874,o),
(1080,1874,cs),
(570,1874,ls),
(473,1874,o),
(426,1812,o),
(413,1735,cs),
(399,1659,o),
(452,1580,o),
(532,1580,cs),
(606,1580,l),
(381,275,l),
(286,275,ls),
(185,275,o),
(135,204,o),
(122,128,cs),
(108,50,o),
(162,-18,o),
(246,-18,cs)
);
},
{
closed = 1;
nodes = (
(183,18,o),
(148,62,o),
(159,122,cs),
(170,188,o),
(205,238,o),
(286,238,cs),
(412,238,l),
(650,1617,l),
(532,1617,ls),
(475,1617,o),
(439,1670,o),
(450,1730,cs),
(461,1795,o),
(493,1837,o),
(570,1837,cs),
(1080,1837,ls),
(1137,1837,o),
(1173,1796,o),
(1165,1735,cs),
(1154,1672,o),
(1120,1617,o),
(1040,1617,cs),
(902,1617,l),
(663,238,l),
(794,238,ls),
(856,238,o),
(882,191,o),
(871,128,cs),
(863,63,o),
(838,18,o),
(753,18,cs),
(246,18,ls)
);
},
{
closed = 1;
nodes = (
(799,1562,o),
(824,1587,o),
(824,1618,cs),
(824,1648,o),
(799,1673,o),
(769,1673,cs),
(738,1673,o),
(713,1648,o),
(713,1618,cs),
(713,1587,o),
(738,1562,o),
(769,1562,cs)
);
}
);
vertWidth = 0;
width = 1157;
}
);
metricLeft = I;
metricRight = I;
},
{
color = 7;
glyphname = J.ss04;
kernLeft = J;
kernRight = J;
layers = (
{
anchors = (
{
name = bottom;
pos = (568,0);
},
{
name = top;
pos = (895,1855);
}
);
background = {
shapes = (
{
closed = 1;
nodes = (
(91,0,o),
(346,12,o),
(401,19,cs),
(790,77,o),
(867,426,o),
(942,845,cs),
(1095,1708,l),
(1456,1708,ls),
(1520,1708,o),
(1538,1745,o),
(1538,1782,cs),
(1538,1818,o),
(1520,1855,o),
(1456,1855,cs),
(597,1855,ls),
(533,1855,o),
(514,1818,o),
(514,1782,cs),
(514,1745,o),
(533,1708,o),
(597,1708,cs),
(934,1708,l),
(784,862,ls),
(726,541,o),
(679,216,o),
(410,170,cs),
(334,156,o),
(71,150,o),
(5,150,cs),
(-35,150,o),
(-76,122,o),
(-76,78,cs),
(-76,30,o),
(-35,0,o),
(5,0,cs)
);
},
{
closed = 1;
nodes = (
(-28,18,o),
(-57,41,o),
(-57,78,cs),
(-57,112,o),
(-29,131,o),
(5,131,cs),
(71,131,o),
(335,139,o),
(413,152,cs),
(695,201,o),
(744,538,o),
(801,859,cs),
(955,1727,l),
(597,1727,ls),
(545,1727,o),
(532,1751,o),
(532,1782,cs),
(532,1813,o),
(545,1837,o),
(597,1837,cs),
(1456,1837,ls),
(1507,1837,o),
(1520,1813,o),
(1520,1782,cs),
(1520,1751,o),
(1508,1727,o),
(1456,1727,cs),
(1080,1727,l),
(923,849,ls),
(848,430,o),
(774,93,o),
(398,38,cs),
(344,30,o),
(91,18,o),
(5,18,cs)
);
}
);
};
layerId = m01;
shapes = (
{
closed = 1;
nodes = (
(1040,1684,o),
(1058,1702,o),
(1058,1725,cs),
(1058,1748,o),
(1040,1767,o),
(1016,1767,cs),
(993,1767,o),
(975,1748,o),
(975,1725,cs),
(975,1702,o),
(993,1684,o),
(1016,1684,cs)
);
},
{
closed = 1;
nodes = (
(91,0,o),
(346,12,o),
(401,19,cs),
(790,77,o),
(867,426,o),
(942,845,cs),
(1121,1855,l),
(960,1855,l),
(784,862,ls),
(726,541,o),
(679,216,o),
(410,170,cs),
(334,156,o),
(71,150,o),
(5,150,cs),
(-35,150,o),
(-76,122,o),
(-76,78,cs),
(-76,30,o),
(-35,0,o),
(5,0,cs)
);
},
{
closed = 1;
nodes = (
(-28,18,o),
(-57,41,o),
(-57,78,cs),
(-57,112,o),
(-29,131,o),
(5,131,cs),
(71,131,o),
(335,139,o),
(413,152,cs),
(695,201,o),
(744,538,o),
(801,859,cs),
(975,1837,l),
(1100,1837,l),
(923,849,ls),
(848,430,o),
(774,93,o),
(398,38,cs),
(344,30,o),
(91,18,o),
(5,18,cs)
);
}
);
vertWidth = 0;
width = 1311;
},
{
anchors = (
{
name = bottom;
pos = (611,0);
},
{
name = top;
pos = (938,1855);
}
);
background = {
shapes = (
{
closed = 1;
nodes = (
(160,-18,o),
(409,-14,o),
(461,-6,cs),
(995,58,o),
(994,449,o),
(1063,835,cs),
(1195,1580,l),
(1470,1580,ls),
(1573,1580,o),
(1630,1647,o),
(1630,1731,cs),
(1630,1821,o),
(1565,1874,o),
(1472,1874,cs),
(650,1874,ls),
(553,1874,o),
(488,1818,o),
(488,1731,cs),
(488,1641,o),
(552,1580,o),
(646,1580,cs),
(867,1580,l),
(742,878,ls),
(688,576,o),
(665,317,o),
(450,290,cs),
(382,281,o),
(136,275,o),
(76,275,cs),
(-3,275,o),
(-82,213,o),
(-82,128,cs),
(-82,39,o),
(-2,-18,o),
(76,-18,cs)
);
},
{
closed = 1;
nodes = (
(12,18,o),
(-45,60,o),
(-45,128,cs),
(-45,192,o),
(13,238,o),
(76,238,cs),
(136,238,o),
(385,244,o),
(456,253,cs),
(699,284,o),
(725,570,o),
(779,872,cs),
(911,1617,l),
(646,1617,ls),
(569,1617,o),
(525,1660,o),
(525,1731,cs),
(525,1799,o),
(568,1837,o),
(650,1837,cs),
(1472,1837,ls),
(1550,1837,o),
(1593,1802,o),
(1593,1731,cs),
(1593,1662,o),
(1553,1617,o),
(1470,1617,cs),
(1163,1617,l),
(1026,843,ls),
(956,452,o),
(959,91,o),
(456,30,cs),
(406,23,o),
(160,18,o),
(76,18,cs)
);
}
);
};
layerId = "140DECC1-64C4-40C0-9C07-503DBC3F4160";
shapes = (
{
closed = 1;
nodes = (
(1064,1562,o),
(1089,1587,o),
(1089,1618,cs),
(1089,1648,o),
(1064,1673,o),
(1034,1673,cs),
(1003,1673,o),
(979,1648,o),
(979,1618,cs),
(979,1587,o),
(1003,1562,o),
(1034,1562,cs)
);
},
{
closed = 1;
nodes = (
(160,-18,o),
(409,-14,o),
(461,-6,cs),
(995,58,o),
(994,449,o),
(1063,835,cs),
(1244,1855,l),
(916,1855,l),
(742,878,ls),
(688,575,o),
(665,317,o),
(450,290,cs),
(382,281,o),
(136,275,o),
(76,275,cs),
(-3,275,o),
(-82,213,o),
(-82,128,cs),
(-82,39,o),
(-2,-18,o),
(76,-18,cs)
);
},
{
closed = 1;
nodes = (
(12,18,o),
(-45,60,o),
(-45,128,cs),
(-45,192,o),
(13,238,o),
(76,238,cs),
(136,238,o),
(385,244,o),
(456,253,cs),
(699,284,o),
(725,571,o),
(779,872,cs),
(946,1817,l),
(1199,1817,l),
(1026,843,ls),
(956,453,o),
(959,91,o),
(456,30,cs),
(406,23,o),
(160,18,o),
(76,18,cs)
);
}
);
vertWidth = 0;
width = 1397;
}
);
},
{
color = 7;
glyphname = K.ss04;
kernLeft = H;
kernRight = K;
layers = (
{
anchors = (
{
name = bottom;
pos = (663,0);
},
{
name = top;
pos = (991,1855);
}
);
layerId = m01;
shapes = (
{
closed = 1;
nodes = (
(1254,0,o),
(1295,32,o),
(1295,73,cs),
(1295,98,o),
(1283,118,o),
(1259,151,cs),
(624,993,l),
(1538,1706,ls),
(1574,1733,o),
(1594,1754,o),
(1594,1794,cs),
(1594,1821,o),
(1572,1855,o),
(1531,1855,cs),
(1504,1855,o),
(1472,1845,o),
(1437,1818,cs),
(525,1100,l),
(642,1757,ls),
(652,1812,o),
(638,1855,o),
(576,1855,cs),
(514,1855,o),
(492,1819,o),
(484,1771,cs),
(187,102,ls),
(178,54,o),
(202,0,o),
(260,0,cs),
(326,0,o),
(341,57,o),
(347,96,cs),
(492,913,l),
(1125,59,ls),
(1148,30,o),
(1173,0,o),
(1216,0,cs)
);
},
{
closed = 1;
nodes = (
(1182,18,o),
(1161,42,o),
(1140,69,cs),
(500,932,ls),
(483,955,o),
(480,954,o),
(477,931,cs),
(329,99,ls),
(322,61,o),
(312,18,o),
(260,18,cs),
(215,18,o),
(197,58,o),
(204,98,cs),
(502,1769,ls),
(509,1812,o),
(525,1837,o),
(576,1837,cs),
(624,1837,o),
(633,1810,o),
(624,1759,cs),
(505,1088,ls),
(500,1063,o),
(504,1061,o),
(529,1081,cs),
(1448,1804,ls),
(1481,1830,o),
(1508,1837,o),
(1529,1837,cs),
(1561,1837,o),
(1575,1815,o),
(1575,1794,cs),
(1575,1762,o),
(1562,1746,o),
(1527,1720,cs),
(598,997,l),
(1245,140,ls),
(1268,109,o),
(1276,93,o),
(1276,73,cs),
(1276,43,o),
(1246,18,o),
(1216,18,cs)
);
},
{
closed = 1;
nodes = (
(588,1732,o),
(606,1750,o),
(606,1773,cs),
(606,1796,o),
(588,1815,o),
(565,1815,cs),
(541,1815,o),
(523,1796,o),
(523,1773,cs),
(523,1750,o),
(541,1732,o),
(565,1732,cs)
);
}
);
vertWidth = 0;
width = 1413;
},
{
anchors = (
{
name = bottom;
pos = (710,0);
},
{
name = top;
pos = (1038,1855);
}
);
layerId = "140DECC1-64C4-40C0-9C07-503DBC3F4160";
shapes = (
{
closed = 1;
nodes = (
(1372,-18,o),
(1438,54,o),
(1438,135,cs),
(1438,176,o),
(1423,223,o),
(1402,253,cs),
(893,976,l),
(1658,1601,ls),
(1702,1637,o),
(1736,1684,o),
(1736,1745,cs),
(1736,1812,o),
(1685,1874,o),
(1590,1874,cs),
(1540,1874,o),
(1479,1857,o),
(1431,1818,cs),
(691,1213,l),
(779,1701,ls),
(802,1829,o),
(710,1874,o),
(634,1874,cs),
(554,1874,o),
(475,1833,o),
(458,1742,cs),
(177,156,ls),
(161,61,o),
(231,-18,o),
(333,-18,cs),
(430,-18,o),
(484,44,o),
(498,124,cs),
(618,799,l),
(1130,62,ls),
(1165,12,o),
(1226,-18,o),
(1284,-18,cs)
);
},
{
closed = 1;
nodes = (
(1236,18,o),
(1189,42,o),
(1161,82,cs),
(637,836,ls),
(605,882,o),
(595,880,o),
(586,827,cs),
(461,131,ls),
(449,64,o),
(411,18,o),
(333,18,cs),
(250,18,o),
(200,75,o),
(214,151,cs),
(495,1734,ls),
(508,1807,o),
(565,1837,o),
(634,1837,cs),
(698,1837,o),
(759,1806,o),
(742,1707,cs),
(649,1188,ls),
(639,1134,o),
(645,1126,o),
(703,1174,cs),
(1455,1788,ls),
(1497,1822,o),
(1547,1837,o),
(1590,1837,cs),
(1666,1837,o),
(1699,1796,o),
(1699,1745,cs),
(1699,1698,o),
(1674,1662,o),
(1634,1629,cs),
(844,983,l),
(1370,233,ls),
(1389,206,o),
(1401,169,o),
(1401,135,cs),
(1401,70,o),
(1354,18,o),
(1284,18,cs)
);
},
{
closed = 1;
nodes = (
(648,1681,o),
(673,1706,o),
(673,1736,cs),
(673,1767,o),
(648,1792,o),
(617,1792,cs),
(587,1792,o),
(562,1767,o),
(562,1736,cs),
(562,1706,o),
(587,1681,o),
(617,1681,cs)
);
}
);
vertWidth = 0;
width = 1551;
}
);
metricLeft = K;
metricRight = K;
},
{
color = 7;
glyphname = L.ss04;
kernLeft = H;
kernRight = L;
layers = (
{
anchors = (
{
name = bottom;
pos = (668,0);
},
{
name = center;
pos = (832,928);
},
{
name = top;
pos = (995,1855);
},
{
name = topright;
pos = (1646,1855);
}
);
layerId = m01;
shapes = (
{
closed = 1;
nodes = (
(1212,0,ls),
(1271,0,o),
(1295,46,o),
(1295,83,cs),
(1295,122,o),
(1269,150,o),
(1212,150,cs),
(359,150,l),
(643,1757,ls),
(652,1811,o),
(642,1855,o),
(577,1855,cs),
(514,1855,o),
(490,1819,o),
(481,1772,cs),
(187,87,ls),
(178,39,o),
(204,0,o),
(260,0,cs)
);
},
{
closed = 1;
nodes = (
(215,18,o),
(199,44,o),
(205,83,cs),
(499,1769,ls),
(506,1813,o),
(525,1837,o),
(577,1837,cs),
(626,1837,o),
(634,1810,o),
(625,1759,cs),
(336,131,l),
(1212,131,ls),
(1260,131,o),
(1276,113,o),
(1276,83,cs),
(1276,52,o),
(1258,18,o),
(1212,18,cs),
(260,18,ls)
);
},
{
closed = 1;
nodes = (
(590,1732,o),
(608,1750,o),
(608,1773,cs),
(608,1796,o),
(590,1815,o),
(566,1815,cs),
(543,1815,o),
(525,1796,o),
(525,1773,cs),
(525,1750,o),
(543,1732,o),
(566,1732,cs)
);
}
);
vertWidth = 0;
width = 1378;
},
{
anchors = (
{
name = bottom;
pos = (720,0);
},
{
name = center;
pos = (883,928);
},
{
name = top;
pos = (1047,1855);
},
{
name = topright;
pos = (1767,1855);
}
);
layerId = "140DECC1-64C4-40C0-9C07-503DBC3F4160";
shapes = (
{
closed = 1;
nodes = (
(1306,-18,ls),
(1403,-18,o),
(1469,54,o),
(1469,132,cs),
(1469,210,o),
(1403,275,o),
(1306,275,cs),
(530,275,l),
(784,1701,ls),
(808,1836,o),
(724,1874,o),
(646,1874,cs),
(554,1874,o),
(478,1833,o),
(461,1742,cs),
(177,142,ls),
(162,52,o),
(224,-18,o),
(319,-18,cs)
);
},
{
closed = 1;
nodes = (
(243,18,o),
(201,66,o),
(214,137,cs),
(498,1734,ls),
(511,1807,o),
(565,1837,o),
(646,1837,cs),
(714,1837,o),
(766,1813,o),
(747,1707,cs),
(486,238,l),
(1306,238,ls),
(1385,238,o),
(1432,192,o),
(1432,132,cs),
(1432,70,o),
(1384,18,o),
(1306,18,cs),
(319,18,ls)
);
},
{
closed = 1;
nodes = (
(655,1681,o),
(680,1706,o),
(680,1736,cs),
(680,1767,o),
(655,1792,o),
(625,1792,cs),
(594,1792,o),
(569,1767,o),
(569,1736,cs),
(569,1706,o),
(594,1681,o),
(625,1681,cs)
);
}
);
vertWidth = 0;
width = 1497;
}
);
metricLeft = L;
metricRight = L;
},
{
color = 7;
glyphname = M.ss04;
kernLeft = M;
kernRight = M;
layers = (
{
anchors = (
{
name = bottom;
pos = (1111,0);
},
{
name = top;
pos = (1439,1855);
}
);
layerId = m01;
shapes = (
{
closed = 1;
nodes = (
(103,0,o),
(143,23,o),
(171,77,cs),
(925,1538,l),
(1034,77,ls),
(1036,47,o),
(1051,0,o),
(1122,0,cs),
(1183,0,o),
(1207,53,o),
(1218,74,cs),
(1976,1542,l),
(2088,78,ls),
(2091,47,o),
(2107,0,o),
(2174,0,cs),
(2225,0,o),
(2251,36,o),
(2247,84,cs),
(2108,1768,ls),
(2105,1816,o),
(2095,1855,o),
(2028,1855,cs),
(1961,1855,o),
(1941,1807,o),
(1925,1776,cs),
(1168,304,l),
(1055,1795,ls),
(1053,1818,o),
(1033,1855,o),
(975,1855,cs),
(921,1855,o),
(900,1819,o),
(880,1781,cs),
(14,120,ls),
(-24,47,o),
(19,0,o),
(71,0,cs)
);
},
{
closed = 1;
nodes = (
(29,18,o),
(-1,52,o),
(30,112,cs),
(896,1773,ls),
(916,1810,o),
(932,1837,o),
(975,1837,cs),
(1021,1837,o),
(1035,1812,o),
(1037,1793,cs),
(1150,286,ls),
(1153,248,o),
(1160,249,o),
(1178,285,cs),
(1941,1768,ls),
(1958,1799,o),
(1973,1837,o),
(2028,1837,cs),
(2081,1837,o),
(2086,1812,o),
(2090,1767,cs),
(2229,82,ls),
(2231,43,o),
(2214,18,o),
(2174,18,cs),
(2121,18,o),
(2108,52,o),
(2107,79,cs),
(1994,1561,ls),
(1991,1598,o),
(1987,1600,o),
(1966,1562,cs),
(1201,82,ls),
(1190,61,o),
(1171,18,o),
(1122,18,cs),
(1064,18,o),
(1054,51,o),
(1052,79,cs),
(941,1555,ls),
(939,1588,o),
(930,1590,o),
(910,1550,cs),
(155,85,ls),
(130,36,o),
(99,18,o),
(71,18,cs)
);
},
{
closed = 1;
nodes = (
(101,35,o),
(119,54,o),
(119,77,cs),
(119,100,o),
(101,118,o),
(78,118,cs),
(54,118,o),
(36,100,o),
(36,77,cs),
(36,54,o),
(54,35,o),
(78,35,cs)
);
}
);
vertWidth = 0;
width = 2432;
},
{
anchors = (
{
name = bottom;
pos = (1163,0);
},
{
name = top;
pos = (1490,1855);
}
);
layerId = "140DECC1-64C4-40C0-9C07-503DBC3F4160";
shapes = (
{
closed = 1;
nodes = (
(240,-18,o),
(327,10,o),
(365,85,cs),
(934,1201,l),
(1017,114,ls),
(1023,41,o),
(1081,-18,o),
(1177,-18,cs),
(1302,-18,o),
(1335,46,o),
(1353,80,cs),
(1931,1204,l),
(2010,115,ls),
(2014,44,o),
(2084,-18,o),
(2182,-18,cs),
(2274,-18,o),
(2338,48,o),
(2330,134,cs),
(2200,1733,ls),
(2193,1818,o),
(2171,1874,o),
(2057,1874,cs),
(1965,1874,o),
(1910,1836,o),
(1875,1768,cs),
(1286,629,l),
(1206,1732,ls),
(1199,1821,o),
(1160,1874,o),
(1031,1874,cs),
(943,1874,o),
(913,1833,o),
(880,1770,cs),
(55,191,ls),
(-2,81,o),
(85,-18,o),
(182,-18,cs)
);
},
{
closed = 1;
nodes = (
(106,18,o),
(43,88,o),
(89,175,cs),
(913,1754,ls),
(943,1812,o),
(963,1837,o),
(1031,1837,cs),
(1139,1837,o),
(1163,1805,o),
(1169,1730,cs),
(1252,586,ls),
(1258,510,o),
(1265,510,o),
(1305,586,cs),
(1908,1751,ls),
(1938,1808,o),
(1978,1837,o),
(2057,1837,cs),
(2146,1837,o),
(2157,1807,o),
(2163,1729,cs),
(2293,130,ls),
(2299,64,o),
(2256,18,o),
(2182,18,cs),
(2100,18,o),
(2050,64,o),
(2047,116,cs),
(1964,1259,ls),
(1960,1328,o),
(1954,1328,o),
(1916,1255,cs),
(1319,97,ls),
(1303,64,o),
(1279,18,o),
(1177,18,cs),
(1100,18,o),
(1059,59,o),
(1054,117,cs),
(968,1251,ls),
(963,1324,o),
(956,1323,o),
(919,1251,cs),
(332,102,ls),
(301,42,o),
(233,18,o),
(182,18,cs)
);
},
{
closed = 1;
nodes = (
(218,65,o),
(243,90,o),
(243,120,cs),
(243,151,o),
(218,176,o),
(188,176,cs),
(157,176,o),
(132,151,o),
(132,120,cs),
(132,90,o),
(157,65,o),
(188,65,cs)
);
}
);
vertWidth = 0;
width = 2484;
}
);
metricLeft = M;
metricRight = M;
},
{
color = 7;
glyphname = N.ss04;
kernLeft = H;
kernRight = H;
layers = (
{
anchors = (
{
name = bottom;
pos = (726,0);
},
{
name = top;
pos = (1053,1855);
}
);
layerId = m01;
shapes = (
{
closed = 1;
nodes = (
(329,0,o),
(341,52,o),
(347,87,cs),
(599,1521,l),
(1134,56,ls),
(1145,27,o),
(1173,0,o),
(1218,0,cs),
(1285,0,o),
(1292,51,o),
(1296,79,cs),
(1591,1757,ls),
(1600,1811,o),
(1590,1855,o),
(1527,1855,cs),
(1467,1855,o),
(1443,1819,o),
(1435,1771,cs),
(1185,359,l),
(671,1793,ls),
(661,1820,o),
(628,1855,o),
(573,1855,cs),
(507,1855,o),
(490,1818,o),
(481,1772,cs),
(187,87,ls),
(178,39,o),
(204,0,o),
(260,0,cs)
);
},
{
closed = 1;
nodes = (
(214,18,o),
(198,44,o),
(204,83,cs),
(499,1769,ls),
(506,1813,o),
(520,1837,o),
(573,1837,cs),
(620,1837,o),
(645,1810,o),
(653,1786,cs),
(1175,329,ls),
(1186,298,o),
(1192,298,o),
(1198,329,cs),
(1453,1769,ls),
(1461,1811,o),
(1478,1837,o),
(1527,1837,cs),
(1574,1837,o),
(1583,1810,o),
(1574,1759,cs),
(1279,82,ls),
(1274,54,o),
(1270,18,o),
(1218,18,cs),
(1182,18,o),
(1161,38,o),
(1151,63,cs),
(608,1549,ls),
(596,1582,o),
(590,1582,o),
(585,1549,cs),
(329,90,ls),
(323,55,o),
(315,18,o),
(260,18,cs)
);
},
{
closed = 1;
nodes = (
(286,35,o),
(305,54,o),
(305,77,cs),
(305,100,o),
(286,118,o),
(263,118,cs),
(240,118,o),
(222,100,o),
(222,77,cs),
(222,54,o),
(240,35,o),
(263,35,cs)
);
}
);
vertWidth = 0;
width = 1631;
},
{
anchors = (
{
name = bottom;
pos = (790,0);
},
{
name = top;
pos = (1117,1855);
}
);
layerId = "140DECC1-64C4-40C0-9C07-503DBC3F4160";
shapes = (
{
closed = 1;
nodes = (
(423,-18,o),
(488,44,o),
(500,117,cs),
(677,1192,l),
(1148,72,ls),
(1172,14,o),
(1221,-18,o),
(1301,-18,cs),
(1410,-18,o),
(1443,48,o),
(1454,112,cs),
(1733,1700,ls),
(1751,1802,o),
(1698,1883,o),
(1592,1883,cs),
(1504,1883,o),
(1429,1832,o),
(1415,1741,cs),
(1236,656,l),
(765,1779,ls),
(736,1848,o),
(678,1874,o),
(613,1874,cs),
(533,1874,o),
(477,1829,o),
(461,1741,cs),
(177,143,ls),
(161,52,o),
(225,-18,o),
(318,-18,cs)
);
},
{
closed = 1;
nodes = (
(245,18,o),
(202,66,o),
(214,136,cs),
(498,1735,ls),
(511,1806,o),
(548,1837,o),
(613,1837,cs),
(667,1837,o),
(709,1818,o),
(732,1764,cs),
(1218,602,ls),
(1247,532,o),
(1253,532,o),
(1265,607,cs),
(1452,1735,ls),
(1464,1808,o),
(1518,1846,o),
(1592,1846,cs),
(1675,1846,o),
(1711,1792,o),
(1696,1708,cs),
(1417,119,ls),
(1407,61,o),
(1385,18,o),
(1301,18,cs),
(1234,18,o),
(1200,40,o),
(1181,87,cs),
(696,1246,ls),
(667,1314,o),
(661,1313,o),
(649,1242,cs),
(463,123,ls),
(454,65,o),
(406,18,o),
(318,18,cs)
);
},
{
closed = 1;
nodes = (
(361,65,o),
(386,90,o),
(386,120,cs),
(386,151,o),
(361,176,o),
(331,176,cs),
(300,176,o),
(275,151,o),
(275,120,cs),
(275,90,o),
(300,65,o),
(331,65,cs)
);
}
);
vertWidth = 0;
width = 1782;
}
);
metricLeft = N;
metricRight = N;
},
{
color = 7;
glyphname = O.ss04;
kernLeft = O;
kernRight = O;
layers = (
{
anchors = (
{
name = bottom;
pos = (695,0);
},
{
name = center;
pos = (858,928);
},
{
name = ogonek;
pos = (1301,9);
},
{
name = top;
pos = (1022,1855);
},
{
name = topleft;
pos = (284,1855);
},
{
name = topright;
pos = (1760,1855);
}
);
layerId = m01;
shapes = (
{
closed = 1;
nodes = (
(1235,0,o),
(1455,730,o),
(1521,1101,cs),
(1605,1571,o),
(1452,1855,o),
(1042,1855,cs),
(534,1855,o),
(316,1333,o),
(249,942,cs),
(170,480,o),
(247,0,o),
(744,0,cs)
);
},
{
closed = 1;
nodes = (
(262,18,o),
(188,480,o),
(267,938,cs),
(334,1328,o),
(546,1837,o),
(1042,1837,cs),
(1440,1837,o),
(1586,1566,o),
(1502,1105,cs),
(1438,735,o),
(1222,18,o),
(744,18,cs)
);
},
{
closed = 1;
nodes = (
(346,579,o),
(373,150,o),
(741,150,cs),
(1063,150,o),
(1307,778,o),
(1362,1088,cs),
(1419,1408,o),
(1396,1708,o),
(1028,1708,cs),
(624,1708,o),
(449,1154,o),
(405,909,cs)
);
},
{
closed = 1;
nodes = (
(432,1159,o),
(610,1727,o),
(1028,1727,cs),
(1414,1727,o),
(1438,1408,o),
(1380,1086,cs),
(1325,772,o),
(1076,131,o),
(741,131,cs),
(356,131,o),
(327,580,o),
(387,913,cs)
);
},
{
closed = 1;
nodes = (
(1361,1644,o),
(1380,1662,o),
(1380,1685,cs),
(1380,1708,o),
(1361,1727,o),
(1338,1727,cs),
(1315,1727,o),
(1296,1708,o),
(1296,1685,cs),
(1296,1662,o),
(1315,1644,o),
(1338,1644,cs)
);
}
);
vertWidth = 0;
width = 1562;
},
{
anchors = (
{
name = bottom;
pos = (748,0);
},
{
name = center;
pos = (911,928);
},
{
name = ogonek;
pos = (1421,9);
},
{
name = top;
pos = (1075,1855);
},
{
name = topleft;
pos = (252,1855);
},
{
name = topright;
pos = (1897,1855);
}
);
layerId = "140DECC1-64C4-40C0-9C07-503DBC3F4160";
shapes = (
{
closed = 1;
nodes = (
(1234,-18,o),
(1561,413,o),
(1684,1102,cs),
(1766,1580,o),
(1609,1874,o),
(1119,1874,cs),
(643,1874,o),
(346,1559,o),
(236,942,cs),
(132,353,o),
(354,-18,o),
(816,-18,cs)
);
},
{
closed = 1;
nodes = (
(377,18,o),
(172,364,o),
(273,937,cs),
(380,1539,o),
(662,1837,o),
(1119,1837,cs),
(1584,1837,o),
(1727,1572,o),
(1647,1108,cs),
(1526,431,o),
(1213,18,o),
(816,18,cs)
);
},
{
closed = 1;
nodes = (
(485,506,o),
(583,275,o),
(814,275,cs),
(1064,275,o),
(1272,582,o),
(1360,1091,cs),
(1417,1413,o),
(1395,1580,o),
(1104,1580,cs),
(818,1580,o),
(637,1359,o),
(553,908,cs)
);
},
{
closed = 1;
nodes = (
(602,1378,o),
(798,1617,o),
(1104,1617,cs),
(1429,1617,o),
(1455,1416,o),
(1397,1086,cs),
(1307,565,o),
(1086,238,o),
(814,238,cs),
(557,238,o),
(446,499,o),
(517,914,cs)
);
},
{
closed = 1;
nodes = (
(1432,1603,o),
(1457,1628,o),
(1457,1659,cs),
(1457,1689,o),
(1432,1714,o),
(1402,1714,cs),
(1371,1714,o),
(1346,1689,o),
(1346,1659,cs),
(1346,1628,o),
(1371,1603,o),
(1402,1603,cs)
);
}
);
vertWidth = 0;
width = 1676;
}
);
metricLeft = O;
metricRight = O;
},
{
color = 7;
glyphname = P.ss04;
kernLeft = H;
kernRight = P;
layers = (
{
anchors = (
{
name = bottom;
pos = (645,0);
},
{
name = top;
pos = (972,1855);
}
);
layerId = m01;
shapes = (
{
closed = 1;
nodes = (
(330,0,o),
(340,51,o),
(345,79,cs),
(494,923,l),
(1051,928,o),
(1476,990,o),
(1527,1380,cs),
(1571,1706,o),
(1190,1855,o),
(579,1855,cs),
(511,1855,o),
(492,1819,o),
(484,1772,cs),
(187,87,ls),
(178,39,o),
(204,0,o),
(261,0,cs)
);
},
{
closed = 1;
nodes = (
(215,18,o),
(199,44,o),
(205,83,cs),
(503,1769,ls),
(510,1812,o),
(523,1837,o),
(579,1837,cs),
(1185,1837,o),
(1550,1693,o),
(1509,1382,cs),
(1459,1003,o),
(1040,945,o),
(480,941,c),
(327,82,ls),
(322,54,o),
(315,18,o),
(261,18,cs)
);
},
{
closed = 1;
nodes = (
(973,1078,o),
(1337,1137,o),
(1369,1397,cs),
(1392,1576,o),
(1184,1700,o),
(633,1708,c),
(521,1072,l)
);
},
{
closed = 1;
nodes = (
(617,1727,l),
(1186,1721,o),
(1410,1589,o),
(1386,1394,cs),
(1353,1114,o),
(963,1058,o),
(499,1053,c)
);
},
{
closed = 1;
nodes = (
(593,1732,o),
(612,1750,o),
(612,1773,cs),
(612,1796,o),
(593,1815,o),
(570,1815,cs),
(547,1815,o),
(529,1796,o),
(529,1773,cs),
(529,1750,o),
(547,1732,o),
(570,1732,cs)
);
}
);
vertWidth = 0;
width = 1475;
},
{
anchors = (
{
name = bottom;
pos = (733,0);
},
{
name = top;
pos = (1060,1855);
}
);
layerId = "140DECC1-64C4-40C0-9C07-503DBC3F4160";
shapes = (
{
closed = 1;
nodes = (
(437,-18,o),
(491,38,o),
(503,107,cs),
(628,825,l),
(1132,838,o),
(1602,850,o),
(1671,1331,cs),
(1728,1733,o),
(1335,1874,o),
(630,1874,cs),
(536,1874,o),
(476,1832,o),
(460,1742,cs),
(177,140,ls),
(162,52,o),
(225,-18,o),
(330,-18,cs)
);
},
{
closed = 1;
nodes = (
(245,18,o),
(202,66,o),
(214,133,cs),
(497,1734,ls),
(510,1808,o),
(550,1837,o),
(630,1837,cs),
(1326,1837,o),
(1687,1707,o),
(1634,1337,cs),
(1569,874,o),
(1109,872,o),
(597,862,c),
(466,115,ls),
(455,56,o),
(417,18,o),
(330,18,cs)
);
},
{
closed = 1;
nodes = (
(1048,1136,o),
(1331,1137,o),
(1357,1350,cs),
(1378,1514,o),
(1315,1586,o),
(762,1587,c),
(680,1121,l)
);
},
{
closed = 1;
nodes = (
(731,1623,l),
(1334,1625,o),
(1417,1532,o),
(1394,1346,cs),
(1364,1096,o),
(1028,1093,o),
(636,1082,c)
);
},
{
closed = 1;
nodes = (
(632,1681,o),
(657,1706,o),
(657,1736,cs),
(657,1767,o),
(632,1792,o),
(601,1792,cs),
(571,1792,o),
(546,1767,o),
(546,1736,cs),
(546,1706,o),
(571,1681,o),
(601,1681,cs)
);
}
);
vertWidth = 0;
width = 1566;
}
);
metricLeft = P;
metricRight = P;
},
{
color = 7;
glyphname = Q.ss04;
kernLeft = O;
kernRight = Q;
layers = (
{
anchors = (
{
name = bottom;
pos = (668,0);
},
{
name = top;
pos = (995,1855);
}
);
layerId = m01;
shapes = (
{
closed = 1;
nodes = (
(794,-1,o),
(866,18,o),
(930,49,c),
(1079,-168,ls),
(1111,-213,o),
(1161,-241,o),
(1201,-216,cs),
(1247,-191,o),
(1247,-130,o),
(1221,-93,cs),
(1061,140,l),
(1317,370,o),
(1447,830,o),
(1494,1100,cs),
(1578,1570,o),
(1425,1854,o),
(1015,1854,cs),
(507,1854,o),
(289,1332,o),
(222,940,cs),
(143,479,o),
(220,-1,o),
(717,-1,cs)
);
},
{
closed = 1;
nodes = (
(236,18,o),
(162,480,o),
(240,937,cs),
(307,1327,o),
(519,1836,o),
(1015,1836,cs),
(1413,1836,o),
(1559,1565,o),
(1476,1104,cs),
(1429,830,o),
(1296,365,o),
(1037,142,c),
(1206,-104,ls),
(1228,-135,o),
(1228,-181,o),
(1192,-201,cs),
(1161,-219,o),
(1123,-199,o),
(1095,-158,cs),
(935,73,l),
(869,37,o),
(796,18,o),
(717,18,cs)
);
},
{
closed = 1;
nodes = (
(319,578,o),
(347,148,o),
(714,148,cs),
(758,148,o),
(799,160,o),
(840,180,c),
(785,260,ls),
(752,308,o),
(747,347,o),
(784,377,cs),
(829,414,o),
(885,394,o),
(917,349,cs),
(966,278,l),
(1160,480,o),
(1296,866,o),
(1335,1088,cs),
(1392,1407,o),
(1369,1708,o),
(1002,1708,cs),
(597,1708,o),
(422,1153,o),
(378,908,cs)
);
},
{
closed = 1;
nodes = (
(405,1158,o),
(583,1726,o),
(1002,1726,cs),
(1387,1726,o),
(1411,1407,o),
(1353,1084,cs),
(1313,856,o),
(1168,449,o),
(963,249,c),
(901,338,ls),
(874,377,o),
(832,393,o),
(796,362,cs),
(767,340,o),
(771,313,o),
(800,271,cs),
(866,175,l),
(819,146,o),
(767,129,o),
(714,129,cs),
(329,129,o),
(300,578,o),
(360,912,cs)
);
},
{
closed = 1;
nodes = (
(1334,1644,o),
(1353,1662,o),
(1353,1685,cs),
(1353,1708,o),
(1334,1727,o),
(1311,1727,cs),
(1288,1727,o),
(1270,1708,o),
(1270,1685,cs),
(1270,1662,o),
(1288,1644,o),
(1311,1644,cs)
);
}
);
vertWidth = 0;
width = 1510;
},
{
anchors = (
{
name = bottom;
pos = (753,0);
},
{
name = top;
pos = (1080,1855);
}
);
layerId = "140DECC1-64C4-40C0-9C07-503DBC3F4160";
shapes = (
{
closed = 1;
nodes = (
(882,-18,o),
(942,-9,o),
(1000,8,c),
(1109,-152,ls),
(1165,-237,o),
(1265,-264,o),
(1337,-217,cs),
(1410,-171,o),
(1427,-78,o),
(1376,-2,cs),
(1261,167,l),
(1463,356,o),
(1614,681,o),
(1689,1102,cs),
(1771,1580,o),
(1614,1874,o),
(1125,1874,cs),
(649,1874,o),
(351,1559,o),
(241,942,cs),
(138,353,o),
(359,-18,o),
(821,-18,cs)
);
},
{
closed = 1;
nodes = (
(383,18,o),
(177,364,o),
(278,937,cs),
(385,1539,o),
(667,1837,o),
(1125,1837,cs),
(1589,1837,o),
(1733,1572,o),
(1652,1108,cs),
(1575,676,o),
(1420,353,o),
(1213,173,c),
(1344,-22,ls),
(1386,-84,o),
(1375,-150,o),
(1317,-186,cs),
(1261,-223,o),
(1187,-203,o),
(1140,-131,cs),
(1015,53,l),
(952,30,o),
(888,18,o),
(821,18,cs)
);
},
{
closed = 1;
nodes = (
(491,506,o),
(589,275,o),
(820,275,cs),
(819,275,o),
(819,275,o),
(818,275,c),
(809,288,ls),
(759,362,o),
(772,461,o),
(842,510,cs),
(914,562,o),
(1015,535,o),
(1071,450,cs),
(1093,417,l),
(1217,555,o),
(1313,786,o),
(1366,1091,cs),
(1423,1413,o),
(1401,1580,o),
(1110,1580,cs),
(823,1580,o),
(642,1359,o),
(559,908,cs)
);
},
{
closed = 1;
nodes = (
(608,1378,o),
(804,1617,o),
(1110,1617,cs),
(1434,1617,o),
(1461,1416,o),
(1403,1086,cs),
(1344,750,o),
(1232,496,o),
(1088,359,c),
(1040,430,ls),
(992,501,o),
(919,520,o),
(864,480,cs),
(809,442,o),
(798,370,o),
(839,309,cs),
(886,242,l),
(862,242,o),
(843,238,o),
(820,238,cs),
(563,238,o),
(452,499,o),
(522,914,cs)
);
},
{
closed = 1;
nodes = (
(1438,1603,o),
(1463,1628,o),
(1463,1659,cs),
(1463,1689,o),
(1438,1714,o),
(1407,1714,cs),
(1377,1714,o),
(1352,1689,o),
(1352,1659,cs),
(1352,1628,o),
(1377,1603,o),
(1407,1603,cs)
);
}
);
vertWidth = 0;
width = 1682;
}
);
metricLeft = Q;
metricRight = Q;
},
{
color = 7;
glyphname = R.ss04;
kernLeft = H;
kernRight = R;
layers = (
{
anchors = (
{
name = bottom;
pos = (654,0);
},
{
name = top;
pos = (981,1855);
}
);
layerId = m01;
shapes = (
{
closed = 1;
nodes = (
(327,0,o),
(337,52,o),
(345,95,cs),
(485,883,l),
(1138,54,ls),
(1169,15,o),
(1199,0,o),
(1224,0,cs),
(1292,0,o),
(1320,74,o),
(1257,155,cs),
(651,926,l),
(1114,944,o),
(1479,1034,o),
(1525,1379,cs),
(1567,1705,o),
(1198,1855,o),
(577,1855,cs),
(508,1855,o),
(490,1819,o),
(481,1772,cs),
(187,103,ls),
(177,52,o),
(201,0,o),
(258,0,cs)
);
},
{
closed = 1;
nodes = (
(213,18,o),
(198,55,o),
(205,100,cs),
(500,1769,ls),
(507,1812,o),
(520,1837,o),
(577,1837,cs),
(1191,1837,o),
(1546,1693,o),
(1506,1382,cs),
(1463,1046,o),
(1106,962,o),
(641,944,cs),
(618,943,o),
(616,938,o),
(629,921,cs),
(1243,143,ls),
(1298,73,o),
(1278,18,o),
(1224,18,cs),
(1205,18,o),
(1180,30,o),
(1152,66,cs),
(494,897,ls),
(475,921,o),
(472,919,o),
(468,893,cs),
(327,99,ls),
(320,56,o),
(312,18,o),
(258,18,cs)
);
},
{
closed = 1;
nodes = (
(967,1078,o),
(1332,1140,o),
(1367,1396,cs),
(1391,1580,o),
(1146,1700,o),
(630,1708,c),
(518,1072,l)
);
},
{
closed = 1;
nodes = (
(614,1727,l),
(1148,1721,o),
(1410,1594,o),
(1384,1393,cs),
(1348,1118,o),
(957,1058,o),
(496,1053,c)
);
},
{
closed = 1;
nodes = (
(590,1732,o),
(609,1750,o),
(609,1773,cs),
(609,1796,o),
(590,1815,o),
(567,1815,cs),
(544,1815,o),
(526,1796,o),
(526,1773,cs),
(526,1750,o),
(544,1732,o),
(567,1732,cs)
);
}
);
vertWidth = 0;
width = 1528;
},
{
anchors = (
{
name = bottom;
pos = (710,0);
},
{
name = top;
pos = (1038,1855);
}
);
layerId = "140DECC1-64C4-40C0-9C07-503DBC3F4160";
shapes = (
{
closed = 1;
nodes = (
(405,-18,o),
(487,53,o),
(504,149,cs),
(608,745,l),
(1139,53,ls),
(1189,-13,o),
(1261,-18,o),
(1299,-18,cs),
(1405,-18,o),
(1503,111,o),
(1383,267,cs),
(941,845,l),
(1313,890,o),
(1611,1021,o),
(1672,1361,cs),
(1739,1733,o),
(1331,1874,o),
(631,1874,cs),
(535,1874,o),
(472,1832,o),
(456,1742,cs),
(178,156,ls),
(163,65,o),
(201,-18,o),
(307,-18,cs)
);
},
{
closed = 1;
nodes = (
(227,18,o),
(201,72,o),
(215,151,cs),
(493,1734,ls),
(506,1808,o),
(548,1837,o),
(631,1837,cs),
(1323,1837,o),
(1695,1708,o),
(1635,1368,cs),
(1577,1039,o),
(1288,920,o),
(912,879,cs),
(873,874,o),
(869,869,o),
(898,833,cs),
(1355,243,ls),
(1457,112,o),
(1382,18,o),
(1299,18,cs),
(1265,18,o),
(1208,24,o),
(1167,77,cs),
(628,775,ls),
(590,824,o),
(587,821,o),
(577,771,cs),
(468,154,ls),
(455,74,o),
(389,18,o),
(307,18,cs)
);
},
{
closed = 1;
nodes = (
(1051,1135,o),
(1329,1202,o),
(1358,1374,cs),
(1380,1506,o),
(1247,1580,o),
(758,1580,c),
(676,1121,l)
);
},
{
closed = 1;
nodes = (
(726,1617,l),
(1255,1621,o),
(1424,1533,o),
(1395,1368,cs),
(1359,1161,o),
(1034,1092,o),
(632,1082,c)
);
},
{
closed = 1;
nodes = (
(628,1681,o),
(653,1706,o),
(653,1736,cs),
(653,1767,o),
(628,1792,o),
(598,1792,cs),
(567,1792,o),
(542,1767,o),
(542,1736,cs),
(542,1706,o),
(567,1681,o),
(598,1681,cs)
);
}
);
vertWidth = 0;
width = 1586;
}
);
metricLeft = R;
metricRight = R;
},
{
color = 7;
glyphname = S.ss04;
kernLeft = S;
kernRight = S;
layers = (
{
anchors = (
{
name = bottom;
pos = (419,0);
},
{
name = top;
pos = (746,1855);
}
);
layerId = m01;
shapes = (
{
closed = 1;
nodes = (
(725,-18,o),
(1009,232,o),
(1009,521,cs),
(1009,759,o),
(871,925,o),
(690,1043,cs),
(602,1100,ls),
(411,1225,o),
(335,1316,o),
(335,1428,cs),
(335,1640,o),
(566,1708,o),
(868,1708,cs),
(1112,1708,ls),
(1153,1708,o),
(1186,1735,o),
(1186,1783,cs),
(1186,1855,o),
(1120,1855,o),
(1110,1855,cs),
(845,1855,ls),
(432,1855,o),
(168,1694,o),
(168,1418,cs),
(168,1268,o),
(276,1121,o),
(460,997,cs),
(550,937,ls),
(721,822,o),
(844,698,o),
(844,519,cs),
(844,305,o),
(640,132,o),
(248,132,cs),
(2,132,ls),
(-41,132,o),
(-77,102,o),
(-77,54,cs),
(-77,-18,o),
(-5,-18,o),
(2,-18,cs),
(230,-18,ls)
);
},
{
closed = 1;
nodes = (
(2,0,ls),
(-5,0,o),
(-58,0,o),
(-58,54,cs),
(-58,91,o),
(-32,114,o),
(2,114,cs),
(248,114,ls),
(649,114,o),
(862,295,o),
(862,519,cs),
(862,706,o),
(732,837,o),
(561,952,cs),
(471,1012,ls),
(290,1134,o),
(187,1274,o),
(187,1418,cs),
(187,1683,o),
(438,1837,o),
(845,1837,cs),
(1110,1837,ls),
(1120,1837,o),
(1168,1837,o),
(1168,1783,cs),
(1168,1745,o),
(1145,1726,o),
(1112,1726,cs),
(868,1726,ls),
(562,1726,o),
(317,1654,o),
(317,1428,cs),
(317,1308,o),
(400,1214,o),
(593,1086,cs),
(679,1028,ls),
(857,909,o),
(991,751,o),
(991,521,cs),
(991,242,o),
(717,0,o),
(230,0,cs)
);
},
{
closed = 1;
nodes = (
(1130,1745,o),
(1146,1761,o),
(1146,1781,cs),
(1146,1802,o),
(1130,1818,o),
(1110,1818,cs),
(1089,1818,o),
(1074,1802,o),
(1074,1781,cs),
(1074,1761,o),
(1089,1745,o),
(1110,1745,cs)
);
}
);
vertWidth = 0;
width = 1012;
},
{
anchors = (
{
name = bottom;
pos = (503,0);
},
{
name = top;
pos = (830,1855);
}
);
layerId = "140DECC1-64C4-40C0-9C07-503DBC3F4160";
shapes = (
{
closed = 1;
nodes = (
(669,-18,o),
(1174,127,o),
(1174,548,cs),
(1174,817,o),
(973,961,o),
(796,1096,cs),
(742,1137,ls),
(572,1267,o),
(485,1321,o),
(485,1392,cs),
(485,1492,o),
(672,1559,o),
(857,1559,cs),
(1237,1559,ls),
(1322,1559,o),
(1391,1627,o),
(1391,1709,cs),
(1391,1828,o),
(1290,1855,o),
(1235,1855,cs),
(860,1855,ls),
(470,1855,o),
(164,1653,o),
(164,1380,cs),
(164,1162,o),
(347,1046,o),
(540,910,cs),
(600,868,ls),
(779,741,o),
(851,663,o),
(851,548,cs),
(851,344,o),
(546,278,o),
(382,278,cs),
(91,278,ls),
(6,278,o),
(-64,207,o),
(-64,125,cs),
(-64,9,o),
(46,-18,o),
(91,-18,cs),
(382,-18,ls)
);
},
{
closed = 1;
nodes = (
(91,18,ls),
(53,18,o),
(-27,39,o),
(-27,125,cs),
(-27,189,o),
(24,241,o),
(91,241,cs),
(382,241,ls),
(553,241,o),
(888,313,o),
(888,548,cs),
(888,679,o),
(804,768,o),
(622,897,cs),
(562,940,ls),
(367,1077,o),
(201,1183,o),
(201,1380,cs),
(201,1632,o),
(484,1818,o),
(860,1818,cs),
(1235,1818,ls),
(1283,1818,o),
(1354,1799,o),
(1354,1709,cs),
(1354,1645,o),
(1305,1596,o),
(1237,1596,cs),
(857,1596,ls),
(662,1596,o),
(448,1519,o),
(448,1392,cs),
(448,1302,o),
(549,1238,o),
(720,1108,cs),
(774,1066,ls),
(951,931,o),
(1137,798,o),
(1137,548,cs),
(1137,155,o),
(661,18,o),
(382,18,cs)
);
},
{
closed = 1;
nodes = (
(1266,1656,o),
(1291,1681,o),
(1291,1711,cs),
(1291,1742,o),
(1266,1767,o),
(1235,1767,cs),
(1205,1767,o),
(1180,1742,o),
(1180,1711,cs),
(1180,1681,o),
(1205,1656,o),
(1235,1656,cs)
);
}
);
vertWidth = 0;
width = 1180;
},
{
associatedMasterId = m01;
layerId = "A440414B-586A-40A5-AE6A-EB7CED442D21";
name = background;
shapes = (
{
closed = 1;
nodes = (
(217,0,o),
(381,55,o),
(381,202,cs),
(381,296,o),
(332,349,o),
(253,404,cs),
(173,460,o),
(123,496,o),
(123,545,cs),
(123,609,o),
(220,659,o),
(304,659,cs),
(447,659,ls),
(461,659,o),
(472,673,o),
(472,687,cs),
(472,713,o),
(450,713,o),
(445,713,cs),
(305,713,ls),
(164,713,o),
(67,632,o),
(67,541,cs),
(67,463,o),
(130,422,o),
(217,361,cs),
(296,305,o),
(326,264,o),
(326,201,cs),
(326,91,o),
(181,55,o),
(110,55,cs),
(0,55,ls),
(-14,55,o),
(-27,41,o),
(-27,27,cs),
(-27,0,o),
(-2,0,o),
(0,0,cs),
(110,0,ls)
);
}
);
vertWidth = 0;
width = 549;
}
);
},
{
color = 7;
glyphname = T.ss04;
kernLeft = T;
kernRight = T;
layers = (
{
anchors = (
{
name = bottom;
pos = (491,0);
},
{
name = center;
pos = (654,928);
},
{
name = top;
pos = (818,1855);
}
);
layerId = m01;
shapes = (
{
closed = 1;
nodes = (
(640,0,o),
(650,50,o),
(656,79,cs),
(941,1708,l),
(1408,1708,ls),
(1469,1708,o),
(1489,1745,o),
(1489,1782,cs),
(1489,1818,o),
(1470,1855,o),
(1408,1855,cs),
(314,1855,ls),
(249,1855,o),
(231,1818,o),
(231,1782,cs),
(231,1745,o),
(250,1708,o),
(314,1708,cs),
(779,1708,l),
(498,87,l),
(487,39,o),
(513,0,o),
(571,0,cs)
);
},
{
closed = 1;
nodes = (
(524,18,o),
(507,44,o),
(517,83,c),
(801,1727,l),
(314,1727,ls),
(261,1727,o),
(249,1751,o),
(249,1782,cs),
(249,1813,o),
(262,1837,o),
(314,1837,cs),
(1408,1837,ls),
(1457,1837,o),
(1470,1813,o),
(1470,1782,cs),
(1470,1751,o),
(1458,1727,o),
(1408,1727,cs),
(925,1727,l),
(638,82,ls),
(634,54,o),
(626,18,o),
(571,18,cs)
);
},
{
closed = 1;
nodes = (
(884,1685,o),
(903,1704,o),
(903,1727,cs),
(903,1750,o),
(884,1769,o),
(861,1769,cs),
(838,1769,o),
(820,1750,o),
(820,1727,cs),
(820,1704,o),
(838,1685,o),
(861,1685,cs)
);
}
);
vertWidth = 0;
width = 1397;
},
{
anchors = (
{
name = bottom;
pos = (543,0);
},
{
name = center;
pos = (707,928);
},
{
name = top;
pos = (870,1855);
}
);
layerId = "140DECC1-64C4-40C0-9C07-503DBC3F4160";
shapes = (
{
closed = 1;
nodes = (
(728,-21,o),
(783,41,o),
(796,107,c),
(1055,1589,l),
(1434,1589,ls),
(1537,1589,o),
(1595,1656,o),
(1595,1733,cs),
(1595,1818,o),
(1531,1883,o),
(1434,1883,cs),
(401,1883,ls),
(304,1883,o),
(240,1818,o),
(240,1733,cs),
(240,1656,o),
(298,1589,o),
(401,1589,cs),
(729,1589,l),
(474,143,ls),
(458,52,o),
(524,-21,o),
(625,-21,cs)
);
},
{
closed = 1;
nodes = (
(543,16,o),
(499,66,o),
(511,136,cs),
(773,1626,l),
(401,1626,ls),
(318,1626,o),
(277,1672,o),
(277,1733,cs),
(277,1800,o),
(322,1846,o),
(401,1846,cs),
(1434,1846,ls),
(1514,1846,o),
(1558,1800,o),
(1558,1733,cs),
(1558,1672,o),
(1517,1626,o),
(1434,1626,cs),
(1024,1626,l),
(760,115,ls),
(749,59,o),
(710,16,o),
(625,16,cs)
);
},
{
closed = 1;
nodes = (
(926,1562,o),
(951,1587,o),
(951,1618,cs),
(951,1648,o),
(926,1673,o),
(895,1673,cs),
(865,1673,o),
(840,1648,o),
(840,1618,cs),
(840,1587,o),
(865,1562,o),
(895,1562,cs)
);
}
);
vertWidth = 0;
width = 1512;
}
);
metricLeft = T;
metricRight = T;
},
{
color = 7;
glyphname = U.ss04;
kernLeft = U;
kernRight = H;
layers = (
{
anchors = (
{
name = bottom;
pos = (671,0);
},
{
name = ogonek;
pos = (1254,9);
},
{
name = top;
pos = (998,1855);
},
{
name = topright;
pos = (1707,1855);
}
);
layerId = m01;
shapes = (
{
closed = 1;
nodes = (
(672,-13,o),
(1013,356,o),
(1208,818,c),
(1081,86,ls),
(1071,27,o),
(1109,-4,o),
(1154,-4,cs),
(1190,-4,o),
(1231,21,o),
(1239,68,cs),
(1538,1769,ls),
(1547,1818,o),
(1525,1854,o),
(1463,1854,cs),
(1404,1854,o),
(1383,1817,o),
(1375,1780,c),
(1320,1466,l),
(1083,699,o),
(695,136,o),
(428,136,cs),
(305,136,o),
(332,335,o),
(365,517,cs),
(592,1765,ls),
(601,1810,o),
(572,1851,o),
(523,1854,cs),
(472,1854,o),
(439,1811,o),
(431,1763,cs),
(207,526,ls),
(140,152,o),
(230,-13,o),
(404,-13,cs)
);
},
{
closed = 1;
nodes = (
(242,6,o),
(160,156,o),
(225,522,cs),
(448,1760,ls),
(456,1803,o),
(482,1836,o),
(522,1836,cs),
(561,1833,o),
(580,1805,o),
(574,1768,cs),
(347,519,ls),
(314,337,o),
(283,118,o),
(428,118,cs),
(707,118,o),
(1100,692,o),
(1338,1463,c),
(1393,1777,ls),
(1399,1809,o),
(1416,1836,o),
(1463,1836,cs),
(1513,1836,o),
(1528,1812,o),
(1521,1772,cs),
(1221,72,ls),
(1214,33,o),
(1184,15,o),
(1154,15,cs),
(1116,15,o),
(1090,36,o),
(1099,82,cs),
(1231,842,ls),
(1242,906,o),
(1235,924,o),
(1200,845,cs),
(977,344,o),
(655,6,o),
(404,6,cs)
);
},
{
closed = 1;
nodes = (
(536,1732,o),
(554,1750,o),
(554,1773,cs),
(554,1796,o),
(536,1815,o),
(513,1815,cs),
(490,1815,o),
(471,1796,o),
(471,1773,cs),
(471,1750,o),
(490,1732,o),
(513,1732,cs)
);
}
);
vertWidth = 0;
width = 1577;
},
{
anchors = (
{
name = bottom;
pos = (736,0);
},
{
name = ogonek;
pos = (1386,9);
},
{
name = top;
pos = (1064,1855);
},
{
name = topright;
pos = (1855,1855);
}
);
layerId = "140DECC1-64C4-40C0-9C07-503DBC3F4160";
shapes = (
{
closed = 1;
nodes = (
(702,-30,o),
(938,135,o),
(1130,424,c),
(1080,142,ls),
(1061,35,o),
(1142,-18,o),
(1231,-18,cs),
(1301,-18,o),
(1386,18,o),
(1401,103,cs),
(1684,1716,ls),
(1700,1806,o),
(1638,1874,o),
(1531,1874,cs),
(1441,1874,o),
(1375,1825,o),
(1361,1750,cs),
(1325,1554,l),
(1108,750,o),
(809,263,o),
(551,263,cs),
(481,263,o),
(488,357,o),
(518,525,cs),
(730,1710,ls),
(747,1805,o),
(676,1874,o),
(582,1874,cs),
(480,1877,o),
(418,1790,o),
(407,1734,cs),
(196,561,ls),
(123,154,o),
(250,-30,o),
(471,-30,cs)
);
},
{
closed = 1;
nodes = (
(273,6,o),
(164,167,o),
(233,553,cs),
(444,1727,ls),
(453,1773,o),
(500,1840,o),
(582,1837,cs),
(659,1837,o),
(706,1789,o),
(693,1718,cs),
(481,532,ls),
(450,359,o),
(441,226,o),
(551,226,cs),
(833,226,o),
(1142,734,o),
(1362,1547,c),
(1398,1745,ls),
(1408,1802,o),
(1455,1837,o),
(1531,1837,cs),
(1619,1837,o),
(1660,1793,o),
(1647,1721,cs),
(1364,108,ls),
(1353,46,o),
(1292,18,o),
(1231,18,cs),
(1157,18,o),
(1102,55,o),
(1117,137,cs),
(1182,508,ls),
(1194,575,o),
(1181,580,o),
(1142,514,cs),
(950,187,o),
(707,6,o),
(471,6,cs)
);
},
{
closed = 1;
nodes = (
(600,1681,o),
(625,1706,o),
(625,1736,cs),
(625,1767,o),
(600,1792,o),
(569,1792,cs),
(539,1792,o),
(514,1767,o),
(514,1736,cs),
(514,1706,o),
(539,1681,o),
(569,1681,cs)
);
}
);
vertWidth = 0;
width = 1732;
}
);
metricLeft = U;
metricRight = U;
},
{
color = 7;
glyphname = V.ss04;
kernLeft = V;
kernRight = V;
layers = (
{
anchors = (
{
name = bottom;
pos = (476,0);
},
{
name = top;
pos = (803,1855);
}
);
layerId = m01;
shapes = (
{
closed = 1;
nodes = (
(516,0,o),
(529,37,o),
(549,77,cs),
(1377,1752,ls),
(1409,1817,o),
(1369,1855,o),
(1321,1855,cs),
(1262,1855,o),
(1237,1831,o),
(1213,1781,cs),
(506,321,l),
(438,1780,ls),
(436,1810,o),
(421,1855,o),
(350,1855,cs),
(294,1855,o),
(274,1818,o),
(277,1771,cs),
(370,87,ls),
(371,49,o),
(399,0,o),
(455,0,cs)
);
},
{
closed = 1;
nodes = (
(411,18,o),
(390,55,o),
(388,89,cs),
(296,1772,ls),
(294,1813,o),
(306,1837,o),
(350,1837,cs),
(408,1837,o),
(419,1806,o),
(420,1779,cs),
(490,290,ls),
(492,252,o),
(493,252,o),
(511,288,cs),
(1230,1773,ls),
(1252,1819,o),
(1270,1837,o),
(1321,1837,cs),
(1360,1837,o),
(1386,1811,o),
(1360,1759,cs),
(532,85,ls),
(512,44,o),
(504,18,o),
(455,18,cs)
);
},
{
closed = 1;
nodes = (
(379,1732,o),
(397,1750,o),
(397,1773,cs),
(397,1796,o),
(379,1815,o),
(356,1815,cs),
(333,1815,o),
(314,1796,o),
(314,1773,cs),
(314,1750,o),
(333,1732,o),
(356,1732,cs)
);
}
);
vertWidth = 0;
width = 1389;
},
{
anchors = (
{
name = bottom;
pos = (635,0);
},
{
name = top;
pos = (962,1855);
}
);
layerId = "140DECC1-64C4-40C0-9C07-503DBC3F4160";
shapes = (
{
closed = 1;
nodes = (
(675,-23,o),
(720,31,o),
(748,88,cs),
(1533,1679,ls),
(1588,1792,o),
(1515,1874,o),
(1411,1874,cs),
(1321,1874,o),
(1262,1836,o),
(1231,1771,cs),
(697,669,l),
(646,1744,ls),
(642,1818,o),
(581,1874,o),
(480,1874,cs),
(390,1874,o),
(327,1821,o),
(333,1725,cs),
(423,124,ls),
(428,45,o),
(492,-23,o),
(584,-23,cs)
);
},
{
closed = 1;
nodes = (
(510,14,o),
(464,63,o),
(460,126,cs),
(370,1727,ls),
(365,1802,o),
(406,1837,o),
(480,1837,cs),
(565,1837,o),
(606,1799,o),
(609,1742,cs),
(663,622,ls),
(666,535,o),
(676,541,o),
(715,622,cs),
(1264,1757,ls),
(1289,1808,o),
(1334,1837,o),
(1411,1837,cs),
(1494,1837,o),
(1543,1784,o),
(1500,1696,cs),
(714,104,ls),
(688,52,o),
(656,14,o),
(584,14,cs)
);
},
{
closed = 1;
nodes = (
(520,1681,o),
(545,1706,o),
(545,1736,cs),
(545,1767,o),
(520,1792,o),
(490,1792,cs),
(459,1792,o),
(434,1767,o),
(434,1736,cs),
(434,1706,o),
(459,1681,o),
(490,1681,cs)
);
}
);
vertWidth = 0;
width = 1415;
}
);
metricLeft = V;
metricRight = V;
},
{
color = 7;
glyphname = W.ss04;
kernLeft = W;
kernRight = W;
layers = (
{
anchors = (
{
name = bottom;
pos = (963,0);
},
{
name = top;
pos = (1290,1855);
}
);
layerId = m01;
shapes = (
{
closed = 1;
nodes = (
(514,0,o),
(539,49,o),
(553,79,cs),
(1266,1550,l),
(1341,64,ls),
(1343,20,o),
(1369,0,o),
(1424,0,cs),
(1464,0,o),
(1491,28,o),
(1515,77,cs),
(2341,1752,ls),
(2373,1817,o),
(2333,1855,o),
(2276,1855,cs),
(2231,1855,o),
(2200,1830,o),
(2177,1781,cs),
(1476,333,l),
(1402,1781,ls),
(1400,1810,o),
(1380,1855,o),
(1307,1855,cs),
(1257,1855,o),
(1222,1804,o),
(1213,1783,cs),
(510,324,l),
(439,1780,ls),
(437,1810,o),
(422,1855,o),
(351,1855,cs),
(294,1855,o),
(274,1818,o),
(277,1771,cs),
(370,87,ls),
(372,38,o),
(405,0,o),
(460,0,cs)
);
},
{
closed = 1;
nodes = (
(415,18,o),
(391,46,o),
(388,89,cs),
(296,1772,ls),
(294,1813,o),
(306,1837,o),
(351,1837,cs),
(408,1837,o),
(419,1806,o),
(420,1779,cs),
(493,294,ls),
(495,261,o),
(501,263,o),
(517,297,cs),
(1230,1775,ls),
(1239,1794,o),
(1267,1837,o),
(1307,1837,cs),
(1367,1837,o),
(1382,1805,o),
(1383,1779,cs),
(1458,313,ls),
(1460,273,o),
(1467,274,o),
(1486,312,cs),
(2193,1773,ls),
(2214,1818,o),
(2239,1837,o),
(2276,1837,cs),
(2324,1837,o),
(2351,1811,o),
(2325,1759,cs),
(1499,84,ls),
(1477,40,o),
(1456,18,o),
(1424,18,cs),
(1377,18,o),
(1361,30,o),
(1359,65,cs),
(1282,1576,ls),
(1280,1615,o),
(1275,1611,o),
(1258,1575,cs),
(537,87,ls),
(522,57,o),
(503,18,o),
(460,18,cs)
);
},
{
closed = 1;
nodes = (
(377,1732,o),
(395,1750,o),
(395,1773,cs),
(395,1796,o),
(377,1815,o),
(354,1815,cs),
(331,1815,o),
(312,1796,o),
(312,1773,cs),
(312,1750,o),
(331,1732,o),
(354,1732,cs)
);
}
);
vertWidth = 0;
width = 2305;
},
{
anchors = (
{
name = bottom;
pos = (1102,0);
},
{
name = top;
pos = (1429,1855);
}
);
layerId = "140DECC1-64C4-40C0-9C07-503DBC3F4160";
shapes = (
{
closed = 1;
nodes = (
(651,-18,o),
(710,21,o),
(743,88,cs),
(1292,1194,l),
(1366,127,ls),
(1372,37,o),
(1436,-18,o),
(1524,-18,cs),
(1594,-18,o),
(1656,22,o),
(1690,92,cs),
(2468,1679,ls),
(2523,1792,o),
(2438,1874,o),
(2341,1874,cs),
(2243,1874,o),
(2188,1820,o),
(2161,1765,cs),
(1637,678,l),
(1562,1744,ls),
(1556,1823,o),
(1500,1874,o),
(1390,1874,cs),
(1283,1874,o),
(1253,1811,o),
(1235,1775,cs),
(692,664,l),
(646,1744,ls),
(643,1818,o),
(585,1874,o),
(483,1874,cs),
(393,1874,o),
(328,1821,o),
(333,1725,cs),
(417,124,ls),
(421,37,o),
(489,-18,o),
(590,-18,cs)
);
},
{
closed = 1;
nodes = (
(505,18,o),
(457,57,o),
(454,126,cs),
(370,1727,ls),
(366,1802,o),
(408,1837,o),
(483,1837,cs),
(567,1837,o),
(606,1799,o),
(609,1742,cs),
(657,606,ls),
(660,531,o),
(668,534,o),
(703,605,cs),
(1269,1758,ls),
(1286,1794,o),
(1307,1837,o),
(1390,1837,cs),
(1483,1837,o),
(1520,1804,o),
(1525,1742,cs),
(1604,618,ls),
(1609,550,o),
(1614,548,o),
(1648,618,cs),
(2195,1748,ls),
(2218,1796,o),
(2259,1837,o),
(2341,1837,cs),
(2418,1837,o),
(2477,1781,o),
(2435,1696,cs),
(1657,109,ls),
(1627,50,o),
(1581,18,o),
(1524,18,cs),
(1452,18,o),
(1407,57,o),
(1403,128,cs),
(1326,1242,ls),
(1321,1313,o),
(1310,1314,o),
(1275,1243,cs),
(710,104,ls),
(682,49,o),
(638,18,o),
(590,18,cs)
);
},
{
closed = 1;
nodes = (
(520,1681,o),
(545,1706,o),
(545,1736,cs),
(545,1767,o),
(520,1792,o),
(490,1792,cs),
(459,1792,o),
(434,1767,o),
(434,1736,cs),
(434,1706,o),
(459,1681,o),
(490,1681,cs)
);
}
);
vertWidth = 0;
width = 2368;
}
);
metricLeft = W;
metricRight = W;
},
{
color = 7;
glyphname = X.ss04;
kernLeft = X;
kernRight = X;
layers = (
{
anchors = (
{
name = bottom;
pos = (595,0);
},
{
name = top;
pos = (922,1855);
}
);
layerId = m01;
shapes = (
{
closed = 1;
nodes = (
(114,-10,o),
(174,-12,o),
(208,35,cs),
(735,762,l),
(999,61,ls),
(1021,1,o),
(1084,-10,o),
(1124,10,cs),
(1156,27,o),
(1169,65,o),
(1151,112,cs),
(848,917,l),
(1436,1724,ls),
(1469,1770,o),
(1462,1818,o),
(1434,1839,cs),
(1402,1866,o),
(1342,1864,o),
(1306,1816,cs),
(782,1095,l),
(516,1797,ls),
(495,1854,o),
(443,1866,o),
(404,1852,cs),
(364,1837,o),
(349,1796,o),
(370,1739,cs),
(670,941,l),
(73,122,ls),
(44,83,o),
(52,41,o),
(78,18,cs)
);
},
{
closed = 1;
nodes = (
(69,50,o),
(65,80,o),
(87,111,cs),
(690,938,l),
(387,1745,ls),
(369,1794,o),
(379,1824,o),
(410,1835,cs),
(442,1848,o),
(480,1839,o),
(499,1791,cs),
(768,1079,ls),
(775,1060,o),
(778,1060,o),
(794,1081,cs),
(1321,1805,ls),
(1350,1844,o),
(1397,1846,o),
(1422,1824,cs),
(1443,1808,o),
(1450,1774,o),
(1421,1735,cs),
(828,919,l),
(1135,105,ls),
(1149,66,o),
(1140,40,o),
(1115,27,cs),
(1082,9,o),
(1035,18,o),
(1016,67,cs),
(748,780,ls),
(742,797,o),
(739,797,o),
(727,781,cs),
(193,46,ls),
(164,7,o),
(119,9,o),
(90,33,cs)
);
},
{
closed = 1;
nodes = (
(463,1732,o),
(481,1750,o),
(481,1773,cs),
(481,1796,o),
(463,1815,o),
(440,1815,cs),
(417,1815,o),
(398,1796,o),
(398,1773,cs),
(398,1750,o),
(417,1732,o),
(440,1732,cs)
);
}
);
vertWidth = 0;
width = 1430;
},
{
anchors = (
{
name = bottom;
pos = (609,0);
},
{
name = top;
pos = (936,1855);
}
);
layerId = "140DECC1-64C4-40C0-9C07-503DBC3F4160";
shapes = (
{
closed = 1;
nodes = (
(135,-29,o),
(261,-45,o),
(318,34,cs),
(724,603,l),
(923,73,ls),
(959,-22,o),
(1081,-37,o),
(1153,0,cs),
(1221,35,o),
(1255,101,o),
(1222,179,cs),
(945,911,l),
(1467,1640,ls),
(1524,1716,o),
(1509,1787,o),
(1450,1838,cs),
(1392,1891,o),
(1277,1892,o),
(1219,1814,cs),
(817,1255,l),
(616,1785,ls),
(581,1877,o),
(477,1890,o),
(405,1866,cs),
(322,1836,o),
(289,1765,o),
(327,1666,cs),
(596,948,l),
(63,208,ls),
(15,141,o),
(14,75,o),
(73,22,cs)
);
},
{
closed = 1;
nodes = (
(53,90,o),
(53,131,o),
(92,186,cs),
(637,942,l),
(362,1679,ls),
(331,1761,o),
(351,1807,o),
(418,1830,cs),
(479,1852,o),
(555,1842,o),
(581,1772,cs),
(791,1216,ls),
(804,1181,o),
(809,1182,o),
(833,1216,cs),
(1248,1792,ls),
(1294,1854,o),
(1380,1852,o),
(1426,1810,cs),
(1474,1769,o),
(1483,1723,o),
(1438,1662,cs),
(905,917,l),
(1187,166,ls),
(1211,103,o),
(1191,62,o),
(1137,33,cs),
(1076,3,o),
(985,14,o),
(958,86,cs),
(750,641,ls),
(737,677,o),
(733,677,o),
(708,642,cs),
(288,56,ls),
(245,-5,o),
(148,8,o),
(97,50,cs)
);
},
{
closed = 1;
nodes = (
(505,1681,o),
(529,1706,o),
(529,1736,cs),
(529,1767,o),
(505,1792,o),
(474,1792,cs),
(444,1792,o),
(419,1767,o),
(419,1736,cs),
(419,1706,o),
(444,1681,o),
(474,1681,cs)
);
}
);
vertWidth = 0;
width = 1456;
}
);
metricLeft = X;
metricRight = X;
},
{
color = 7;
glyphname = Y.ss04;
kernLeft = Y;
kernRight = Y;
layers = (
{
anchors = (
{
name = bottom;
pos = (465,0);
},
{
name = top;
pos = (792,1855);
},
{
name = topleft;
pos = (258,1855);
}
);
layerId = m01;
shapes = (
{
closed = 1;
nodes = (
(331,1732,o),
(349,1750,o),
(349,1773,cs),
(349,1796,o),
(331,1815,o),
(308,1815,cs),
(285,1815,o),
(266,1796,o),
(266,1773,cs),
(266,1750,o),
(285,1732,o),
(308,1732,cs)
);
},
{
closed = 1;
nodes = (
(1194,1802,ls),
(1216,1832,o),
(1233,1834,o),
(1259,1834,cs),
(1287,1834,o),
(1317,1810,o),
(1317,1784,cs),
(1317,1769,o),
(1311,1756,o),
(1295,1733,cs),
(79,82,ls),
(46,37,o),
(29,18,o),
(-9,18,cs),
(-43,18,o),
(-72,52,o),
(-48,84,cs),
(568,936,l),
(255,1745,ls),
(246,1769,o),
(244,1774,o),
(244,1790,cs),
(244,1814,o),
(269,1837,o),
(299,1837,cs),
(339,1837,o),
(359,1818,o),
(371,1786,cs),
(653,1052,l)
);
},
{
closed = 1;
nodes = (
(-95,47,o),
(-54,0,o),
(-9,0,cs),
(43,0,o),
(63,32,o),
(97,79,cs),
(1309,1721,ls),
(1328,1746,o),
(1335,1766,o),
(1335,1784,cs),
(1335,1821,o),
(1294,1853,o),
(1259,1853,cs),
(1229,1853,o),
(1204,1848,o),
(1179,1813,cs),
(659,1090,l),
(389,1793,ls),
(375,1829,o),
(347,1855,o),
(299,1855,cs),
(261,1855,o),
(225,1824,o),
(225,1790,cs),
(225,1770,o),
(229,1762,o),
(238,1739,cs),
(547,937,l),
(-67,87,ls)
);
}
);
vertWidth = 0;
width = 1105;
},
{
anchors = (
{
name = bottom;
pos = (509,0);
},
{
name = top;
pos = (836,1855);
},
{
name = topleft;
pos = (258,1855);
}
);
layerId = "140DECC1-64C4-40C0-9C07-503DBC3F4160";
shapes = (
{
closed = 1;
nodes = (
(395,1681,o),
(420,1706,o),
(420,1736,cs),
(420,1767,o),
(395,1792,o),
(365,1792,cs),
(334,1792,o),
(310,1767,o),
(310,1736,cs),
(310,1706,o),
(334,1681,o),
(365,1681,cs)
);
},
{
closed = 1;
nodes = (
(1165,1781,ls),
(1191,1818,o),
(1226,1833,o),
(1268,1833,cs),
(1314,1833,o),
(1389,1795,o),
(1389,1732,cs),
(1389,1702,o),
(1382,1680,o),
(1359,1648,cs),
(233,126,ls),
(184,59,o),
(147,20,o),
(85,20,cs),
(19,20,o),
(-59,85,o),
(-17,143,cs),
(547,927,l),
(256,1679,ls),
(244,1709,o),
(240,1723,o),
(240,1750,cs),
(240,1800,o),
(295,1837,o),
(373,1837,cs),
(426,1837,o),
(455,1818,o),
(477,1759,cs),
(708,1151,l)
);
},
{
closed = 1;
nodes = (
(-107,75,o),
(0,-17,o),
(85,-17,cs),
(169,-17,o),
(215,44,o),
(270,118,cs),
(1389,1626,ls),
(1415,1661,o),
(1426,1694,o),
(1426,1732,cs),
(1426,1819,o),
(1325,1870,o),
(1268,1870,cs),
(1217,1870,o),
(1169,1848,o),
(1136,1802,cs),
(720,1224,l),
(511,1774,ls),
(485,1842,o),
(443,1874,o),
(373,1874,cs),
(281,1874,o),
(203,1822,o),
(203,1750,cs),
(203,1718,o),
(209,1698,o),
(221,1666,cs),
(506,928,l),
(-54,149,ls)
);
}
);
vertWidth = 0;
width = 1194;
}
);
},
{
color = 7;
glyphname = Z.ss04;
kernLeft = Z;
kernRight = Z;
layers = (
{
anchors = (
{
name = bottom;
pos = (613,0);
},
{
name = center;
pos = (776,928);
},
{
name = top;
pos = (940,1855);
}
);
layerId = m01;
shapes = (
{
closed = 1;
nodes = (
(1096,0,ls),
(1161,0,o),
(1179,42,o),
(1179,80,cs),
(1179,117,o),
(1160,150,o),
(1096,150,cs),
(297,150,l),
(1429,1722,ls),
(1444,1744,o),
(1455,1770,o),
(1455,1790,cs),
(1455,1832,o),
(1429,1855,o),
(1374,1855,cs),
(456,1855,ls),
(393,1855,o),
(373,1814,o),
(373,1778,cs),
(373,1738,o),
(393,1708,o),
(456,1708,cs),
(1233,1708,l),
(91,125,ls),
(77,103,o),
(74,84,o),
(74,68,cs),
(74,35,o),
(100,0,o),
(157,0,cs)
);
},
{
closed = 1;
nodes = (
(109,18,o),
(91,43,o),
(91,68,cs),
(91,82,o),
(94,96,o),
(106,114,cs),
(1255,1708,ls),
(1268,1725,o),
(1267,1727,o),
(1243,1727,cs),
(456,1727,ls),
(404,1727,o),
(392,1745,o),
(392,1778,cs),
(392,1808,o),
(405,1837,o),
(456,1837,cs),
(1374,1837,ls),
(1421,1837,o),
(1438,1823,o),
(1438,1790,cs),
(1438,1774,o),
(1429,1753,o),
(1415,1733,cs),
(277,154,ls),
(262,133,o),
(263,131,o),
(291,131,cs),
(1096,131,ls),
(1149,131,o),
(1161,111,o),
(1161,80,cs),
(1161,47,o),
(1148,18,o),
(1096,18,cs),
(157,18,ls)
);
},
{
closed = 1;
nodes = (
(484,1738,o),
(503,1757,o),
(503,1780,cs),
(503,1803,o),
(484,1821,o),
(461,1821,cs),
(438,1821,o),
(419,1803,o),
(419,1780,cs),
(419,1757,o),
(438,1738,o),
(461,1738,cs)
);
}
);
vertWidth = 0;
width = 1362;
},
{
anchors = (
{
name = bottom;
pos = (667,0);
},
{
name = center;
pos = (831,928);
},
{
name = top;
pos = (994,1855);
}
);
layerId = "140DECC1-64C4-40C0-9C07-503DBC3F4160";
shapes = (
{
closed = 1;
nodes = (
(1142,-18,ls),
(1244,-18,o),
(1303,46,o),
(1303,123,cs),
(1303,207,o),
(1236,275,o),
(1142,275,cs),
(535,275,l),
(1520,1626,ls),
(1550,1666,o),
(1560,1701,o),
(1560,1733,cs),
(1560,1814,o),
(1490,1874,o),
(1388,1874,cs),
(520,1874,ls),
(423,1874,o),
(359,1808,o),
(359,1723,cs),
(359,1647,o),
(418,1580,o),
(520,1580,cs),
(1103,1580,l),
(102,211,ls),
(83,185,o),
(74,154,o),
(74,125,cs),
(74,66,o),
(115,-18,o),
(256,-18,cs)
);
},
{
closed = 1;
nodes = (
(140,18,o),
(111,77,o),
(111,125,cs),
(111,149,o),
(116,169,o),
(131,188,cs),
(1149,1582,ls),
(1173,1614,o),
(1172,1617,o),
(1128,1617,cs),
(520,1617,ls),
(437,1617,o),
(396,1663,o),
(396,1723,cs),
(396,1791,o),
(441,1837,o),
(520,1837,cs),
(1388,1837,ls),
(1474,1837,o),
(1523,1794,o),
(1523,1733,cs),
(1523,1708,o),
(1514,1682,o),
(1490,1648,cs),
(492,278,ls),
(465,241,o),
(466,238,o),
(515,238,cs),
(1142,238,ls),
(1219,238,o),
(1266,189,o),
(1266,123,cs),
(1266,63,o),
(1225,18,o),
(1142,18,cs),
(256,18,ls)
);
},
{
closed = 1;
nodes = (
(552,1681,o),
(577,1706,o),
(577,1736,cs),
(577,1767,o),
(552,1792,o),
(521,1792,cs),
(491,1792,o),
(466,1767,o),
(466,1736,cs),
(466,1706,o),
(491,1681,o),
(521,1681,cs)
);
}
);
vertWidth = 0;
width = 1468;
}
);
metricLeft = Z;
metricRight = Z;
},
